<svg width="361" height="267" viewBox="0 0 361 267" fill="none" xmlns="http://www.w3.org/2000/svg">
<path d="M9.6241 203C-11.1935 160.721 1.75569 112.751 52.291 95.902C91.1211 82.9549 150.673 81.8703 175.454 42.099C215.622 -22.3706 315.95 -15.1617 351.985 80.1666C384.774 166.908 316.675 304.743 224.575 257.331C147.827 217.822 135.479 261.743 85.5828 258.549C47.1039 256.085 16.6469 217.262 9.6241 203Z" fill="#F3F5FD"/>
<path d="M9.6241 203C-11.1935 160.721 1.75569 112.751 52.291 95.902C91.1211 82.9549 150.673 81.8703 175.454 42.099C215.622 -22.3706 315.95 -15.1617 351.985 80.1666C384.774 166.908 316.675 304.743 224.575 257.331C147.827 217.822 135.479 261.743 85.5828 258.549C47.1039 256.085 16.6469 217.262 9.6241 203Z" fill="#367CFF"/>
<g opacity="0.75">
<path opacity="0.75" d="M9.6241 203C-11.1935 160.721 1.75569 112.751 52.291 95.902C91.1211 82.9549 150.673 81.8703 175.454 42.099C215.622 -22.3706 315.95 -15.1617 351.985 80.1666C384.774 166.908 316.675 304.743 224.575 257.331C147.827 217.822 135.479 261.743 85.5828 258.549C47.1039 256.085 16.6469 217.262 9.6241 203Z" fill="#292A2E"/>
</g>
<g opacity="0.18">
<path opacity="0.18" d="M119.374 97.9456C120.199 97.9456 120.868 97.2756 120.868 96.4491C120.868 95.6226 120.199 94.9526 119.374 94.9526C118.55 94.9526 117.881 95.6226 117.881 96.4491C117.881 97.2756 118.55 97.9456 119.374 97.9456Z" fill="white"/>
<path opacity="0.18" d="M133.358 126.886C134.858 126.886 136.074 125.668 136.074 124.166C136.074 122.663 134.858 121.445 133.358 121.445C131.859 121.445 130.643 122.663 130.643 124.166C130.643 125.668 131.859 126.886 133.358 126.886Z" fill="white"/>
<path opacity="0.18" d="M219.201 51.0193C220.7 51.0193 221.916 49.8012 221.916 48.2987C221.916 46.7962 220.7 45.5781 219.201 45.5781C217.701 45.5781 216.485 46.7962 216.485 48.2987C216.485 49.8012 217.701 51.0193 219.201 51.0193Z" fill="white"/>
<path opacity="0.18" d="M133.129 202.587C133.905 202.587 134.535 201.956 134.535 201.178C134.535 200.4 133.905 199.77 133.129 199.77C132.353 199.77 131.723 200.4 131.723 201.178C131.723 201.956 132.353 202.587 133.129 202.587Z" fill="white"/>
<path opacity="0.18" d="M257.064 170.58C259.249 170.58 261.02 168.805 261.02 166.616C261.02 164.426 259.249 162.651 257.064 162.651C254.878 162.651 253.107 164.426 253.107 166.616C253.107 168.805 254.878 170.58 257.064 170.58Z" fill="white"/>
<path opacity="0.18" d="M117.171 238.501C118.388 238.501 119.374 237.512 119.374 236.293C119.374 235.074 118.388 234.085 117.171 234.085C115.954 234.085 114.968 235.074 114.968 236.293C114.968 237.512 115.954 238.501 117.171 238.501Z" fill="white"/>
<path opacity="0.18" d="M286.511 36.9484C288.682 36.9484 290.442 35.1853 290.442 33.0103C290.442 30.8354 288.682 29.0723 286.511 29.0723C284.341 29.0723 282.581 30.8354 282.581 33.0103C282.581 35.1853 284.341 36.9484 286.511 36.9484Z" fill="white"/>
<path opacity="0.18" d="M261.046 106.528C262.146 106.528 263.037 105.635 263.037 104.533C263.037 103.432 262.146 102.539 261.046 102.539C259.947 102.539 259.055 103.432 259.055 104.533C259.055 105.635 259.947 106.528 261.046 106.528Z" fill="white"/>
<path opacity="0.18" d="M20.2619 150.413C21.3615 150.413 22.2529 149.52 22.2529 148.418C22.2529 147.316 21.3615 146.423 20.2619 146.423C19.1624 146.423 18.271 147.316 18.271 148.418C18.271 149.52 19.1624 150.413 20.2619 150.413Z" fill="white"/>
<path opacity="0.18" d="M191.175 151.463C192.62 151.463 193.791 150.289 193.791 148.842C193.791 147.394 192.62 146.22 191.175 146.22C189.73 146.22 188.559 147.394 188.559 148.842C188.559 150.289 189.73 151.463 191.175 151.463Z" fill="white"/>
<path opacity="0.18" d="M164.076 225.248C165.161 225.248 166.041 224.366 166.041 223.279C166.041 222.192 165.161 221.31 164.076 221.31C162.991 221.31 162.111 222.192 162.111 223.279C162.111 224.366 162.991 225.248 164.076 225.248Z" fill="white"/>
<path opacity="0.18" d="M299.883 121.074C302.165 121.074 304.016 119.22 304.016 116.932C304.016 114.645 302.165 112.791 299.883 112.791C297.6 112.791 295.749 114.645 295.749 116.932C295.749 119.22 297.6 121.074 299.883 121.074Z" fill="white"/>
<path opacity="0.18" d="M322.011 65.1185C323.354 65.1185 324.442 64.0277 324.442 62.682C324.442 61.3364 323.354 60.2456 322.011 60.2456C320.668 60.2456 319.579 61.3364 319.579 62.682C319.579 64.0277 320.668 65.1185 322.011 65.1185Z" fill="white"/>
<path opacity="0.18" d="M185.916 202.928C187.376 202.928 188.56 201.742 188.56 200.279C188.56 198.817 187.376 197.631 185.916 197.631C184.456 197.631 183.273 198.817 183.273 200.279C183.273 201.742 184.456 202.928 185.916 202.928Z" fill="white"/>
<path opacity="0.18" d="M270.661 243.939C272.385 243.939 273.784 242.539 273.784 240.811C273.784 239.082 272.385 237.682 270.661 237.682C268.936 237.682 267.538 239.082 267.538 240.811C267.538 242.539 268.936 243.939 270.661 243.939Z" fill="white"/>
<path opacity="0.18" d="M334.81 165.65C336.98 165.65 338.74 163.886 338.74 161.712C338.74 159.537 336.98 157.773 334.81 157.773C332.639 157.773 330.879 159.537 330.879 161.712C330.879 163.886 332.639 165.65 334.81 165.65Z" fill="white"/>
<path opacity="0.18" d="M328.837 109.289C330.18 109.289 331.269 108.198 331.269 106.852C331.269 105.507 330.18 104.416 328.837 104.416C327.494 104.416 326.406 105.507 326.406 106.852C326.406 108.198 327.494 109.289 328.837 109.289Z" fill="white"/>
<path opacity="0.18" d="M236.161 234.509C237.302 234.509 238.227 233.582 238.227 232.439C238.227 231.295 237.302 230.368 236.161 230.368C235.019 230.368 234.094 231.295 234.094 232.439C234.094 233.582 235.019 234.509 236.161 234.509Z" fill="white"/>
</g>
<path d="M114.018 130.037C113.911 130.023 112.724 149.753 89.8489 148.032C74.0123 146.844 68.3658 130.009 68.0029 130.009C69.7107 129.646 71.8207 129.094 72.6591 128.905C75.4452 128.275 78.9232 125.972 79.7268 121.12C80.1902 118.323 79.4045 104.016 79.646 101.187L103.955 106.623C103.615 112.599 101.238 126.452 109.57 128.904C110.957 129.31 112.45 129.683 114.018 130.037Z" fill="#E98862"/>
<path opacity="0.52" d="M104.296 123.243C103.916 122.013 103.671 120.746 103.566 119.462C103.298 116.535 103.352 113.586 103.725 110.67C98.7837 110.002 94.129 107.959 90.2893 104.772C89.8379 106.443 87.3555 113.741 88.0429 115.329C89.3416 118.329 95.4468 123.243 104.296 123.243Z" fill="#0C0C0C"/>
<path d="M111.901 79.6598C111.901 79.6598 117.487 72.989 116.46 60.8347C115.665 51.4243 108.632 59.2602 108.632 59.2602C108.632 59.2602 107.993 52.4899 103.369 54.2438C98.7454 55.9977 97.6509 63.5153 97.6509 63.5153" fill="#0C0C0C"/>
<path d="M78.8492 60.7046C78.8492 60.7046 55.7297 68.7151 71.6887 98.9234L73.8185 98.5807L78.1417 97.885" fill="#0C0C0C"/>
<path d="M101.069 116.562C91.5309 117.877 78.9855 114.538 75.9056 101.865L73.1263 90.4286C70.0464 77.7543 74.1931 65.8592 86.1033 62.9533C98.0132 60.0475 109.412 68.1502 112.492 80.8242L113.723 85.8871C114.115 87.6328 114.388 89.4033 114.54 91.1862C114.976 95.8954 115.621 103.059 113.605 108.471C111.702 113.579 107.163 115.722 101.069 116.562Z" fill="#E98862"/>
<path opacity="0.52" d="M102.737 103.943C104.686 103.586 106.524 102.775 108.102 101.576C108.169 101.527 108.213 101.454 108.226 101.373C108.238 101.292 108.218 101.209 108.17 101.142C108.121 101.076 108.048 101.031 107.967 101.019C107.886 101.006 107.803 101.026 107.737 101.075C104.316 103.57 100.817 104.127 97.6185 102.686C97.5536 102.655 97.4871 102.627 97.4194 102.603C97.3413 102.581 97.2577 102.591 97.1865 102.63C97.1153 102.669 97.0622 102.734 97.0387 102.812C97.0152 102.89 97.0231 102.974 97.0607 103.046C97.0983 103.118 97.1627 103.172 97.2399 103.197C97.2648 103.206 97.3064 103.225 97.3645 103.251C99.0468 104.013 100.918 104.254 102.737 103.943Z" fill="#0C0C0C"/>
<path opacity="0.52" d="M103.305 106.828C103.658 106.769 104.006 106.68 104.344 106.562C104.418 106.533 104.478 106.476 104.511 106.403C104.544 106.331 104.549 106.248 104.523 106.173C104.497 106.097 104.443 106.035 104.372 105.998C104.301 105.962 104.219 105.954 104.143 105.976C102.106 106.68 100.89 105.951 100.839 105.92C100.769 105.88 100.687 105.868 100.609 105.887C100.531 105.906 100.464 105.955 100.421 106.023C100.378 106.091 100.364 106.173 100.38 106.252C100.397 106.331 100.443 106.4 100.51 106.445C101.369 106.892 102.357 107.028 103.305 106.828Z" fill="#0C0C0C"/>
<path d="M110.462 87.1751C111.296 87.1751 111.971 86.4979 111.971 85.6625C111.971 84.8271 111.296 84.1499 110.462 84.1499C109.628 84.1499 108.952 84.8271 108.952 85.6625C108.952 86.4979 109.628 87.1751 110.462 87.1751Z" fill="#0C0C0C"/>
<path d="M96.1107 90.5672C96.9445 90.5672 97.6204 89.89 97.6204 89.0546C97.6204 88.2192 96.9445 87.542 96.1107 87.542C95.277 87.542 94.6011 88.2192 94.6011 89.0546C94.6011 89.89 95.277 90.5672 96.1107 90.5672Z" fill="#0C0C0C"/>
<path d="M77.5831 105.545C73.9652 106.428 70.0867 103.265 69.2053 99.638C68.3238 96.0116 70.7723 93.2958 74.3917 92.4126L76.8482 94.3877L80.696 104.787L77.5831 105.545Z" fill="#E98862"/>
<path d="M79.8523 98.8682C79.8523 98.8682 76.9481 80.5989 82.1363 78.2335C85.5916 76.659 95.5661 79.7839 103.352 76.3507C106.758 74.8495 110.343 74.9527 111.074 76.5595C111.364 77.1958 111.38 67.0905 104.131 61.0954C98.3566 56.3225 83.4464 58.0361 77.2704 61.4615C60.1675 70.9451 73.8264 93.3772 73.8264 93.3772L76.067 99.39L79.8523 98.8682Z" fill="#0C0C0C"/>
<g opacity="0.52">
<path opacity="0.52" d="M103.957 99.1929L103.981 99.1882C105.148 98.9069 107.074 98.3042 106.865 97.4306C106.69 96.706 102.83 89.3593 102.39 88.5241C102.351 88.4544 102.287 88.4028 102.21 88.3802C102.134 88.3576 102.052 88.3658 101.981 88.4031C101.91 88.4404 101.857 88.5038 101.833 88.5798C101.808 88.6558 101.814 88.7384 101.85 88.8101C103.562 92.063 106.152 97.0816 106.271 97.5741C106.206 97.8085 105.048 98.3024 103.839 98.5939C103.763 98.6128 103.696 98.6605 103.654 98.7271C103.612 98.7937 103.597 98.874 103.612 98.9514C103.628 99.0287 103.672 99.0971 103.737 99.1424C103.801 99.1877 103.881 99.2063 103.959 99.1944L103.957 99.1929Z" fill="#0C0C0C"/>
</g>
<path d="M105.735 83.078C106.564 82.4406 107.546 82.0334 108.582 81.8975C109.109 81.8239 109.644 81.8308 110.169 81.918C110.704 82.0044 111.226 82.1576 111.723 82.3742L111.761 82.3896C111.888 82.4408 112.03 82.4406 112.157 82.3892C112.284 82.3378 112.386 82.2391 112.441 82.1139C112.497 81.9886 112.502 81.8467 112.455 81.7178C112.409 81.5889 112.314 81.4832 112.191 81.4229C111.625 81.1232 111.023 80.8962 110.401 80.7474C109.767 80.5939 109.114 80.5365 108.464 80.5771C107.811 80.6109 107.166 80.7341 106.547 80.9433C105.908 81.1521 105.302 81.4514 104.747 81.8319C104.574 81.9515 104.454 82.1353 104.416 82.343C104.377 82.5507 104.423 82.7652 104.542 82.9394C104.661 83.1136 104.845 83.2331 105.052 83.2717C105.259 83.3104 105.473 83.2649 105.647 83.1454C105.664 83.134 105.68 83.1219 105.695 83.1087L105.735 83.078Z" fill="#0C0C0C"/>
<path d="M96.7822 83.6256C96.1206 83.5062 95.4454 83.4822 94.777 83.5542C94.1266 83.6173 93.4879 83.7695 92.8789 84.0068C92.2695 84.2368 91.6981 84.5571 91.1836 84.957C90.6757 85.3483 90.2194 85.8026 89.8256 86.3089C89.7383 86.4142 89.6951 86.5492 89.705 86.6858C89.715 86.8223 89.7773 86.9497 89.8789 87.0411C89.9806 87.1326 90.1137 87.1811 90.2502 87.1764C90.3867 87.1717 90.5162 87.1142 90.6113 87.0159L90.642 86.9841C91.0064 86.5825 91.4198 86.2285 91.8725 85.9303C92.3155 85.6349 92.8007 85.4088 93.3116 85.2595C94.3122 84.958 95.3744 84.926 96.3912 85.1668L96.4383 85.1793C96.6422 85.233 96.8591 85.2034 97.0412 85.097C97.2233 84.9905 97.3557 84.816 97.4093 84.6117C97.463 84.4074 97.4334 84.1902 97.3272 84.0077C97.221 83.8253 97.0468 83.6926 96.8429 83.6388C96.8232 83.6337 96.8012 83.6311 96.7822 83.6256Z" fill="#0C0C0C"/>
<path d="M99.331 68.7701C101.889 67.5882 102.555 63.5723 100.818 59.8002C99.0822 56.0281 95.6013 53.9283 93.0437 55.1101C90.486 56.2919 89.8201 60.3079 91.5563 64.08C93.2925 67.8521 96.7733 69.9519 99.331 68.7701Z" fill="#0C0C0C"/>
<path d="M136.018 133.386C131.132 130.486 113.068 128.904 109.571 128.904C109.465 128.904 110.905 144.147 89.3287 143.129C73.4757 142.379 72.8106 128.904 72.8106 128.904C72.8106 128.904 64.9608 129.413 59.7386 130.119C51.1908 131.28 43.257 136.311 38.4514 144.685C33.6348 153.078 35.0893 158.684 37.0407 176.267C38.8205 192.297 40.8852 225.563 41.744 240.144C42.7527 240.931 43.7784 241.703 44.8211 242.461C45.4614 242.927 46.1083 243.386 46.762 243.838C46.8095 243.871 46.8563 243.905 46.9041 243.937C47.5463 244.382 48.1948 244.82 48.8494 245.25C48.8812 245.271 48.9119 245.293 48.9433 245.314C59.747 252.42 72.1765 257.695 85.5811 258.55C107.131 259.931 121.676 252.52 137.431 246.841C137.398 245.848 137.379 245.317 137.379 245.317L137.261 245.314H137.522C138.213 234.867 140.599 181.953 141.323 173.473C142.852 155.498 149.331 141.287 136.018 133.386Z" fill="#367CFF"/>
<path d="M224.705 153.766C224.843 153.385 225.057 153.036 225.334 152.741C225.611 152.445 225.945 152.21 226.316 152.048C226.687 151.886 227.087 151.802 227.491 151.8C227.896 151.798 228.296 151.879 228.668 152.038C229.378 152.37 229.936 152.959 230.229 153.687C230.521 154.415 230.527 155.227 230.245 155.959L228.876 159.746L237.49 150.946C238.561 149.819 240.594 149.123 241.776 150.409C242.799 151.386 245.166 151.687 245.55 153.518C245.563 153.527 245.539 170.284 244.546 171.328C240.333 175.762 230.148 176.619 224.466 174.367L215.523 170.824L224.705 153.766Z" fill="#E98862"/>
<g opacity="0.1">
<path opacity="0.1" d="M224.705 153.766C224.843 153.385 225.057 153.036 225.334 152.741C225.611 152.445 225.945 152.21 226.316 152.048C226.687 151.886 227.087 151.802 227.491 151.8C227.896 151.798 228.296 151.879 228.668 152.038C229.378 152.37 229.936 152.959 230.229 153.687C230.521 154.415 230.527 155.227 230.245 155.959L228.876 159.746L237.49 150.946C238.561 149.819 240.594 149.123 241.776 150.409C242.799 151.386 245.166 151.687 245.55 153.518C245.563 153.527 245.539 170.284 244.546 171.328C240.333 175.762 230.148 176.619 224.466 174.367L215.523 170.824L224.705 153.766Z" fill="#0C0C0C"/>
</g>
<path d="M259.057 138.941C259.057 138.44 258.953 137.945 258.752 137.486C258.551 137.028 258.257 136.616 257.889 136.278C257.521 135.939 257.087 135.681 256.614 135.519C256.141 135.357 255.64 135.296 255.142 135.338L237.742 136.827C236.189 136.96 234.742 137.672 233.688 138.822C232.634 139.973 232.049 141.478 232.049 143.039V172.755C232.049 173.714 232.429 174.633 233.106 175.311C233.782 175.99 234.7 176.371 235.657 176.371C236.131 176.371 236.6 176.277 237.038 176.095C237.476 175.914 237.874 175.647 238.209 175.312C238.544 174.976 238.81 174.577 238.991 174.139C239.172 173.7 239.266 173.23 239.266 172.755V149.579C239.266 149.065 239.375 148.558 239.586 148.09C239.797 147.622 240.106 147.204 240.49 146.865C240.875 146.526 241.328 146.272 241.818 146.122C242.308 145.972 242.824 145.928 243.333 145.993L254.99 147.488C255.499 147.553 256.015 147.509 256.506 147.359C256.996 147.209 257.448 146.955 257.833 146.616C258.218 146.276 258.526 145.859 258.737 145.391C258.948 144.923 259.057 144.415 259.057 143.901V138.941Z" fill="#F2F2F2"/>
<path d="M235.657 176.736C234.603 176.735 233.593 176.315 232.848 175.569C232.103 174.822 231.684 173.81 231.683 172.755V143.039C231.674 141.383 232.29 139.784 233.409 138.564C234.527 137.344 236.065 136.593 237.713 136.462L255.112 134.973C255.66 134.926 256.212 134.994 256.733 135.172C257.254 135.35 257.733 135.635 258.138 136.008C258.543 136.381 258.867 136.834 259.089 137.339C259.31 137.844 259.424 138.389 259.424 138.941V143.901C259.424 144.467 259.304 145.026 259.071 145.541C258.839 146.057 258.499 146.517 258.076 146.89C257.652 147.264 257.154 147.543 256.614 147.709C256.074 147.874 255.505 147.923 254.945 147.851L243.287 146.355C242.831 146.296 242.367 146.336 241.926 146.471C241.486 146.607 241.08 146.834 240.734 147.139C240.388 147.444 240.111 147.819 239.921 148.239C239.732 148.66 239.633 149.116 239.633 149.577V172.755C239.632 173.811 239.212 174.823 238.467 175.57C237.721 176.316 236.711 176.736 235.657 176.736ZM255.458 135.69C255.363 135.69 255.268 135.694 255.172 135.702L237.773 137.19C236.308 137.308 234.941 137.976 233.948 139.06C232.954 140.145 232.406 141.566 232.414 143.038V172.755C232.423 173.611 232.768 174.428 233.376 175.03C233.983 175.632 234.803 175.97 235.657 175.97C236.511 175.97 237.331 175.632 237.938 175.03C238.545 174.428 238.891 173.611 238.9 172.755V149.579C238.9 149.013 239.02 148.454 239.253 147.939C239.485 147.423 239.824 146.964 240.248 146.59C240.672 146.216 241.17 145.937 241.71 145.772C242.25 145.606 242.819 145.558 243.378 145.629L255.036 147.125C255.493 147.184 255.957 147.144 256.397 147.009C256.837 146.873 257.244 146.646 257.59 146.341C257.935 146.036 258.212 145.661 258.402 145.241C258.592 144.82 258.69 144.364 258.691 143.903V138.941C258.691 138.081 258.35 137.256 257.744 136.646C257.138 136.037 256.316 135.693 255.457 135.691L255.458 135.69Z" fill="#0C0C0C"/>
<path d="M233.142 164.244C233.287 163.731 233.595 163.28 234.018 162.96C234.442 162.639 234.959 162.465 235.49 162.466C235.484 162.423 235.437 162.325 235.511 162.317L233.682 161.426C233.137 161.176 232.701 160.736 232.454 160.189C232.208 159.641 232.168 159.023 232.341 158.448C232.53 157.886 232.922 157.414 233.439 157.124C233.955 156.835 234.561 156.748 235.139 156.88C235.131 156.858 235.142 156.833 235.141 156.809L234.39 156.443C233.877 156.204 233.463 155.796 233.217 155.287C232.97 154.777 232.907 154.198 233.038 153.648C233.127 153.304 233.291 152.985 233.518 152.712C233.745 152.44 234.03 152.221 234.351 152.073C234.673 151.924 235.023 151.848 235.378 151.852C235.732 151.855 236.081 151.937 236.4 152.092L238.135 152.937C238.138 152.926 238.132 152.916 238.135 152.907C238.138 152.897 238.156 152.892 238.163 152.881C237.74 152.541 237.444 152.068 237.325 151.539C237.205 151.009 237.269 150.455 237.505 149.966C238.033 148.665 239.759 148.616 240.88 149.161L244.282 151.156C244.807 151.464 245.247 151.897 245.565 152.417C245.882 152.936 246.066 153.527 246.1 154.135C246.404 159.4 246.868 173.169 243.287 171.427L234.471 167.138C233.96 166.872 233.552 166.443 233.312 165.919C233.071 165.395 233.011 164.805 233.142 164.244Z" fill="#E98862"/>
<path d="M218.122 157.029L173.433 192.814L142.881 140.496L112.74 158.166L153.487 227.94L153.794 228.472C155.082 230.645 156.836 232.505 158.928 233.917C161.02 235.329 163.399 236.258 165.894 236.637C168.388 237.016 170.935 236.836 173.351 236.109C175.767 235.383 177.992 234.128 179.865 232.435L237.054 181.368L218.122 157.029Z" fill="#367CFF"/>
<path d="M177.169 169.822C177.169 169.322 177.065 168.826 176.864 168.368C176.663 167.91 176.369 167.498 176.001 167.159C175.633 166.821 175.199 166.562 174.726 166.401C174.253 166.239 173.751 166.178 173.254 166.22L155.854 167.708C154.301 167.841 152.854 168.553 151.8 169.704C150.746 170.854 150.161 172.359 150.161 173.921V203.636C150.161 204.595 150.541 205.515 151.218 206.193C151.894 206.871 152.812 207.252 153.769 207.252C154.243 207.252 154.712 207.158 155.15 206.977C155.588 206.795 155.986 206.529 156.321 206.193C156.656 205.857 156.922 205.458 157.103 205.02C157.284 204.581 157.378 204.111 157.377 203.636V180.461C157.378 179.947 157.487 179.439 157.698 178.971C157.909 178.503 158.217 178.086 158.602 177.747C158.987 177.407 159.439 177.154 159.93 177.004C160.42 176.853 160.936 176.809 161.445 176.874L173.102 178.37C173.611 178.435 174.127 178.391 174.617 178.241C175.107 178.09 175.56 177.837 175.945 177.498C176.329 177.158 176.637 176.741 176.849 176.273C177.06 175.805 177.169 175.297 177.169 174.784V169.822Z" fill="#F2F2F2"/>
<path d="M153.769 207.618C152.715 207.617 151.704 207.198 150.959 206.451C150.214 205.705 149.795 204.692 149.794 203.636V173.921C149.785 172.265 150.401 170.666 151.519 169.446C152.638 168.226 154.175 167.475 155.823 167.343L173.223 165.855C173.771 165.808 174.323 165.876 174.844 166.054C175.365 166.232 175.843 166.517 176.249 166.89C176.654 167.263 176.978 167.716 177.199 168.221C177.421 168.726 177.535 169.271 177.535 169.823V174.784C177.535 175.349 177.415 175.908 177.182 176.424C176.95 176.939 176.61 177.399 176.187 177.773C175.763 178.146 175.264 178.425 174.725 178.591C174.185 178.756 173.616 178.805 173.056 178.733L161.399 177.237C160.942 177.179 160.478 177.218 160.037 177.354C159.597 177.489 159.191 177.716 158.845 178.021C158.499 178.326 158.222 178.701 158.032 179.122C157.843 179.542 157.744 179.998 157.744 180.46V203.635C157.743 204.692 157.324 205.704 156.579 206.451C155.833 207.198 154.823 207.617 153.769 207.618ZM173.569 166.571C173.475 166.571 173.38 166.576 173.284 166.584L155.885 168.072C154.419 168.189 153.053 168.857 152.058 169.942C151.064 171.027 150.516 172.448 150.524 173.921V203.636C150.534 204.492 150.879 205.31 151.486 205.912C152.094 206.514 152.913 206.852 153.768 206.852C154.622 206.852 155.442 206.514 156.049 205.912C156.656 205.31 157.002 204.492 157.011 203.636V180.461C157.011 179.895 157.131 179.336 157.364 178.821C157.596 178.305 157.935 177.845 158.359 177.472C158.783 177.098 159.281 176.819 159.821 176.653C160.361 176.488 160.93 176.439 161.49 176.511L173.147 178.007C173.604 178.065 174.068 178.026 174.509 177.89C174.949 177.755 175.356 177.528 175.701 177.223C176.047 176.918 176.324 176.543 176.514 176.122C176.704 175.702 176.802 175.246 176.802 174.784V169.823C176.802 168.962 176.461 168.137 175.855 167.528C175.249 166.919 174.427 166.575 173.568 166.573L173.569 166.571Z" fill="#0C0C0C"/>
<path d="M145.639 178.902C145.769 178.544 145.971 178.215 146.231 177.938C146.492 177.66 146.806 177.438 147.155 177.286C147.504 177.133 147.88 177.054 148.261 177.052C148.642 177.051 149.019 177.127 149.369 177.276C150.037 177.588 150.562 178.143 150.838 178.828C151.113 179.513 151.119 180.278 150.853 180.967L150.098 183.051L156.178 179.579C157.581 178.599 159.631 178.2 160.965 178.95C162.363 179.737 163.403 181.564 163.764 183.287C163.776 183.296 164.774 191.081 163.036 194.999C160.7 200.263 150.022 204.898 144.675 202.779L136.258 199.445L145.639 178.902Z" fill="#E98862"/>
<path d="M140.44 191.368H140.43C140.388 191.367 140.347 191.357 140.309 191.34C140.27 191.322 140.236 191.298 140.207 191.267C140.179 191.237 140.157 191.201 140.142 191.161C140.127 191.122 140.121 191.08 140.122 191.038L140.758 171.567C140.763 171.484 140.8 171.405 140.861 171.347C140.923 171.29 141.004 171.259 141.088 171.26C141.13 171.261 141.171 171.271 141.209 171.288C141.247 171.305 141.282 171.33 141.31 171.361C141.339 171.391 141.361 171.427 141.376 171.466C141.39 171.506 141.397 171.547 141.395 171.589L140.759 191.06C140.757 191.143 140.722 191.221 140.662 191.279C140.603 191.336 140.523 191.368 140.44 191.368Z" fill="#0C0C0C"/>
<path d="M142.273 180.632L89.699 196.231L71.7556 148.772L36.748 162.919L62.9206 224.153L63.2802 224.995C64.9874 228.955 68.1363 232.115 72.0862 233.832C76.0361 235.549 80.4904 235.693 84.5429 234.236L151.875 210.032L142.273 180.632Z" fill="#367CFF"/>
<path d="M78.845 235.551C75.4748 235.553 72.1779 234.566 69.3605 232.712C66.5432 230.859 64.3285 228.221 62.9894 225.122L62.6298 224.28L39.325 175.707C39.2905 175.631 39.2871 175.545 39.3154 175.467C39.3437 175.389 39.4015 175.325 39.4763 175.288C39.5512 175.252 39.6372 175.247 39.7159 175.274C39.7946 175.301 39.8597 175.357 39.8973 175.431L63.2076 224.017L63.5731 224.873C65.2522 228.755 68.3424 231.853 72.2169 233.537C76.0913 235.221 80.46 235.365 84.4367 233.94L151.476 209.839L142.068 181.026L89.7891 196.537C89.7148 196.559 89.6352 196.553 89.565 196.52C89.4949 196.488 89.439 196.43 89.4079 196.359L74.8025 162.77C74.7709 162.693 74.7707 162.606 74.8019 162.529C74.8331 162.452 74.8933 162.39 74.9694 162.357C75.0456 162.324 75.1317 162.322 75.2093 162.351C75.2869 162.381 75.3499 162.44 75.3846 162.516L89.8764 195.848L142.182 180.327C142.261 180.304 142.346 180.312 142.419 180.351C142.493 180.389 142.548 180.455 142.574 180.534L152.174 209.934C152.2 210.012 152.194 210.098 152.158 210.173C152.121 210.247 152.057 210.304 151.98 210.332L84.6513 234.538C82.7886 235.208 80.8243 235.551 78.845 235.551Z" fill="#0C0C0C"/>
<path d="M80.6966 199.369C80.62 199.37 80.5456 199.344 80.4871 199.294C80.4287 199.244 80.3902 199.175 80.3786 199.099C80.3671 199.024 80.3833 198.946 80.4244 198.881C80.4654 198.817 80.5285 198.769 80.6019 198.747L89.605 195.927C89.6844 195.906 89.7693 195.915 89.8416 195.955C89.914 195.994 89.9681 196.061 89.9927 196.139C90.0173 196.218 90.0103 196.303 89.9733 196.377C89.9363 196.451 89.8721 196.507 89.7943 196.535L80.7908 199.354C80.7604 199.364 80.7286 199.369 80.6966 199.369Z" fill="#0C0C0C"/>
<path d="M89.6279 90.7251L72.4588 92.8771C72.2405 92.9044 72.0189 92.8885 71.8067 92.83C71.5945 92.7716 71.3959 92.6718 71.2221 92.5365C71.0484 92.4011 70.903 92.2328 70.7942 92.0411C70.6854 91.8494 70.6154 91.6382 70.5881 91.4194C70.533 90.9775 70.6554 90.5318 70.9282 90.1803C71.201 89.8288 71.602 89.6003 72.043 89.545L89.212 87.3931L89.6279 90.7251Z" fill="#F2F2F2"/>
<path d="M72.249 93.2559C71.7297 93.2556 71.23 93.057 70.8517 92.7006C70.4734 92.3441 70.245 91.8566 70.2129 91.3372C70.1808 90.8179 70.3475 90.3059 70.679 89.9054C71.0105 89.5049 71.4819 89.246 71.9972 89.1816L89.1662 87.0297C89.2138 87.0232 89.2622 87.0263 89.3085 87.0389C89.3548 87.0515 89.3982 87.0732 89.4359 87.1029C89.4739 87.1324 89.5056 87.169 89.5294 87.2108C89.5531 87.2526 89.5684 87.2987 89.5744 87.3464L89.9903 90.6784C90.0023 90.7748 89.9756 90.8719 89.9161 90.9486C89.8567 91.0252 89.7692 91.075 89.6731 91.0871L72.5037 93.239C72.4193 93.2499 72.3342 93.2555 72.249 93.2559ZM88.8943 87.8001L72.0879 89.9069C71.7431 89.9502 71.4295 90.1288 71.2162 90.4037C71.0029 90.6785 70.9073 91.027 70.9504 91.3725C70.9935 91.718 71.1719 92.0321 71.4462 92.2459C71.7205 92.4596 72.0683 92.5554 72.4131 92.5122L89.2196 90.4057L88.8943 87.8001Z" fill="#0C0C0C"/>
<path d="M118.754 88.7769L117.83 81.3728C117.672 80.1101 117.02 78.9618 116.018 78.1806C115.015 77.3994 113.744 77.0492 112.483 77.207L88.8187 80.1729C88.6341 80.1968 88.4511 80.2316 88.2705 80.2769L84.779 80.7144C84.1549 80.7925 83.5523 80.993 83.0055 81.3045C82.4588 81.6159 81.9786 82.0323 81.5926 82.5298C81.2065 83.0273 80.922 83.5961 80.7554 84.2038C80.5889 84.8115 80.5434 85.4461 80.6217 86.0714L81.5459 93.4755C81.6238 94.1009 81.8239 94.7047 82.1348 95.2525C82.4457 95.8003 82.8612 96.2814 83.3578 96.6682C83.8543 97.0551 84.422 97.3401 85.0285 97.507C85.635 97.6739 86.2683 97.7194 86.8924 97.641L110.557 94.6751C110.741 94.651 110.924 94.6162 111.105 94.5711L114.596 94.1317C115.22 94.0537 115.823 93.8534 116.369 93.5421C116.916 93.2308 117.396 92.8146 117.782 92.3173C118.168 91.8201 118.453 91.2515 118.62 90.644C118.786 90.0366 118.832 89.4021 118.754 88.7769Z" fill="#F2F2F2"/>
<path d="M86.2938 98.0451C85.0386 98.0426 83.8273 97.582 82.8865 96.7494C81.9458 95.9168 81.34 94.7692 81.1826 93.5215L80.2581 86.1174C80.0886 84.7582 80.4647 83.3873 81.3039 82.3061C82.1431 81.2249 83.3765 80.5219 84.733 80.3518L88.2047 79.9168C88.392 79.8703 88.5819 79.8348 88.7733 79.8102L112.438 76.8443C113.11 76.7599 113.792 76.809 114.444 76.9886C115.097 77.1683 115.708 77.4751 116.243 77.8915C116.777 78.3079 117.224 78.8257 117.559 79.4153C117.893 80.005 118.109 80.6549 118.192 81.328L119.117 88.7317C119.201 89.4048 119.152 90.0879 118.973 90.7419C118.793 91.396 118.487 92.0083 118.072 92.5438C117.656 93.0792 117.139 93.5274 116.551 93.8627C115.962 94.1979 115.314 94.4137 114.642 94.4977L111.17 94.9327C110.983 94.9786 110.793 95.0142 110.601 95.0392L86.9366 98.0051C86.7234 98.0318 86.5087 98.0451 86.2938 98.0451ZM113.086 77.5356C112.899 77.5364 112.713 77.5486 112.528 77.5722L88.8629 80.5382C88.6924 80.5605 88.5234 80.5926 88.3567 80.6345C88.343 80.6379 88.3291 80.6405 88.3151 80.6421L84.8236 81.0797C83.66 81.2269 82.6022 81.8306 81.8823 82.7582C81.1624 83.6859 80.8391 84.8618 80.9835 86.028L81.9077 93.4322C82.0547 94.598 82.6572 95.6578 83.583 96.3791C84.5089 97.1004 85.6824 97.4243 86.8463 97.2798L110.511 94.3139C110.682 94.2916 110.851 94.2594 111.018 94.2176C111.031 94.2142 111.045 94.2117 111.059 94.2099L114.55 93.7723C115.714 93.6252 116.772 93.0216 117.492 92.0939C118.212 91.1662 118.535 89.9902 118.391 88.824L117.466 81.4202C117.332 80.3502 116.813 79.3658 116.007 78.6514C115.201 77.937 114.162 77.5415 113.086 77.5389V77.5356Z" fill="#0C0C0C"/>
<path d="M116.739 76.7168L93.0741 79.677C90.4494 80.0053 88.5884 82.4032 88.9174 85.0328L89.8435 92.4365C90.1724 95.0661 92.5667 96.9316 95.1913 96.6033L118.856 93.6431C121.481 93.3148 123.342 90.917 123.013 88.2874L122.087 80.8837C121.758 78.2541 119.364 76.3885 116.739 76.7168Z" fill="#F2F2F2"/>
<path d="M94.5828 97.0057C93.3283 97.0029 92.1179 96.5419 91.1783 95.709C90.2387 94.8762 89.6344 93.7287 89.4786 92.4814L88.5544 85.0773C88.4699 84.4042 88.5187 83.721 88.6979 83.0668C88.8772 82.4126 89.1833 81.8002 89.5988 81.2647C90.0144 80.7291 90.5312 80.2808 91.1198 79.9454C91.7083 79.6101 92.3571 79.3943 93.0289 79.3103L116.694 76.3443C118.05 76.1762 119.417 76.5538 120.496 77.3943C121.575 78.2348 122.277 79.4696 122.448 80.828L123.372 88.2321C123.54 89.591 123.164 90.9611 122.325 92.042C121.486 93.123 120.254 93.8263 118.898 93.9977L95.2329 96.9636C95.0173 96.9911 94.8002 97.0051 94.5828 97.0057ZM117.337 77.0375C117.152 77.0375 116.968 77.0491 116.784 77.0723L93.1195 80.0382C92.5431 80.1102 91.9865 80.2954 91.4815 80.5831C90.9765 80.8707 90.533 81.2553 90.1764 81.7148C89.8198 82.1742 89.557 82.6996 89.4031 83.2608C89.2492 83.8221 89.2072 84.4082 89.2794 84.9857L90.2036 92.3899C90.2756 92.9675 90.4604 93.5253 90.7475 94.0313C91.0347 94.5374 91.4186 94.9818 91.8772 95.3391C92.3359 95.6964 92.8603 95.9597 93.4205 96.1138C93.9808 96.268 94.5658 96.31 95.1423 96.2375L118.807 93.2716C119.971 93.1243 121.028 92.5206 121.748 91.593C122.468 90.6653 122.791 89.4895 122.647 88.3233L121.723 80.9214C121.588 79.8503 121.068 78.8652 120.261 78.1503C119.454 77.4354 118.414 77.0398 117.337 77.0375Z" fill="#0C0C0C"/>
<g clip-path="url(#clip0_209_2341)">
<path opacity="0.2" d="M223.324 53.1312L223.213 53.103L188.078 127.285L311.936 136.928L312.075 136.938L316.613 76.7192L316.622 76.6008L223.324 53.1312ZM258.904 100.837L188.566 126.909L223.317 53.5369L258.904 100.837ZM259.11 101.06L311.43 136.605L188.941 127.07L259.11 101.06ZM259.175 100.732L223.641 53.5006L316.032 76.7417L259.175 100.732ZM311.825 136.535L259.422 100.933L316.318 76.9266L311.825 136.535Z" fill="#367CFF"/>
<path d="M332.444 77.973C332.332 80.8288 331.536 83.6149 330.124 86.093C328.712 88.5711 326.726 90.6677 324.336 92.2036C321.946 93.7394 319.223 94.6689 316.4 94.9125C313.576 95.1562 310.736 94.7068 308.122 93.6027C306.896 93.0845 305.733 92.4258 304.656 91.6394C302.599 90.1412 300.886 88.2126 299.636 85.9853V85.9833C298.302 83.6011 297.535 80.9396 297.394 78.2079C297.253 75.4761 297.742 72.7486 298.822 70.2395C299.902 67.7304 301.545 65.5082 303.621 63.7474C305.697 61.9866 308.149 60.7352 310.785 60.0915C313.422 59.4478 316.17 59.4294 318.814 60.0377C321.459 60.646 323.928 61.8644 326.026 63.5972C328.125 65.33 329.797 67.53 330.911 70.0244C332.024 72.5187 332.549 75.2395 332.444 77.9729L332.444 77.973Z" fill="white"/>
<path opacity="0.09" d="M332.444 77.973C332.332 80.8288 331.536 83.6149 330.124 86.093C328.712 88.5711 326.726 90.6677 324.336 92.2036C321.946 93.7394 319.223 94.6689 316.4 94.9125C313.576 95.1562 310.736 94.7068 308.122 93.6027C306.896 93.0845 305.733 92.4258 304.656 91.6394C302.599 90.1412 300.886 88.2126 299.636 85.9853V85.9833C298.302 83.6011 297.535 80.9396 297.394 78.2079C297.253 75.4761 297.742 72.7486 298.822 70.2395C299.902 67.7304 301.545 65.5082 303.621 63.7474C305.697 61.9866 308.149 60.7352 310.785 60.0915C313.422 59.4478 316.17 59.4294 318.814 60.0377C321.459 60.646 323.928 61.8644 326.026 63.5972C328.125 65.33 329.797 67.53 330.911 70.0244C332.024 72.5187 332.549 75.2395 332.444 77.9729L332.444 77.973Z" fill="#367CFF"/>
<path d="M319.062 63.8135C319.062 63.8135 323.256 63.8653 321.81 69.6943L321.416 69.7138L320.616 69.753" fill="#0C0C0C"/>
<path d="M314.378 75.81C314.398 75.8082 314.475 79.444 318.666 79.2913C321.567 79.1859 322.717 76.1311 322.784 76.1337C322.475 76.0547 321.953 75.9366 321.817 75.8569C321.371 75.5924 320.818 75.3135 320.705 74.4156C320.64 73.8981 320.885 71.2733 320.861 70.7515L316.382 71.5771C316.402 72.6783 316.738 75.2422 315.199 75.6335C314.943 75.6982 314.667 75.7561 314.378 75.81Z" fill="#E98862"/>
<path opacity="0.52" d="M316.202 74.6303C316.28 74.407 316.334 74.1756 316.363 73.9405C316.432 73.4041 316.443 72.8616 316.396 72.3228C317.303 72.2352 318.168 71.8928 318.891 71.3345C318.962 71.6442 319.364 73.0044 319.227 73.2913C318.968 73.8339 317.819 74.6937 316.202 74.6303Z" fill="#0C0C0C"/>
<path d="M317.219 73.988C318.975 73.8613 321.093 72.7834 321.166 70.384L321.233 68.2195C321.306 65.8206 320.116 63.8369 317.877 63.767C315.637 63.6966 313.903 65.5896 313.83 67.9885L313.8 68.9468C313.796 69.2761 313.814 69.6054 313.854 69.9323C313.953 70.7967 314.108 72.111 314.672 73.0085C315.205 73.8557 316.097 74.0687 317.219 73.988Z" fill="#E98862"/>
<path d="M321.005 71.1113C321.685 71.1324 322.26 70.4152 322.281 69.7289C322.302 69.0426 321.762 68.6467 321.081 68.6255L320.716 69.0744L320.419 71.093L321.005 71.1113Z" fill="#E98862"/>
<path d="M313.945 70.6568C314.068 70.8038 314.226 70.9175 314.403 70.9875C314.581 71.0575 314.773 71.0815 314.962 71.0575C315.367 71.0061 315.636 71.1736 315.974 71.14C316.257 71.1118 316.306 70.9796 316.79 70.9508C318.659 70.8391 320.062 70.7203 320.153 68.3553L321.342 67.29C321.342 67.29 321.873 73.8437 318.358 74.7148C316.199 75.2498 314.173 75.0543 313.912 73.0086C313.701 71.3464 313.945 70.6568 313.945 70.6568Z" fill="#0C0C0C"/>
<path d="M314.831 69.2881C314.984 69.2881 315.108 69.1635 315.108 69.0098C315.108 68.8561 314.984 68.7314 314.831 68.7314C314.678 68.7314 314.555 68.8561 314.555 69.0098C314.555 69.1635 314.678 69.2881 314.831 69.2881Z" fill="#0C0C0C"/>
<path d="M317.297 69.2363C317.449 69.2363 317.573 69.1117 317.573 68.958C317.573 68.8043 317.449 68.6797 317.297 68.6797C317.144 68.6797 317.02 68.8043 317.02 68.958C317.02 69.1117 317.144 69.2363 317.297 69.2363Z" fill="#0C0C0C"/>
<path d="M320.347 69.9953C320.347 69.9953 320.179 66.596 319.162 66.3675C318.484 66.2153 316.818 67.1577 315.296 66.8358C314.63 66.6951 313.993 66.8499 313.923 67.1672C313.895 67.2928 313.368 66.1791 314.439 64.8239C315.292 63.745 318.065 63.4415 319.299 63.823C322.715 64.8797 321.219 68.7775 321.219 68.7775L321.044 69.9451L320.347 69.9953Z" fill="#0C0C0C"/>
<path d="M321.9 67.2542C322.905 67.2542 323.72 66.4321 323.72 65.4181C323.72 64.4041 322.905 63.582 321.9 63.582C320.894 63.582 320.079 64.4041 320.079 65.4181C320.079 66.4321 320.894 67.2542 321.9 67.2542Z" fill="#0C0C0C"/>
<g opacity="0.52">
<path opacity="0.52" d="M316.008 71.0305H316.003C315.783 71.0242 315.416 70.989 315.42 70.8236C315.424 70.6864 315.838 69.217 315.886 69.0497C315.89 69.0353 315.899 69.0232 315.912 69.0159C315.925 69.0086 315.941 69.0069 315.955 69.0109C315.969 69.015 315.981 69.0247 315.989 69.0377C315.996 69.0508 315.998 69.0662 315.993 69.0806C315.809 69.7314 315.535 70.7335 315.532 70.8262C315.552 70.8659 315.779 70.9107 316.006 70.9173C316.021 70.9172 316.035 70.9229 316.046 70.9334C316.057 70.9438 316.063 70.9581 316.063 70.973C316.063 70.9879 316.057 71.0023 316.047 71.013C316.037 71.0237 316.022 71.0298 316.008 71.03V71.0305Z" fill="#0C0C0C"/>
</g>
<path d="M315.342 68.0639C315.114 67.9962 314.874 67.9913 314.644 68.0498C314.531 68.0777 314.423 68.1226 314.323 68.183C314.224 68.2421 314.133 68.3136 314.052 68.3957C314.038 68.4084 314.03 68.4261 314.029 68.4451C314.028 68.464 314.034 68.4826 314.047 68.4967C314.06 68.5108 314.077 68.5194 314.096 68.5204C314.115 68.5215 314.133 68.5149 314.147 68.5023L314.152 68.4986C314.227 68.4301 314.311 68.3714 314.401 68.3239C314.489 68.2766 314.585 68.2431 314.683 68.2245C314.878 68.1862 315.079 68.2004 315.266 68.2655L315.274 68.2682C315.287 68.2733 315.301 68.2758 315.315 68.2754C315.329 68.275 315.343 68.2717 315.356 68.2659C315.369 68.26 315.381 68.2516 315.39 68.2411C315.4 68.2307 315.408 68.2184 315.412 68.205C315.417 68.1916 315.42 68.1773 315.419 68.163C315.418 68.1488 315.415 68.1348 315.409 68.1219C315.403 68.109 315.394 68.0974 315.384 68.0878C315.373 68.0783 315.361 68.071 315.347 68.0663L315.342 68.0639Z" fill="#0C0C0C"/>
<path d="M316.965 68.2661C317.146 68.1828 317.344 68.149 317.542 68.1682C317.642 68.177 317.74 68.2011 317.833 68.2396C317.927 68.278 318.016 68.3282 318.097 68.389L318.102 68.3921C318.117 68.402 318.135 68.4058 318.153 68.4025C318.171 68.3992 318.187 68.3892 318.198 68.3745C318.209 68.3597 318.213 68.3414 318.211 68.3232C318.209 68.3051 318.2 68.2885 318.186 68.2769C318.097 68.2031 318 68.1409 317.896 68.0916C317.791 68.0414 317.679 68.0072 317.564 67.9904C317.329 67.9549 317.09 67.9834 316.871 68.0731C316.845 68.0843 316.824 68.1052 316.814 68.1314C316.803 68.1576 316.804 68.1869 316.814 68.213C316.825 68.2391 316.846 68.2599 316.872 68.2709C316.897 68.2819 316.927 68.2822 316.953 68.2717L316.958 68.2694L316.965 68.2661Z" fill="#0C0C0C"/>
<path d="M328.146 84.8888C327.99 86.0774 327.837 87.7101 327.701 89.3982C327.169 89.9688 326.601 90.5033 325.999 90.9983C325.617 91.3116 325.222 91.6094 324.815 91.8917C322.615 93.4066 320.102 94.3971 317.466 94.7885C314.83 95.1798 312.14 94.9617 309.6 94.1507C309.565 92.5827 309.518 90.4676 309.471 88.5299C309.418 86.2947 309.363 84.2933 309.334 83.6357C309.214 81.0259 308.528 79.2846 309.046 77.8607C309.202 77.4393 309.451 77.0595 309.775 76.751C310.983 75.5584 313.984 75.5856 315.188 75.6327C315.209 75.6336 314.837 78.4353 318.798 78.4015C321.709 78.3774 321.927 75.8964 321.927 75.8964C321.927 75.8964 323.361 76.0469 324.314 76.2137C325.872 76.489 326.885 77.0653 327.674 77.9261C328.409 78.7287 328.843 79.5807 328.146 84.8888Z" fill="#367CFF"/>
<path d="M304.862 75.9088L304.982 72.9193C304.984 72.8536 304.974 72.788 304.95 72.7267C304.926 72.6655 304.89 72.6099 304.843 72.5635C304.797 72.5171 304.742 72.481 304.681 72.4574C304.62 72.4339 304.555 72.4234 304.49 72.4266C304.37 72.4364 304.257 72.4908 304.175 72.5792C304.092 72.6676 304.045 72.7838 304.043 72.9052L304.017 73.5464L303.18 71.4934C303.091 71.2635 302.836 71.0388 302.587 71.1566C302.488 71.1956 302.405 71.2672 302.352 71.3598C302.299 71.4523 302.278 71.5604 302.293 71.6662C302.291 71.6665 302.289 71.6671 302.286 71.6678C302.285 71.6687 302.283 71.6697 302.282 71.6709L302.145 71.3164C302.119 71.2507 302.08 71.1916 302.029 71.1434C301.978 71.0951 301.917 71.059 301.85 71.0376C301.783 71.0161 301.713 71.01 301.644 71.0195C301.574 71.029 301.508 71.054 301.449 71.0927C301.359 71.1554 301.292 71.2477 301.26 71.3541C301.229 71.4606 301.235 71.5747 301.277 71.6774L301.335 71.8281C301.331 71.8319 301.329 71.8362 301.326 71.8409C301.264 71.7484 301.17 71.6814 301.063 71.6519C300.955 71.6224 300.841 71.6324 300.74 71.68C300.631 71.7356 300.547 71.8304 300.505 71.9457C300.462 72.061 300.465 72.1881 300.511 72.3019L300.656 72.6766C300.65 72.6728 300.644 72.6704 300.637 72.6696C300.63 72.6688 300.623 72.6697 300.617 72.6721C300.609 72.6755 300.603 72.681 300.598 72.6879C300.52 72.621 300.421 72.5821 300.318 72.5772C300.215 72.5722 300.114 72.6015 300.029 72.6604C299.941 72.7242 299.878 72.816 299.848 72.9209C299.818 73.0259 299.825 73.1378 299.866 73.2386L301.091 76.4004C301.263 76.8427 301.561 77.2234 301.948 77.4935C302.336 77.7636 302.794 77.911 303.265 77.9166C303.671 77.9215 304.063 77.7665 304.358 77.4846C304.652 77.2027 304.826 76.8161 304.842 76.4069L304.862 75.9088Z" fill="#E98862"/>
<g opacity="0.2">
<path opacity="0.2" d="M303.113 73.7029C303.103 73.707 303.091 73.7068 303.08 73.7022C303.07 73.6977 303.062 73.6892 303.057 73.6786L302.262 71.725C302.26 71.7196 302.259 71.7138 302.258 71.7079C302.258 71.7019 302.259 71.696 302.261 71.6905C302.263 71.685 302.267 71.6799 302.271 71.6757C302.275 71.6714 302.28 71.6681 302.285 71.6659C302.291 71.6636 302.297 71.6625 302.303 71.6626C302.308 71.6627 302.314 71.664 302.32 71.6665C302.325 71.6689 302.33 71.6724 302.334 71.6768C302.338 71.6812 302.341 71.6863 302.343 71.6919L303.138 73.6456C303.14 73.6509 303.141 73.6566 303.141 73.6623C303.141 73.668 303.14 73.6737 303.138 73.679C303.135 73.6843 303.132 73.6891 303.128 73.6932C303.124 73.6972 303.119 73.7004 303.114 73.7026L303.113 73.7029Z" fill="#0C0C0C"/>
</g>
<g opacity="0.2">
<path opacity="0.2" d="M302.269 74.0795C302.258 74.0837 302.246 74.0834 302.236 74.0789C302.225 74.0743 302.217 74.0658 302.213 74.0551L301.326 71.8749C301.322 71.8642 301.322 71.8523 301.326 71.8418C301.331 71.8313 301.339 71.8229 301.35 71.8186C301.36 71.8147 301.372 71.8151 301.382 71.8195C301.392 71.8239 301.401 71.832 301.405 71.8423L302.293 74.0226C302.297 74.0334 302.297 74.0454 302.292 74.0561C302.288 74.0668 302.279 74.0752 302.269 74.0796V74.0795Z" fill="#0C0C0C"/>
</g>
<g opacity="0.2">
<path opacity="0.2" d="M301.356 74.4926C301.346 74.4967 301.334 74.4965 301.323 74.492C301.313 74.4874 301.304 74.4789 301.3 74.4682L300.593 72.7291C300.588 72.7184 300.588 72.7064 300.593 72.6957C300.597 72.6851 300.606 72.6766 300.616 72.6722C300.627 72.6678 300.639 72.6679 300.649 72.6723C300.66 72.6768 300.669 72.6853 300.673 72.6961L301.381 74.4347C301.385 74.4454 301.385 74.4575 301.381 74.4682C301.376 74.4789 301.368 74.4873 301.357 74.4917L301.356 74.4926Z" fill="#0C0C0C"/>
</g>
<path d="M314.675 80.5955L307.46 91.7814C307.198 92.188 306.846 92.5285 306.433 92.7767C305.818 92.4348 305.225 92.0549 304.656 91.6394C303.445 90.7577 302.35 89.7234 301.398 88.5616L299.883 76.7129L305.947 75.7329L306.639 81.4362L309.409 77.1406L314.675 80.5955Z" fill="#367CFF"/>
<path d="M315.52 71.6408C316.182 71.6851 316.84 71.5057 317.389 71.131C317.408 71.1181 317.43 71.111 317.453 71.1104C317.476 71.1098 317.499 71.1158 317.519 71.1277C317.538 71.1397 317.554 71.157 317.564 71.1777C317.575 71.1984 317.579 71.2216 317.577 71.2446C317.532 71.6388 317.339 72.3639 316.519 72.4562C315.99 72.5158 315.606 72.1057 315.413 71.833C315.399 71.8141 315.392 71.7918 315.39 71.7686C315.389 71.7455 315.394 71.7224 315.406 71.7022C315.417 71.6821 315.434 71.6656 315.454 71.6547C315.475 71.6438 315.497 71.639 315.52 71.6408Z" fill="white"/>
<path d="M330.102 86.1458C329.036 87.9995 327.646 89.6434 325.999 90.9981C325.617 91.3114 325.222 91.6092 324.815 91.8915L321.998 81.0808L328.343 79.3975L330.102 86.1458Z" fill="#367CFF"/>
<path d="M324.877 91.8495C324.857 91.8627 324.835 91.8776 324.815 91.8917C324.795 91.9058 324.775 91.9199 324.755 91.9329L322.607 83.6972L322.743 83.6616L324.877 91.8495Z" fill="#0C0C0C"/>
<path d="M309.489 89.0389C309.472 89.0382 309.455 89.0309 309.443 89.0185C309.43 89.006 309.423 88.9894 309.422 88.9718L309.283 85.9027C309.282 85.8841 309.289 85.8658 309.302 85.852C309.314 85.8382 309.332 85.83 309.35 85.8292C309.369 85.8283 309.387 85.8349 309.4 85.8475C309.414 85.8602 309.422 85.8777 309.423 85.8964L309.562 88.9654C309.563 88.984 309.556 89.0022 309.544 89.016C309.531 89.0298 309.514 89.038 309.495 89.0389H309.489Z" fill="#0C0C0C"/>
<path d="M257.297 117.439C267.175 117.439 275.182 109.363 275.182 99.4024C275.182 89.4413 267.175 81.3662 257.297 81.3662C247.42 81.3662 239.413 89.4413 239.413 99.4024C239.413 109.363 247.42 117.439 257.297 117.439Z" fill="white"/>
<path opacity="0.09" d="M275.182 99.4017C275.182 102.969 274.133 106.456 272.168 109.422C270.203 112.388 267.41 114.7 264.142 116.065C260.874 117.43 257.278 117.787 253.809 117.091C250.34 116.395 247.153 114.677 244.652 112.155C242.151 109.633 240.448 106.419 239.758 102.92C239.068 99.4218 239.422 95.7953 240.775 92.4997C242.129 89.2041 244.421 86.3873 247.362 84.4054C250.303 82.4236 253.761 81.3658 257.298 81.3658C259.649 81.3571 261.979 81.8176 264.152 82.7209C266.326 83.6242 268.301 84.9524 269.963 86.6289C271.626 88.3054 272.943 90.2972 273.839 92.4894C274.734 94.6815 275.191 97.0308 275.182 99.4017Z" fill="#367CFF"/>
<path d="M249.381 88.764C249.381 88.764 249.201 91.4868 248.594 92.4746C246.845 95.3184 246.339 98.5176 248.09 100.189C249.841 101.861 261.01 101.884 261.856 98.0397C262.568 94.8031 261.04 94.4551 260.668 91.7852C260.5 90.5772 260.037 88.0439 260.037 88.0439" fill="#0A0A0A"/>
<path d="M258.965 97.4754C258.946 97.4729 258.732 101.053 254.608 100.742C251.753 100.526 250.735 97.4709 250.669 97.4709C250.977 97.405 251.496 97.309 251.633 97.2355C252.082 96.9918 252.638 96.7384 252.783 95.8578C252.867 95.351 252.725 92.7542 252.769 92.2407L257.152 93.2272C257.091 94.3112 256.662 96.8255 258.164 97.2704C258.413 97.3435 258.683 97.4112 258.965 97.4754Z" fill="#E98862"/>
<path opacity="0.5" d="M257.212 96.2426C257.144 96.0194 257.1 95.7894 257.081 95.5565C257.032 95.0252 257.042 94.4902 257.109 93.9611C256.219 93.8399 255.379 93.4692 254.687 92.8911C254.606 93.1942 254.158 94.5185 254.282 94.8067C254.517 95.3508 255.617 96.2426 257.212 96.2426Z" fill="#0C0C0C"/>
<path d="M256.646 95.1272C254.918 95.2961 252.682 94.5987 252.219 92.2782L251.801 90.1844C251.338 87.8639 252.171 85.7374 254.338 85.2977C256.504 84.8579 258.499 86.4099 258.962 88.7309L259.147 89.6578C259.325 90.5483 259.728 94.8263 256.646 95.1272Z" fill="#E98862"/>
<path opacity="0.1" d="M255.548 92.0865C255.833 92.0523 256.044 91.8539 256.019 91.6435C255.994 91.4331 255.743 91.2904 255.458 91.3247C255.173 91.3589 254.963 91.5573 254.987 91.7677C255.012 91.978 255.263 92.1208 255.548 92.0865Z" fill="#0C0C0C"/>
<path opacity="0.1" d="M258.552 91.2456C258.577 91.4555 258.828 91.5976 259.113 91.5643C259.163 91.5584 259.211 91.5474 259.258 91.5314C259.271 91.2809 259.272 91.0399 259.265 90.8169C259.186 90.797 259.104 90.7923 259.023 90.8028C258.738 90.8365 258.527 91.0347 258.552 91.2456Z" fill="#0C0C0C"/>
<path opacity="0.5" d="M257.296 91.8947H257.3C257.388 91.876 257.475 91.8525 257.56 91.8243C257.688 91.782 257.854 91.711 257.832 91.5949C257.805 91.4626 257.16 90.109 257.086 89.955C257.08 89.9424 257.068 89.9329 257.054 89.9285C257.041 89.9241 257.026 89.9251 257.013 89.9313C257 89.9376 256.99 89.9486 256.985 89.962C256.98 89.9755 256.98 89.9904 256.986 90.0037C257.261 90.5809 257.704 91.5281 257.722 91.6171C257.708 91.6586 257.497 91.7397 257.278 91.784C257.264 91.7872 257.252 91.7956 257.244 91.8075C257.236 91.8193 257.233 91.8338 257.235 91.8479C257.238 91.862 257.245 91.8748 257.257 91.8835C257.268 91.8922 257.282 91.8963 257.296 91.895V91.8947Z" fill="#0C0C0C"/>
<path d="M250.073 90.9359L252.015 90.5533C253.482 89.9339 253.898 87.3559 253.898 87.3559C253.898 87.3559 255.709 89.0949 260.036 88.0433C260.036 88.0433 259.096 81.9509 252.707 83.8002C250.646 84.3964 249.187 86.5144 249.404 89.3196C249.556 91.2859 250.073 90.9359 250.073 90.9359Z" fill="#0A0A0A"/>
<path d="M252.495 92.9578C251.836 93.0914 251.161 92.4894 251.029 91.8253C250.897 91.1613 251.357 90.6868 252.016 90.5532L252.444 90.9292L253.061 92.8429L252.495 92.9578Z" fill="#E98862"/>
<path d="M257.554 88.8754C257.719 88.7577 257.912 88.6863 258.113 88.6684C258.214 88.6587 258.316 88.6643 258.416 88.6852C258.516 88.7057 258.613 88.7388 258.705 88.7837L258.708 88.785C258.718 88.7891 258.73 88.7892 258.74 88.7852C258.75 88.7811 258.758 88.7733 258.763 88.7634C258.768 88.7534 258.768 88.742 258.765 88.7316C258.762 88.7211 258.754 88.7124 258.745 88.7071C258.647 88.6553 258.543 88.616 258.436 88.5903C258.328 88.5638 258.216 88.5538 258.105 88.5607C257.881 88.5733 257.663 88.6462 257.476 88.7719C257.469 88.7765 257.463 88.7826 257.458 88.7897C257.453 88.7969 257.449 88.8049 257.448 88.8134C257.446 88.8219 257.446 88.8306 257.448 88.8391C257.449 88.8476 257.453 88.8557 257.457 88.8628C257.462 88.87 257.469 88.8761 257.476 88.8808C257.483 88.8855 257.491 88.8886 257.5 88.8901C257.508 88.8916 257.517 88.8913 257.525 88.8893C257.534 88.8874 257.541 88.8837 257.548 88.8786L257.55 88.8776L257.554 88.8754Z" fill="#0C0C0C"/>
<path d="M255.782 89.1225C255.561 89.0782 255.332 89.0945 255.119 89.1696C255.014 89.2061 254.915 89.2583 254.826 89.3245C254.736 89.3897 254.655 89.4659 254.585 89.5514C254.578 89.5599 254.574 89.5709 254.575 89.582C254.576 89.5932 254.58 89.6036 254.589 89.6111C254.597 89.6186 254.608 89.6226 254.619 89.6223C254.63 89.622 254.64 89.6174 254.648 89.6094L254.65 89.607C254.718 89.5299 254.796 89.4618 254.88 89.4042C254.964 89.3465 255.056 89.3019 255.154 89.272C255.346 89.2111 255.552 89.2027 255.749 89.2476L255.754 89.2487C255.762 89.251 255.771 89.2515 255.779 89.2503C255.788 89.2491 255.796 89.2462 255.803 89.2418C255.811 89.2374 255.817 89.2316 255.822 89.2247C255.827 89.2177 255.831 89.2099 255.833 89.2015C255.835 89.1931 255.835 89.1844 255.834 89.176C255.832 89.1675 255.829 89.1593 255.825 89.152C255.82 89.1447 255.814 89.1384 255.807 89.1335C255.8 89.1285 255.793 89.125 255.784 89.1232L255.782 89.1225Z" fill="#0C0C0C"/>
<path d="M252.016 90.5214C253.322 90.0313 253.755 89.122 253.889 88.4453C253.975 87.994 253.967 87.5295 253.865 87.0815L253.824 87.0928C253.925 87.5349 253.933 87.9934 253.847 88.4387C253.715 89.1042 253.289 89.999 252.001 90.4818L252.016 90.5214Z" fill="#0C0C0C"/>
<path d="M268.524 96.7623L269.305 94.0874C269.322 94.0287 269.352 93.9741 269.391 93.9274C269.43 93.8806 269.478 93.8425 269.533 93.8156C269.588 93.7887 269.647 93.7736 269.708 93.7712C269.769 93.7688 269.829 93.7792 269.886 93.8016C269.989 93.8464 270.072 93.9282 270.118 94.0311C270.165 94.134 270.172 94.2507 270.138 94.3586L269.971 94.9321L271.318 93.3725C271.465 93.1964 271.757 93.0751 271.942 93.2543C272.017 93.3185 272.069 93.4067 272.089 93.5044C272.108 93.6022 272.094 93.7037 272.049 93.7925C272.051 93.7934 272.053 93.7946 272.055 93.796C272.056 93.7972 272.057 93.7986 272.058 93.8001L272.284 93.5285C272.326 93.4783 272.379 93.4381 272.438 93.4109C272.498 93.3838 272.562 93.3703 272.627 93.3715C272.692 93.3727 272.756 93.3885 272.815 93.4178C272.873 93.4471 272.924 93.4892 272.964 93.5409C273.026 93.6237 273.057 93.7252 273.054 93.8286C273.05 93.932 273.011 94.031 272.943 94.109L272.847 94.2245C272.849 94.2289 272.85 94.2337 272.851 94.2386C272.934 94.1758 273.036 94.1449 273.14 94.1513C273.243 94.1577 273.341 94.2011 273.416 94.2737C273.496 94.3555 273.542 94.4645 273.545 94.5791C273.549 94.6936 273.509 94.8052 273.434 94.8916L273.195 95.1785C273.201 95.1768 273.208 95.1766 273.214 95.178C273.22 95.1794 273.226 95.1822 273.231 95.1864C273.237 95.1916 273.241 95.1984 273.243 95.2059C273.332 95.1708 273.431 95.1663 273.523 95.1931C273.615 95.22 273.696 95.2766 273.753 95.3545C273.812 95.4372 273.841 95.5375 273.836 95.639C273.83 95.7405 273.792 95.8373 273.725 95.9138L271.706 98.3352C271.424 98.6739 271.047 98.9197 270.625 99.0413C270.203 99.1628 269.755 99.1545 269.338 99.0174C268.978 98.8993 268.678 98.6443 268.502 98.3067C268.326 97.969 268.287 97.5754 268.394 97.2094L268.524 96.7623Z" fill="#E98862"/>
<g opacity="0.2">
<path opacity="0.2" d="M270.723 95.3435C270.731 95.3501 270.741 95.3533 270.751 95.3524C270.762 95.3516 270.772 95.3467 270.779 95.3388L272.061 93.854C272.068 93.8459 272.071 93.8352 272.07 93.8245C272.07 93.8137 272.065 93.8037 272.057 93.7966C272.048 93.7895 272.038 93.786 272.027 93.7867C272.016 93.7875 272.007 93.7925 271.999 93.8007L270.717 95.2854C270.714 95.2894 270.711 95.2941 270.71 95.2992C270.708 95.3042 270.707 95.3096 270.708 95.3149C270.708 95.3203 270.709 95.3255 270.712 95.3302C270.714 95.335 270.717 95.3393 270.721 95.3428L270.723 95.3435Z" fill="#0C0C0C"/>
</g>
<g opacity="0.2">
<path opacity="0.2" d="M271.356 95.9306C271.364 95.9373 271.375 95.9405 271.385 95.9396C271.396 95.9388 271.405 95.9339 271.412 95.926L272.843 94.269C272.847 94.2649 272.849 94.2602 272.851 94.2552C272.853 94.2501 272.853 94.2447 272.853 94.2394C272.852 94.2341 272.851 94.2289 272.849 94.2241C272.846 94.2193 272.843 94.215 272.839 94.2115C272.831 94.2048 272.82 94.2015 272.81 94.2023C272.799 94.203 272.789 94.2078 272.782 94.2156L271.352 95.8726C271.349 95.8766 271.346 95.8813 271.344 95.8864C271.343 95.8915 271.342 95.8968 271.342 95.9022C271.343 95.9075 271.344 95.9127 271.347 95.9175C271.349 95.9223 271.352 95.9265 271.356 95.93L271.356 95.9306Z" fill="#0C0C0C"/>
</g>
<g opacity="0.2">
<path opacity="0.2" d="M272.039 96.5704C272.047 96.5771 272.057 96.5803 272.068 96.5794C272.078 96.5786 272.088 96.5737 272.095 96.5657L273.236 95.2441C273.243 95.2358 273.246 95.2255 273.245 95.2151C273.244 95.2047 273.239 95.1951 273.231 95.1882C273.223 95.1814 273.213 95.1778 273.203 95.1783C273.192 95.1787 273.182 95.1831 273.175 95.1906L272.034 96.5124C272.03 96.5164 272.028 96.5211 272.026 96.5262C272.024 96.5313 272.024 96.5366 272.024 96.542C272.024 96.5473 272.026 96.5525 272.028 96.5573C272.031 96.5621 272.034 96.5663 272.038 96.5698L272.039 96.5704Z" fill="#0C0C0C"/>
</g>
<path d="M273.281 97.9298L270.259 111.757C270.252 111.788 270.245 111.821 270.237 111.852C269.558 112.568 268.822 113.228 268.038 113.824C267.88 113.942 267.722 114.059 267.56 114.172C267.46 114.183 267.36 114.189 267.259 114.189C266.72 114.188 266.191 114.045 265.725 113.774C265.258 113.502 264.871 113.112 264.601 112.641L258.841 102.591L264.16 99.4921L265.962 102.637L267.283 96.5962L273.281 97.9298Z" fill="#0CBC8B"/>
<path d="M263.98 104.234C263.962 104.454 263.926 104.845 263.875 105.36C263.624 107.995 263.036 113.865 262.764 116.578C259.325 117.687 255.635 117.724 252.174 116.686H252.173C249.617 115.915 247.266 114.576 245.291 112.767C245.302 110.341 245.267 107.613 245.105 105.859C244.621 100.617 245.079 99.7968 245.831 99.038C245.893 98.9761 245.957 98.9155 246.021 98.8564C246.799 98.144 247.774 97.6795 249.197 97.485C250.138 97.3571 251.553 97.2642 251.553 97.2642C251.553 97.2642 251.673 99.7108 254.531 99.8459C258.421 100.031 258.162 97.2642 258.181 97.2642C259.16 97.2642 261.338 97.3261 262.711 98.0314C262.713 98.0314 262.713 98.0314 262.714 98.0328C262.991 98.1686 263.242 98.3509 263.458 98.572C265.031 100.253 264.255 100.972 263.98 104.234Z" fill="#0CBC8B"/>
<path d="M257.875 92.3522C257.313 92.64 256.673 92.7311 256.055 92.6109C256.033 92.6068 256.011 92.609 255.991 92.6171C255.971 92.6252 255.953 92.639 255.94 92.6568C255.927 92.6746 255.92 92.6957 255.919 92.7177C255.917 92.7396 255.922 92.7615 255.933 92.7807C256.118 93.1083 256.555 93.6685 257.305 93.4403C257.789 93.2929 257.972 92.7903 258.04 92.4793C258.045 92.4578 258.043 92.4353 258.036 92.4147C258.028 92.394 258.015 92.3759 257.998 92.3625C257.98 92.3492 257.96 92.3411 257.938 92.3393C257.916 92.3374 257.894 92.3419 257.875 92.3522Z" fill="white"/>
<path d="M257.91 89.8337C258.061 89.8337 258.182 89.7112 258.182 89.5602C258.182 89.4091 258.061 89.2866 257.91 89.2866C257.76 89.2866 257.639 89.4091 257.639 89.5602C257.639 89.7112 257.76 89.8337 257.91 89.8337Z" fill="#0C0C0C"/>
<path d="M255.304 90.2942C255.454 90.2942 255.575 90.1717 255.575 90.0206C255.575 89.8695 255.454 89.7471 255.304 89.7471C255.153 89.7471 255.032 89.8695 255.032 90.0206C255.032 90.1717 255.153 90.2942 255.304 90.2942Z" fill="#0C0C0C"/>
<path d="M263.38 110.139C263.379 110.139 263.377 110.139 263.375 110.139C263.364 110.138 263.354 110.132 263.347 110.123C263.341 110.114 263.338 110.103 263.339 110.091L263.82 105.219C263.82 105.214 263.822 105.208 263.825 105.203C263.828 105.199 263.831 105.194 263.836 105.191C263.84 105.188 263.845 105.185 263.851 105.184C263.856 105.182 263.862 105.182 263.867 105.183C263.878 105.185 263.888 105.191 263.895 105.199C263.902 105.208 263.904 105.22 263.903 105.231L263.422 110.103C263.421 110.113 263.416 110.122 263.408 110.129C263.4 110.136 263.391 110.139 263.38 110.139Z" fill="#0C0C0C"/>
<path d="M260.477 109.905L263.098 108.724C263.156 108.698 263.218 108.685 263.281 108.685C263.344 108.684 263.407 108.697 263.464 108.723C263.522 108.748 263.574 108.785 263.617 108.832C263.659 108.878 263.692 108.934 263.713 108.994C263.747 109.106 263.739 109.227 263.69 109.333C263.641 109.44 263.555 109.524 263.447 109.57L262.885 109.824L265.015 109.846C265.252 109.844 265.544 109.995 265.528 110.263C265.529 110.366 265.494 110.467 265.431 110.548C265.368 110.63 265.279 110.687 265.179 110.711C265.18 110.713 265.18 110.716 265.18 110.718C265.18 110.72 265.179 110.721 265.179 110.723L265.544 110.721C265.612 110.72 265.678 110.735 265.74 110.764C265.801 110.793 265.855 110.835 265.898 110.888C265.941 110.94 265.972 111.002 265.988 111.068C266.004 111.134 266.006 111.203 265.993 111.27C265.969 111.374 265.911 111.468 265.827 111.535C265.744 111.601 265.64 111.637 265.534 111.636L265.378 111.637C265.376 111.641 265.373 111.646 265.37 111.649C265.475 111.673 265.568 111.734 265.633 111.821C265.698 111.907 265.73 112.015 265.724 112.123C265.713 112.242 265.659 112.352 265.571 112.432C265.484 112.511 265.37 112.555 265.252 112.554L264.866 112.557C264.871 112.56 264.876 112.566 264.879 112.571C264.882 112.577 264.884 112.584 264.884 112.591C264.884 112.599 264.881 112.606 264.877 112.613C264.964 112.661 265.035 112.736 265.076 112.827C265.117 112.919 265.127 113.022 265.105 113.12C265.08 113.222 265.021 113.313 264.938 113.377C264.855 113.442 264.753 113.476 264.648 113.475L261.392 113.498C260.936 113.502 260.49 113.368 260.11 113.113C259.731 112.859 259.435 112.497 259.261 112.072C259.111 111.706 259.109 111.295 259.254 110.927C259.4 110.559 259.682 110.263 260.041 110.101L260.477 109.905Z" fill="#E98862"/>
<g opacity="0.2">
<path opacity="0.2" d="M263.071 110.699C263.071 110.711 263.075 110.721 263.083 110.729C263.091 110.737 263.102 110.742 263.113 110.742L265.138 110.76C265.149 110.76 265.16 110.756 265.168 110.748C265.176 110.74 265.18 110.729 265.18 110.718C265.18 110.707 265.176 110.696 265.168 110.688C265.16 110.68 265.15 110.676 265.139 110.676L263.113 110.657C263.102 110.657 263.091 110.662 263.083 110.67C263.076 110.678 263.071 110.688 263.071 110.699H263.071Z" fill="#0C0C0C"/>
</g>
<g opacity="0.2">
<path opacity="0.2" d="M263.038 111.601C263.038 111.612 263.043 111.623 263.05 111.631C263.058 111.639 263.069 111.643 263.08 111.643L265.34 111.664C265.351 111.664 265.362 111.659 265.37 111.651C265.378 111.643 265.382 111.633 265.382 111.621C265.382 111.61 265.377 111.6 265.369 111.592C265.362 111.584 265.351 111.579 265.34 111.579L263.08 111.559C263.069 111.559 263.058 111.563 263.05 111.571C263.042 111.579 263.038 111.59 263.038 111.601H263.038Z" fill="#0C0C0C"/>
</g>
<g opacity="0.2">
<path opacity="0.2" d="M262.997 112.575C262.997 112.586 263.001 112.597 263.009 112.605C263.017 112.613 263.028 112.618 263.039 112.618L264.842 112.634C264.853 112.634 264.864 112.63 264.871 112.622C264.879 112.614 264.884 112.603 264.884 112.592C264.884 112.581 264.879 112.57 264.871 112.562C264.864 112.554 264.853 112.55 264.842 112.55L263.039 112.533C263.028 112.533 263.017 112.538 263.009 112.546C263.001 112.553 262.997 112.564 262.997 112.575V112.575Z" fill="#0C0C0C"/>
</g>
<path d="M261.228 114.611L252.174 116.686H252.173C249.617 115.915 247.266 114.576 245.291 112.767C245.079 112.573 244.871 112.374 244.668 112.17C244.315 111.814 243.976 111.444 243.653 111.059L244.921 100.777C245.059 99.9479 245.518 99.2083 246.197 98.7208C246.876 98.2333 247.719 98.0378 248.541 98.1772C249.363 98.3167 250.097 98.7797 250.58 99.4644C251.063 100.149 251.257 101 251.119 101.828L250.318 111.483L260.413 109.178L261.228 114.611Z" fill="#0CBC8B"/>
<path d="M248.276 111.862C248.27 111.863 248.265 111.862 248.259 111.86C248.254 111.858 248.249 111.856 248.245 111.852C248.241 111.848 248.237 111.844 248.235 111.839C248.232 111.834 248.231 111.829 248.231 111.823C248.23 111.818 248.231 111.812 248.233 111.807C248.234 111.801 248.237 111.797 248.241 111.792C248.244 111.788 248.249 111.785 248.254 111.782C248.258 111.78 248.264 111.778 248.269 111.778L250.293 111.341C250.299 111.34 250.304 111.341 250.31 111.342C250.315 111.343 250.32 111.346 250.325 111.349C250.329 111.352 250.333 111.356 250.336 111.361C250.338 111.366 250.34 111.371 250.341 111.377C250.342 111.382 250.342 111.388 250.34 111.393C250.339 111.399 250.337 111.404 250.333 111.408C250.33 111.413 250.326 111.416 250.321 111.419C250.317 111.422 250.311 111.424 250.306 111.425L248.281 111.861C248.279 111.862 248.277 111.862 248.276 111.862Z" fill="#0C0C0C"/>
<path d="M261.229 114.611C261.231 114.622 261.229 114.633 261.223 114.643C261.217 114.652 261.208 114.659 261.198 114.662L252.402 116.753C252.346 116.737 252.292 116.722 252.237 116.705L261.136 114.592L260.344 109.242L250.308 111.425C250.301 111.426 250.295 111.426 250.289 111.424C250.282 111.422 250.276 111.419 250.272 111.414C250.267 111.409 250.264 111.403 250.262 111.397C250.261 111.391 250.26 111.384 250.26 111.378L250.823 105.86C250.824 105.855 250.826 105.85 250.829 105.845C250.832 105.84 250.836 105.836 250.841 105.833C250.845 105.83 250.85 105.828 250.856 105.827C250.861 105.825 250.866 105.825 250.872 105.826C250.883 105.828 250.893 105.834 250.899 105.843C250.906 105.852 250.908 105.863 250.907 105.874L250.353 111.335L260.362 109.148C260.367 109.146 260.373 109.146 260.378 109.147C260.384 109.148 260.389 109.15 260.394 109.153C260.399 109.156 260.403 109.159 260.406 109.164C260.41 109.168 260.412 109.173 260.413 109.178L261.229 114.611Z" fill="#0C0C0C"/>
<path d="M193.161 138.219C202.217 138.219 209.56 130.815 209.56 121.681C209.56 112.547 202.217 105.143 193.161 105.143C184.104 105.143 176.762 112.547 176.762 121.681C176.762 130.815 184.104 138.219 193.161 138.219Z" fill="white"/>
<path opacity="0.09" d="M193.161 138.219C202.217 138.219 209.56 130.815 209.56 121.681C209.56 112.547 202.217 105.143 193.161 105.143C184.104 105.143 176.762 112.547 176.762 121.681C176.762 130.815 184.104 138.219 193.161 138.219Z" fill="#367CFF"/>
<path d="M188.644 112.301C188.644 112.301 188.822 117.282 192.118 117.511L192.677 110.942L188.644 112.301Z" fill="#0A0A0A"/>
<path d="M189.279 118.528C190.358 118.528 191.232 117.647 191.232 116.559C191.232 115.471 190.358 114.589 189.279 114.589C188.201 114.589 187.326 115.471 187.326 116.559C187.326 117.647 188.201 118.528 189.279 118.528Z" fill="#0A0A0A"/>
<path d="M196.92 119.823C196.903 119.82 196.71 123.05 192.989 122.768C190.414 122.574 189.495 119.818 189.437 119.818C189.731 119.769 190.021 119.698 190.305 119.606C190.711 119.386 191.213 119.158 191.343 118.363C191.419 117.905 191.291 115.563 191.33 115.1L195.284 115.99C195.228 116.968 194.842 119.236 196.197 119.638C196.422 119.704 196.665 119.765 196.92 119.823Z" fill="#E98862"/>
<path opacity="0.5" d="M195.339 118.711C195.277 118.509 195.237 118.301 195.22 118.091C195.177 117.612 195.186 117.129 195.246 116.652C194.443 116.543 193.686 116.208 193.061 115.687C192.988 115.96 192.584 117.155 192.696 117.414C192.907 117.907 193.9 118.711 195.339 118.711Z" fill="#0C0C0C"/>
<path d="M194.72 117.84C193.154 117.861 191.196 117.064 190.954 114.942L190.735 113.028C190.492 110.907 191.4 109.058 193.381 108.828C195.361 108.598 197.038 110.145 197.281 112.266L197.378 113.114C197.471 113.928 197.514 117.805 194.72 117.84Z" fill="#E98862"/>
<path d="M196.811 113.057C196.947 113.057 197.057 112.946 197.057 112.809C197.057 112.672 196.947 112.562 196.811 112.562C196.675 112.562 196.565 112.672 196.565 112.809C196.565 112.946 196.675 113.057 196.811 113.057Z" fill="#0C0C0C"/>
<path d="M194.301 113.346C194.437 113.346 194.547 113.235 194.547 113.099C194.547 112.962 194.437 112.851 194.301 112.851C194.165 112.851 194.055 112.962 194.055 113.099C194.055 113.235 194.165 113.346 194.301 113.346Z" fill="#0C0C0C"/>
<path opacity="0.5" d="M195.546 114.984H195.55C195.63 114.974 195.71 114.96 195.789 114.941C195.907 114.912 196.062 114.861 196.05 114.755C196.036 114.634 195.558 113.368 195.503 113.225C195.501 113.218 195.497 113.213 195.493 113.208C195.488 113.203 195.483 113.199 195.477 113.196C195.471 113.194 195.464 113.192 195.458 113.192C195.451 113.192 195.444 113.193 195.438 113.195C195.432 113.198 195.426 113.201 195.422 113.206C195.417 113.21 195.413 113.216 195.41 113.222C195.407 113.228 195.406 113.235 195.406 113.241C195.406 113.248 195.407 113.254 195.409 113.261C195.613 113.8 195.941 114.686 195.95 114.767C195.824 114.838 195.683 114.878 195.538 114.883C195.525 114.884 195.513 114.891 195.504 114.901C195.495 114.911 195.491 114.924 195.492 114.938C195.493 114.951 195.499 114.964 195.51 114.972C195.52 114.981 195.533 114.985 195.546 114.984V114.984Z" fill="#0C0C0C"/>
<path opacity="0.5" d="M195.192 115.867C195.513 115.848 195.826 115.754 196.105 115.591C196.116 115.584 196.124 115.573 196.127 115.561C196.131 115.548 196.129 115.535 196.123 115.523C196.116 115.512 196.106 115.503 196.094 115.499C196.081 115.496 196.068 115.497 196.056 115.502C195.454 115.838 194.878 115.858 194.391 115.559C194.381 115.552 194.371 115.546 194.361 115.541C194.349 115.536 194.335 115.536 194.323 115.541C194.311 115.546 194.302 115.556 194.296 115.568C194.291 115.58 194.291 115.593 194.295 115.606C194.299 115.618 194.308 115.628 194.32 115.634C194.324 115.636 194.33 115.64 194.339 115.645C194.595 115.803 194.892 115.88 195.192 115.867Z" fill="#0C0C0C"/>
<path d="M189.125 113.572L190.899 113.376C192.264 112.931 192.832 110.645 192.832 110.645C192.832 110.645 194.055 112.048 197.68 111.407C197.68 111.407 197.539 106.694 192.026 107.357C190.107 107.589 188.659 109.53 188.644 112.069C188.634 113.847 189.125 113.572 189.125 113.572Z" fill="#0A0A0A"/>
<path d="M191.151 115.574C190.549 115.645 189.987 115.052 189.917 114.445C189.848 113.838 190.297 113.446 190.899 113.376L191.256 113.747L191.668 115.514L191.151 115.574Z" fill="#E98862"/>
<path d="M195.942 112.191C196.12 112.092 196.321 112.043 196.524 112.049C196.624 112.051 196.724 112.068 196.819 112.1C196.913 112.132 197.004 112.175 197.088 112.229C197.096 112.234 197.102 112.243 197.104 112.253C197.107 112.262 197.105 112.272 197.1 112.281C197.095 112.29 197.087 112.296 197.078 112.299C197.068 112.302 197.058 112.301 197.049 112.296L197.047 112.295C196.967 112.247 196.882 112.21 196.793 112.184C196.706 112.158 196.614 112.145 196.523 112.146C196.34 112.147 196.161 112.196 196.004 112.289L196 112.292C195.994 112.296 195.987 112.299 195.979 112.3C195.971 112.302 195.963 112.302 195.956 112.3C195.948 112.298 195.941 112.295 195.935 112.29C195.928 112.286 195.923 112.28 195.919 112.273C195.915 112.267 195.912 112.259 195.911 112.252C195.91 112.244 195.911 112.236 195.913 112.228C195.915 112.221 195.918 112.214 195.923 112.207C195.927 112.201 195.933 112.196 195.94 112.192L195.942 112.191Z" fill="#0C0C0C"/>
<path d="M194.353 112.486C194.18 112.431 193.994 112.423 193.816 112.463C193.727 112.483 193.64 112.516 193.561 112.561C193.48 112.607 193.405 112.662 193.339 112.726L193.336 112.728C193.329 112.734 193.319 112.737 193.31 112.736C193.301 112.735 193.292 112.731 193.285 112.724C193.279 112.717 193.275 112.708 193.275 112.698C193.275 112.688 193.278 112.679 193.284 112.672C193.354 112.6 193.432 112.538 193.517 112.486C193.603 112.434 193.696 112.394 193.793 112.37C193.99 112.318 194.197 112.321 194.392 112.378C194.4 112.38 194.407 112.383 194.413 112.388C194.42 112.392 194.425 112.398 194.429 112.405C194.432 112.412 194.435 112.42 194.436 112.427C194.437 112.435 194.436 112.443 194.434 112.451C194.431 112.458 194.428 112.465 194.423 112.471C194.418 112.477 194.412 112.482 194.405 112.486C194.398 112.489 194.39 112.492 194.382 112.492C194.375 112.493 194.367 112.492 194.359 112.489H194.358L194.353 112.486Z" fill="#0C0C0C"/>
<path opacity="0.52" d="M195.227 116.346C195.285 116.344 195.343 116.336 195.4 116.324C195.413 116.321 195.424 116.313 195.431 116.302C195.438 116.291 195.44 116.277 195.437 116.264C195.435 116.252 195.427 116.24 195.416 116.233C195.405 116.225 195.392 116.223 195.379 116.225C195.29 116.251 195.196 116.258 195.104 116.245C195.012 116.232 194.924 116.199 194.846 116.149C194.836 116.14 194.822 116.136 194.809 116.137C194.796 116.139 194.784 116.145 194.775 116.156C194.767 116.166 194.763 116.18 194.764 116.193C194.765 116.206 194.772 116.219 194.782 116.227C194.912 116.317 195.069 116.36 195.227 116.346Z" fill="#0C0C0C"/>
<path opacity="0.1" d="M193.961 115.023C194.22 115.014 194.424 114.852 194.418 114.661C194.411 114.47 194.196 114.322 193.937 114.332C193.678 114.341 193.474 114.503 193.481 114.694C193.487 114.885 193.702 115.032 193.961 115.023Z" fill="#0C0C0C"/>
<path opacity="0.1" d="M196.724 114.496C196.731 114.687 196.946 114.834 197.205 114.825C197.249 114.823 197.294 114.817 197.337 114.806C197.368 114.582 197.387 114.366 197.397 114.165C197.327 114.141 197.254 114.13 197.18 114.133C196.922 114.142 196.718 114.304 196.724 114.496Z" fill="#0C0C0C"/>
<path d="M202.477 123.224C202.466 124.352 202.082 125.696 201.945 127.321C201.909 127.755 200.986 129.009 200.852 130.404C200.683 132.181 201.059 134.951 201.109 136.149C198.515 137.597 195.581 138.309 192.618 138.21C189.655 138.111 186.774 137.204 184.281 135.586C184.214 132.509 184.134 128.709 184.032 127.798C183.701 124.791 183.791 122.889 184.268 121.999C185.049 120.547 186.438 120.103 187.891 119.903C188.779 119.782 190.112 119.696 190.112 119.696C190.112 119.696 190.225 122.001 192.919 122.129C196.586 122.304 196.342 119.696 196.36 119.696C197.69 119.696 200.212 120.017 201.178 120.682C202.202 121.384 202.49 122.218 202.477 123.224Z" fill="#FFC239"/>
<path d="M189.808 124.979L184.833 135.928C182.922 134.791 181.26 133.275 179.947 131.472L184.097 122.338L189.808 124.979Z" fill="#FFC239"/>
<path d="M206.497 131.307C205.522 132.678 204.346 133.891 203.008 134.905C202.568 135.24 202.111 135.552 201.639 135.84L196.532 124.518L202.25 121.894L206.497 131.307Z" fill="#FFC239"/>
<path d="M227.289 73.4376C236.719 73.4376 244.363 65.7285 244.363 56.2188C244.363 46.7091 236.719 39 227.289 39C217.86 39 210.215 46.7091 210.215 56.2188C210.215 65.7285 217.86 73.4376 227.289 73.4376Z" fill="white"/>
<path opacity="0.09" d="M227.289 73.4376C236.719 73.4376 244.363 65.7285 244.363 56.2188C244.363 46.7091 236.719 39 227.289 39C217.86 39 210.215 46.7091 210.215 56.2188C210.215 65.7285 217.86 73.4376 227.289 73.4376Z" fill="#367CFF"/>
<path d="M230.591 45.9079C230.591 45.9079 231.672 44.7262 231.588 42.4754C231.524 40.7327 230.167 42.117 230.167 42.117C230.167 42.117 230.109 40.8626 229.246 41.1456C228.383 41.4285 228.118 42.8059 228.118 42.8059" fill="#0C0C0C"/>
<path d="M224.697 42.124C224.697 42.124 220.391 43.4002 223.055 49.1111L223.449 49.0664L224.247 48.9757" fill="#0C0C0C"/>
<path d="M230.799 55.0349C230.78 55.0324 230.562 58.6755 226.365 58.3573C223.46 58.1379 222.424 55.0293 222.357 55.0293C222.671 54.9621 223.058 54.8603 223.212 54.8253C223.547 54.7468 223.851 54.5672 224.082 54.3104C224.314 54.0536 224.462 53.7318 224.508 53.3878C224.593 52.8714 224.449 50.2295 224.494 49.707L228.953 50.7108C228.891 51.8144 228.455 54.3725 229.983 54.8253C230.238 54.9003 230.512 54.9693 230.799 55.0349Z" fill="#E98862"/>
<path opacity="0.52" d="M229.016 53.7802C228.946 53.5531 228.901 53.3191 228.881 53.0822C228.832 52.5416 228.842 51.9972 228.911 51.4587C228.004 51.3353 227.15 50.958 226.446 50.3696C226.363 50.6781 225.908 52.0258 226.034 52.3189C226.272 52.873 227.392 53.7802 229.016 53.7802Z" fill="#0C0C0C"/>
<path d="M228.288 52.6203C226.529 52.7798 224.258 52.0549 223.803 49.6904L223.392 47.5568C222.937 45.1917 223.799 43.0342 226.007 42.602C228.215 42.1697 230.234 43.7635 230.689 46.1281L230.871 47.0726C230.927 47.3979 230.962 47.7269 230.975 48.057C231.014 48.9299 231.071 50.2565 230.655 51.2371C230.262 52.1632 229.412 52.5185 228.288 52.6203Z" fill="#E98862"/>
<path opacity="0.5" d="M228.553 50.2824C228.875 50.2763 229.192 50.1939 229.476 50.042C229.483 50.0391 229.488 50.0351 229.493 50.03C229.497 50.025 229.501 50.019 229.503 50.0126C229.505 50.0061 229.506 49.9993 229.506 49.9924C229.505 49.9856 229.504 49.9789 229.501 49.9728C229.498 49.9667 229.493 49.9612 229.488 49.9568C229.483 49.9524 229.477 49.9491 229.47 49.9471C229.464 49.9451 229.457 49.9444 229.45 49.9451C229.444 49.9459 229.437 49.948 229.431 49.9513C228.817 50.264 228.24 50.261 227.765 49.9437C227.755 49.937 227.745 49.9308 227.735 49.9251C227.729 49.9222 227.723 49.9205 227.716 49.92C227.71 49.9196 227.703 49.9205 227.697 49.9226C227.69 49.9248 227.685 49.9282 227.68 49.9326C227.675 49.937 227.671 49.9423 227.668 49.9483C227.665 49.9543 227.663 49.9608 227.663 49.9674C227.662 49.9741 227.663 49.9807 227.665 49.987C227.667 49.9934 227.671 49.9992 227.675 50.0042C227.679 50.0092 227.685 50.0133 227.691 50.0162C227.694 50.0183 227.701 50.0225 227.709 50.0283C227.959 50.1959 228.253 50.2843 228.553 50.2824Z" fill="#0C0C0C"/>
<path opacity="0.52" d="M228.57 50.7635C228.628 50.7634 228.687 50.7582 228.744 50.7481C228.751 50.7469 228.757 50.7445 228.762 50.741C228.768 50.7374 228.773 50.7328 228.777 50.7274C228.78 50.722 228.783 50.7158 228.785 50.7093C228.786 50.7028 228.786 50.6961 228.785 50.6896C228.784 50.683 228.782 50.6767 228.778 50.6711C228.775 50.6654 228.77 50.6606 228.765 50.6567C228.759 50.6529 228.753 50.6501 228.747 50.6486C228.74 50.6472 228.734 50.647 228.727 50.6481C228.637 50.6708 228.543 50.6739 228.452 50.6573C228.36 50.6406 228.274 50.6046 228.197 50.5515C228.187 50.543 228.174 50.5387 228.161 50.5397C228.148 50.5407 228.136 50.5468 228.127 50.5567C228.118 50.5667 228.114 50.5797 228.114 50.5929C228.115 50.6061 228.121 50.6186 228.131 50.6275C228.257 50.7227 228.412 50.7707 228.57 50.7635Z" fill="#0C0C0C"/>
<path d="M230.161 47.6685C230.314 47.6685 230.438 47.5434 230.438 47.3892C230.438 47.2349 230.314 47.1099 230.161 47.1099C230.008 47.1099 229.883 47.2349 229.883 47.3892C229.883 47.5434 230.008 47.6685 230.161 47.6685Z" fill="#0C0C0C"/>
<path d="M227.468 47.9859C227.621 47.9859 227.745 47.8608 227.745 47.7066C227.745 47.5523 227.621 47.4272 227.468 47.4272C227.315 47.4272 227.19 47.5523 227.19 47.7066C227.19 47.8608 227.315 47.9859 227.468 47.9859Z" fill="#0C0C0C"/>
<path d="M224.079 50.3836C223.408 50.515 222.725 49.8976 222.594 49.221C222.464 48.5444 222.936 48.0649 223.607 47.9336L224.04 48.3192L224.655 50.2707L224.079 50.3836Z" fill="#E98862"/>
<path d="M224.552 49.1718C224.552 49.1718 224.177 45.7768 225.148 45.3858C225.795 45.1252 227.596 45.7885 229.052 45.2232C229.69 44.9757 230.346 45.0261 230.466 45.3289C230.513 45.4487 230.604 43.5849 229.326 42.416C228.31 41.4854 225.562 41.6717 224.401 42.2497C221.185 43.8503 223.495 48.1062 223.495 48.1062L223.854 49.2347L224.552 49.1718Z" fill="#0C0C0C"/>
<g opacity="0.52">
<path opacity="0.52" d="M228.967 49.4418H228.971C229.188 49.3996 229.547 49.3057 229.517 49.1425C229.491 49.0072 228.845 47.6186 228.772 47.4607C228.769 47.454 228.764 47.448 228.759 47.443C228.754 47.438 228.747 47.4341 228.74 47.4316C228.733 47.4291 228.726 47.4279 228.719 47.4283C228.711 47.4286 228.704 47.4304 228.697 47.4336C228.691 47.4367 228.685 47.4412 228.68 47.4467C228.675 47.4521 228.671 47.4586 228.668 47.4655C228.666 47.4725 228.665 47.4799 228.665 47.4873C228.665 47.4948 228.667 47.502 228.67 47.5087C228.957 48.1237 229.389 49.0714 229.406 49.1636C229.392 49.2059 229.175 49.2874 228.951 49.3306C228.936 49.3328 228.923 49.3409 228.914 49.353C228.905 49.3651 228.901 49.3804 228.903 49.3953C228.906 49.4102 228.914 49.4237 228.926 49.4327C228.938 49.4416 228.953 49.4454 228.968 49.4432L228.967 49.4418Z" fill="#0C0C0C"/>
</g>
<path d="M229.119 46.0389C229.336 45.9342 229.577 45.8904 229.817 45.9122C229.934 45.9221 230.05 45.9497 230.159 45.9941C230.267 46.0373 230.369 46.0941 230.463 46.163C230.481 46.1752 230.493 46.1936 230.497 46.2145C230.501 46.2355 230.497 46.2572 230.485 46.2752C230.474 46.2931 230.456 46.3059 230.436 46.3109C230.415 46.3158 230.393 46.3125 230.375 46.3017L230.369 46.2995C230.284 46.2447 230.192 46.201 230.096 46.1692C230.002 46.1375 229.903 46.1204 229.803 46.1184C229.607 46.1129 229.413 46.1597 229.241 46.254L229.234 46.2581C229.22 46.2661 229.204 46.2713 229.188 46.2734C229.172 46.2754 229.156 46.2743 229.14 46.27C229.125 46.2657 229.11 46.2584 229.097 46.2484C229.085 46.2385 229.074 46.2261 229.066 46.212C229.058 46.1978 229.053 46.1823 229.051 46.1662C229.049 46.15 229.05 46.1337 229.054 46.118C229.058 46.1023 229.066 46.0876 229.076 46.0748C229.085 46.0619 229.098 46.0512 229.112 46.0431L229.119 46.0389Z" fill="#0C0C0C"/>
<path d="M227.534 46.4717C227.345 46.4185 227.146 46.4164 226.956 46.4656C226.859 46.4898 226.767 46.5286 226.682 46.5806C226.595 46.633 226.515 46.6962 226.444 46.7686L226.44 46.7731C226.424 46.788 226.404 46.7963 226.382 46.7963C226.361 46.7962 226.341 46.7877 226.325 46.7727C226.31 46.7577 226.301 46.7372 226.301 46.7158C226.3 46.6943 226.308 46.6735 226.323 46.6578C226.399 46.5693 226.486 46.4909 226.582 46.4245C226.679 46.3567 226.785 46.3039 226.897 46.2678C227.01 46.2305 227.127 46.2089 227.245 46.2036C227.366 46.1969 227.487 46.2075 227.605 46.2351C227.637 46.2426 227.664 46.2625 227.682 46.2903C227.699 46.3182 227.704 46.3518 227.697 46.3838C227.69 46.4158 227.67 46.4435 227.642 46.4608C227.614 46.4781 227.581 46.4836 227.549 46.4762L227.542 46.4742L227.534 46.4717Z" fill="#0C0C0C"/>
<path d="M228.381 43.7902C228.86 43.5945 229.017 42.8595 228.731 42.1487C228.445 41.4378 227.825 41.0202 227.347 41.2159C226.868 41.4117 226.711 42.1466 226.997 42.8574C227.282 43.5683 227.902 43.9859 228.381 43.7902Z" fill="#0C0C0C"/>
<path d="M236.599 58.7999C236.616 59.967 236.164 61.2791 236.013 63.0558C235.982 63.4162 235.91 64.2102 235.813 65.2449C235.656 66.9582 235.432 69.3276 235.237 71.4632C232.442 72.9426 229.296 73.6128 226.146 73.3996C222.997 73.1864 219.967 72.0981 217.394 70.2553C217.332 70.2088 217.271 70.1638 217.209 70.1202C217.046 67.7058 216.853 65.1717 216.678 63.571C216.347 60.5822 215.896 59.0942 216.148 58.089C216.169 58.0034 216.196 57.9196 216.229 57.8384C216.957 56.0589 219.273 55.2649 220.842 55.0509C221.799 54.92 223.24 54.8257 223.24 54.8257C223.24 54.8257 223.361 57.3147 226.269 57.4527C230.228 57.6413 229.964 54.8257 229.984 54.8257C230.625 54.8257 234.116 55.2959 234.988 55.8703C235.135 55.966 235.275 56.0714 235.407 56.1856C235.786 56.5045 236.09 56.9046 236.296 57.3569C236.502 57.8092 236.606 58.3022 236.599 58.7999Z" fill="#383838"/>
<path d="M222.023 60.6044L217.394 70.255C217.332 70.2085 217.271 70.1634 217.21 70.1198C215.415 68.7928 213.893 67.1271 212.729 65.215L216.149 58.0886L216.284 57.8057L222.023 60.6044Z" fill="#383838"/>
<path d="M221.576 61.7153L217.366 70.234C217.338 70.2129 217.312 70.1932 217.284 70.1749L221.488 61.6717C221.494 61.6599 221.505 61.6509 221.517 61.6467C221.53 61.6424 221.543 61.6433 221.555 61.6492C221.567 61.6551 221.575 61.6655 221.579 61.6779C221.583 61.6903 221.582 61.7038 221.576 61.7153Z" fill="white"/>
<path d="M242.923 63.1513C242.084 65.0692 240.906 66.8171 239.446 68.3095L235.813 65.2447L231.2 61.3507L235.407 56.1854L235.42 56.1699L242.923 63.1513Z" fill="#383838"/>
<path d="M235.869 65.2825C235.881 65.2819 235.893 65.277 235.901 65.2687C235.91 65.2604 235.915 65.2492 235.916 65.2373L236.156 62.4034C236.157 62.3903 236.153 62.3773 236.145 62.3672C236.136 62.3572 236.124 62.3509 236.111 62.3497C236.098 62.3488 236.086 62.353 236.076 62.3614C236.066 62.3698 236.059 62.3818 236.058 62.3948L235.818 65.2289C235.817 65.2419 235.821 65.2549 235.829 65.2649C235.838 65.2749 235.85 65.2812 235.863 65.2824L235.869 65.2825Z" fill="white"/>
<path d="M307.686 148C316.68 148 323.971 140.647 323.971 131.576C323.971 122.506 316.68 115.153 307.686 115.153C298.692 115.153 291.401 122.506 291.401 131.576C291.401 140.647 298.692 148 307.686 148Z" fill="white"/>
<path opacity="0.09" d="M291.401 131.576C291.4 134.824 292.356 137.999 294.145 140.7C295.934 143.401 298.478 145.506 301.453 146.749C304.429 147.992 307.703 148.317 310.862 147.684C314.021 147.05 316.923 145.486 319.2 143.189C321.477 140.892 323.028 137.966 323.657 134.78C324.285 131.595 323.963 128.292 322.73 125.292C321.498 122.291 319.41 119.726 316.732 117.921C314.054 116.117 310.906 115.153 307.685 115.153C305.544 115.145 303.423 115.565 301.444 116.387C299.465 117.21 297.666 118.419 296.153 119.946C294.639 121.472 293.44 123.286 292.624 125.282C291.808 127.278 291.393 129.417 291.401 131.576Z" fill="#367CFF"/>
<path d="M315.075 122.514C314.815 125.555 315.056 126.586 316.308 128.328C317.364 129.797 311.356 128.549 308.697 128.071L311.043 121.156C311.043 121.156 315.167 121.446 315.075 122.514Z" fill="#0A0A0A"/>
<path d="M305.903 121.249C305.119 124.197 305.207 125.109 303.672 126.657C302.4 127.94 307.358 128.201 310.018 128.667L310.153 121.36C310.153 121.36 306.179 120.214 305.903 121.249Z" fill="#0A0A0A"/>
<path d="M306.167 129.822C306.185 129.82 306.38 133.08 310.135 132.796C312.735 132.599 313.662 129.818 313.721 129.818C313.424 129.768 313.131 129.696 312.844 129.603C312.435 129.381 311.929 129.151 311.797 128.349C311.721 127.887 311.85 125.523 311.81 125.055L307.819 125.953C307.875 126.94 308.266 129.23 306.898 129.635C306.67 129.702 306.425 129.764 306.167 129.822Z" fill="#E98862"/>
<path opacity="0.5" d="M307.763 128.7C307.826 128.497 307.866 128.287 307.883 128.075C307.927 127.591 307.918 127.104 307.857 126.622C308.668 126.512 309.433 126.174 310.063 125.648C310.137 125.924 310.545 127.13 310.432 127.392C310.218 127.888 309.216 128.7 307.763 128.7Z" fill="#0C0C0C"/>
<path d="M308.28 127.684C309.853 127.838 311.888 127.203 312.31 125.09L312.691 123.184C313.112 121.071 312.354 119.134 310.381 118.734C308.408 118.333 306.592 119.747 306.17 121.86L306.002 122.705C305.84 123.515 305.472 127.411 308.28 127.684Z" fill="#E98862"/>
<path d="M314.595 123.785L312.82 123.589C309.348 122.945 308.497 120.119 308.497 120.119C308.497 120.119 307.041 122.081 305.804 121.63C305.804 121.63 306.202 116.901 311.693 117.732C313.85 118.059 315.075 119.862 315.075 122.281C315.075 124.06 314.595 123.785 314.595 123.785Z" fill="#0A0A0A"/>
<path opacity="0.1" d="M309.79 124.625C309.813 124.433 309.621 124.252 309.362 124.221C309.102 124.19 308.874 124.32 308.851 124.512C308.828 124.703 309.02 124.884 309.28 124.915C309.539 124.946 309.768 124.816 309.79 124.625Z" fill="#0C0C0C"/>
<path opacity="0.1" d="M306.546 124.149C306.522 124.341 306.294 124.471 306.034 124.44C305.989 124.434 305.945 124.424 305.902 124.41C305.89 124.182 305.89 123.962 305.896 123.759C305.968 123.741 306.043 123.737 306.117 123.746C306.375 123.777 306.567 123.957 306.546 124.149Z" fill="#0C0C0C"/>
<path opacity="0.5" d="M307.689 124.741H307.685C307.605 124.724 307.526 124.703 307.448 124.677C307.332 124.638 307.18 124.574 307.201 124.468C307.225 124.348 307.813 123.115 307.88 122.975C307.882 122.969 307.886 122.963 307.891 122.959C307.896 122.954 307.902 122.95 307.909 122.948C307.915 122.946 307.922 122.945 307.928 122.945C307.935 122.945 307.942 122.947 307.948 122.95C307.954 122.953 307.96 122.957 307.964 122.962C307.969 122.967 307.972 122.973 307.974 122.98C307.976 122.986 307.977 122.993 307.977 123C307.976 123.007 307.974 123.013 307.971 123.02C307.721 123.544 307.317 124.408 307.301 124.489C307.422 124.571 307.56 124.623 307.705 124.641C307.718 124.643 307.729 124.651 307.736 124.662C307.744 124.672 307.747 124.686 307.745 124.699C307.743 124.712 307.736 124.723 307.725 124.731C307.715 124.739 307.702 124.743 307.689 124.742V124.741Z" fill="#0C0C0C"/>
<path d="M312.059 125.709C312.659 125.831 313.274 125.283 313.395 124.678C313.515 124.073 313.096 123.641 312.496 123.52L312.107 123.862L311.544 125.604L312.059 125.709Z" fill="#E98862"/>
<path d="M307.455 121.992C307.381 121.939 307.3 121.896 307.215 121.865C307.128 121.832 307.038 121.812 306.946 121.804C306.853 121.795 306.761 121.8 306.67 121.819C306.579 121.838 306.49 121.868 306.406 121.909L306.404 121.91C306.394 121.914 306.385 121.913 306.376 121.91C306.367 121.906 306.359 121.899 306.355 121.89C306.351 121.881 306.35 121.871 306.353 121.862C306.356 121.853 306.362 121.845 306.37 121.84C306.459 121.793 306.554 121.757 306.651 121.733C306.75 121.709 306.851 121.7 306.953 121.707C307.157 121.718 307.355 121.785 307.526 121.899C307.538 121.908 307.547 121.922 307.549 121.937C307.552 121.952 307.549 121.967 307.54 121.98C307.532 121.993 307.518 122.002 307.504 122.005C307.489 122.008 307.473 122.005 307.46 121.997L307.459 121.996L307.455 121.992Z" fill="#0C0C0C"/>
<path d="M309.069 122.217C309.27 122.176 309.478 122.191 309.672 122.259C309.767 122.293 309.858 122.34 309.94 122.4C310.021 122.46 310.095 122.529 310.159 122.607C310.166 122.614 310.169 122.625 310.169 122.635C310.168 122.645 310.164 122.655 310.156 122.662C310.149 122.669 310.139 122.673 310.128 122.672C310.118 122.672 310.108 122.667 310.101 122.66L310.099 122.657C310.037 122.587 309.967 122.525 309.889 122.473C309.813 122.42 309.729 122.38 309.641 122.352C309.465 122.297 309.278 122.289 309.098 122.33L309.094 122.331C309.079 122.335 309.063 122.333 309.05 122.324C309.036 122.316 309.027 122.303 309.023 122.288C309.019 122.273 309.022 122.257 309.03 122.244C309.038 122.23 309.051 122.221 309.066 122.217L309.069 122.217Z" fill="#0C0C0C"/>
<path d="M300.119 146.122C299.479 145.84 299 145.539 297.907 144.708C297.118 144.111 296.385 143.443 295.717 142.711L301.33 131.939L301.574 131.471L306.637 134.155L302.245 142.584L302.225 142.621L302.263 142.771" fill="#EA394A"/>
<path d="M318.787 137.456C318.64 139.054 318.608 141.538 318.618 143.747C316.501 145.683 313.917 147.023 311.124 147.632C308.331 148.241 305.428 148.098 302.707 147.217C302.375 143.886 301.879 138.991 301.6 135.977C301.318 132.855 300.486 131.824 302.756 130.329C304.007 129.687 305.989 129.63 306.881 129.63C306.578 132.59 312.762 132.954 312.916 129.63C317.541 130.067 319.682 130.175 318.787 137.456Z" fill="#EA394A"/>
<path d="M307.16 125.157C307.671 125.42 308.255 125.502 308.818 125.393C308.837 125.389 308.858 125.391 308.876 125.399C308.894 125.406 308.91 125.419 308.922 125.435C308.934 125.451 308.941 125.47 308.942 125.49C308.943 125.51 308.938 125.53 308.929 125.548C308.761 125.846 308.362 126.356 307.679 126.148C307.238 126.014 307.072 125.557 307.009 125.273C307.005 125.254 307.006 125.233 307.013 125.214C307.02 125.195 307.032 125.179 307.048 125.167C307.064 125.154 307.083 125.147 307.103 125.145C307.123 125.144 307.143 125.148 307.16 125.157Z" fill="white"/>
<path d="M307.129 122.864C307.265 122.864 307.376 122.753 307.376 122.615C307.376 122.478 307.265 122.366 307.129 122.366C306.992 122.366 306.881 122.478 306.881 122.615C306.881 122.753 306.992 122.864 307.129 122.864Z" fill="#0C0C0C"/>
<path d="M309.502 123.283C309.639 123.283 309.75 123.172 309.75 123.034C309.75 122.897 309.639 122.785 309.502 122.785C309.366 122.785 309.255 122.897 309.255 123.034C309.255 123.172 309.366 123.283 309.502 123.283Z" fill="#0C0C0C"/>
<path d="M302.148 141.354H302.153C302.163 141.352 302.172 141.347 302.178 141.339C302.184 141.33 302.187 141.32 302.185 141.31L301.748 136.874C301.747 136.869 301.746 136.864 301.743 136.859C301.741 136.855 301.737 136.851 301.733 136.848C301.729 136.845 301.725 136.843 301.72 136.841C301.715 136.84 301.71 136.84 301.705 136.841C301.7 136.841 301.695 136.843 301.691 136.846C301.686 136.848 301.683 136.852 301.68 136.856C301.677 136.86 301.674 136.864 301.673 136.869C301.672 136.874 301.672 136.879 301.672 136.884L302.11 141.321C302.111 141.33 302.116 141.338 302.123 141.344C302.13 141.35 302.139 141.354 302.148 141.354Z" fill="#0C0C0C"/>
<path d="M301.576 137.975H297.119V143.488H301.576V137.975Z" fill="white"/>
<path d="M299.751 140.732C299.751 140.367 299.858 140.012 300.059 139.709C300.259 139.406 300.545 139.17 300.878 139.031C301.212 138.892 301.579 138.855 301.933 138.927C302.287 138.998 302.612 139.173 302.867 139.43C303.122 139.688 303.296 140.016 303.367 140.373C303.437 140.73 303.401 141.1 303.263 141.437C303.124 141.773 302.89 142.06 302.59 142.263C302.29 142.465 301.937 142.573 301.576 142.573C301.092 142.572 300.628 142.378 300.286 142.033C299.944 141.688 299.751 141.22 299.751 140.732ZM300.499 140.732C300.499 140.946 300.562 141.157 300.68 141.335C300.799 141.514 300.967 141.653 301.164 141.736C301.361 141.818 301.577 141.839 301.786 141.797C301.995 141.756 302.187 141.652 302.338 141.5C302.489 141.348 302.592 141.154 302.633 140.944C302.675 140.733 302.653 140.514 302.572 140.316C302.49 140.117 302.352 139.947 302.175 139.828C301.998 139.708 301.789 139.645 301.576 139.645C301.29 139.645 301.017 139.76 300.815 139.963C300.612 140.167 300.499 140.443 300.499 140.732Z" fill="white"/>
<path d="M301.541 141.414C301.556 141.32 301.603 141.235 301.674 141.174C301.745 141.112 301.835 141.077 301.928 141.076C301.926 141.072 301.924 141.068 301.923 141.063L301.79 141.034C301.698 141.016 301.614 140.966 301.554 140.892C301.494 140.819 301.461 140.727 301.46 140.632C301.461 140.572 301.475 140.514 301.501 140.46C301.527 140.406 301.565 140.359 301.611 140.322C301.658 140.285 301.712 140.259 301.769 140.245C301.827 140.232 301.887 140.231 301.944 140.244L302.258 140.312C302.258 140.311 302.258 140.31 302.258 140.308C302.258 140.306 302.259 140.303 302.26 140.301C302.179 140.262 302.113 140.197 302.073 140.116C302.033 140.034 302.021 139.941 302.04 139.852C302.074 139.619 302.352 139.542 302.556 139.586L303.367 139.733L303.093 139.55C303.007 139.489 302.946 139.398 302.924 139.295C302.902 139.191 302.919 139.083 302.973 138.992C303.002 138.946 303.041 138.906 303.086 138.876C303.131 138.845 303.181 138.824 303.235 138.814C303.288 138.804 303.343 138.805 303.396 138.817C303.449 138.829 303.499 138.851 303.543 138.883L306.812 142.656L306.086 142.324C305.861 142.658 305.541 142.917 305.169 143.067C304.797 143.217 304.389 143.252 303.998 143.166L302.225 142.777C302.132 142.758 302.049 142.708 301.989 142.635C301.929 142.562 301.896 142.469 301.895 142.374C301.896 142.289 301.925 142.205 301.976 142.137C302.028 142.069 302.099 142.019 302.181 141.994C302.178 141.988 302.178 141.982 302.178 141.975C302.179 141.969 302.182 141.963 302.186 141.958C302.189 141.953 302.194 141.949 302.2 141.947L301.873 141.876C301.77 141.855 301.678 141.796 301.616 141.711C301.555 141.625 301.528 141.519 301.541 141.414Z" fill="#E98862"/>
<path opacity="0.2" d="M302.851 140.445C302.859 140.443 302.867 140.438 302.872 140.431C302.878 140.425 302.881 140.416 302.881 140.407C302.88 140.398 302.877 140.39 302.872 140.383C302.866 140.377 302.858 140.372 302.849 140.371L302.301 140.277C302.296 140.276 302.291 140.276 302.286 140.277C302.281 140.278 302.276 140.28 302.272 140.283C302.268 140.286 302.264 140.289 302.261 140.294C302.259 140.298 302.257 140.303 302.256 140.308C302.255 140.313 302.255 140.318 302.256 140.323C302.258 140.328 302.26 140.333 302.263 140.337C302.266 140.341 302.27 140.344 302.274 140.347C302.278 140.349 302.283 140.351 302.288 140.352L302.837 140.445C302.841 140.446 302.846 140.446 302.851 140.445Z" fill="#0C0C0C"/>
<path opacity="0.2" d="M302.719 141.226C302.728 141.224 302.735 141.22 302.741 141.213C302.746 141.206 302.749 141.197 302.749 141.188C302.749 141.18 302.746 141.171 302.74 141.165C302.735 141.158 302.727 141.153 302.718 141.152L301.967 141.018C301.962 141.016 301.956 141.016 301.951 141.017C301.946 141.018 301.942 141.02 301.937 141.023C301.933 141.026 301.929 141.029 301.927 141.034C301.924 141.038 301.922 141.043 301.921 141.048C301.92 141.053 301.92 141.058 301.921 141.063C301.923 141.068 301.925 141.073 301.928 141.077C301.931 141.081 301.935 141.085 301.939 141.087C301.943 141.09 301.948 141.091 301.953 141.092L302.705 141.226C302.71 141.227 302.715 141.227 302.719 141.226Z" fill="#0C0C0C"/>
<path opacity="0.2" d="M302.58 142.073C302.589 142.071 302.597 142.066 302.602 142.059C302.608 142.052 302.611 142.044 302.61 142.035C302.61 142.026 302.607 142.017 302.601 142.011C302.595 142.004 302.587 142 302.578 141.998L302.222 141.944C302.212 141.943 302.203 141.945 302.195 141.951C302.188 141.957 302.183 141.966 302.181 141.976C302.18 141.985 302.182 141.995 302.187 142.003C302.193 142.011 302.201 142.016 302.211 142.018L302.567 142.073C302.572 142.074 302.576 142.074 302.58 142.073Z" fill="#0C0C0C"/>
<path d="M321.057 140.947C319.052 143.856 316.17 146.035 312.839 147.161L312.837 147.159C312.097 147.013 305.04 144.203 304.106 144.018L305.128 139.212C307.751 139.739 312.534 141.768 315.172 142.296L313.311 133.787C313.244 133.411 313.251 133.025 313.333 132.652C313.414 132.279 313.568 131.926 313.786 131.613C314.004 131.301 314.281 131.035 314.601 130.831C314.922 130.628 315.279 130.49 315.653 130.427C316.026 130.363 316.408 130.375 316.777 130.462C317.146 130.549 317.494 130.709 317.802 130.932C318.109 131.156 318.369 131.438 318.567 131.764C318.765 132.09 318.897 132.452 318.955 132.829L321.057 140.947Z" fill="#EA394A"/>
<path d="M317.172 142.923C317.181 142.922 317.19 142.919 317.197 142.912C317.204 142.905 317.209 142.897 317.209 142.887C317.21 142.877 317.207 142.868 317.201 142.86C317.195 142.853 317.187 142.848 317.178 142.846L315.194 142.167C315.189 142.167 315.184 142.167 315.179 142.168C315.174 142.169 315.17 142.171 315.166 142.174C315.162 142.177 315.158 142.181 315.156 142.186C315.153 142.19 315.151 142.195 315.151 142.2C315.149 142.21 315.152 142.22 315.158 142.228C315.164 142.237 315.173 142.242 315.183 142.244L317.166 142.922C317.168 142.922 317.17 142.923 317.172 142.923Z" fill="#0C0C0C"/>
<path d="M315.225 142.2C315.226 142.212 315.222 142.224 315.215 142.233C315.211 142.237 315.205 142.241 315.2 142.242C315.194 142.244 315.188 142.245 315.182 142.244L305.191 139.27L304.19 144L312.793 147.174C312.766 147.183 312.738 147.192 312.712 147.201C312.693 147.208 312.674 147.214 312.653 147.219L304.134 144.065C304.125 144.062 304.116 144.056 304.111 144.047C304.106 144.039 304.104 144.028 304.106 144.019L305.128 139.213C305.129 139.208 305.131 139.203 305.134 139.199C305.137 139.195 305.141 139.192 305.146 139.189C305.15 139.186 305.155 139.184 305.16 139.184C305.165 139.183 305.17 139.183 305.175 139.184L315.141 142.162L314.013 137.47C314.012 137.46 314.014 137.45 314.02 137.442C314.026 137.434 314.035 137.429 314.045 137.427C314.05 137.426 314.055 137.426 314.06 137.427C314.065 137.428 314.069 137.43 314.073 137.433C314.078 137.436 314.081 137.439 314.084 137.444C314.087 137.448 314.088 137.453 314.089 137.458L315.225 142.2Z" fill="#0C0C0C"/>
<path d="M184.951 136.069C184.942 136.069 184.933 136.068 184.924 136.064C184.916 136.06 184.908 136.055 184.902 136.049C184.895 136.042 184.89 136.034 184.887 136.026C184.883 136.017 184.881 136.008 184.881 135.999C184.881 135.989 184.883 135.98 184.887 135.972L187.622 129.415C187.629 129.398 187.643 129.384 187.66 129.377C187.677 129.37 187.697 129.37 187.714 129.378C187.731 129.385 187.744 129.399 187.751 129.416C187.758 129.433 187.758 129.453 187.751 129.47L185.016 136.026C185.01 136.039 185.001 136.05 184.99 136.058C184.978 136.065 184.965 136.069 184.951 136.069Z" fill="#0C0C0C"/>
<path d="M201.047 136.144H201.044C201.035 136.145 201.026 136.143 201.017 136.14C201.008 136.137 201 136.132 200.994 136.126C200.987 136.12 200.981 136.112 200.978 136.104C200.974 136.095 200.971 136.086 200.971 136.077L200.666 129.371C200.665 129.353 200.672 129.335 200.684 129.321C200.697 129.307 200.714 129.299 200.732 129.297C200.741 129.297 200.75 129.298 200.759 129.302C200.768 129.305 200.776 129.31 200.783 129.316C200.789 129.322 200.795 129.33 200.799 129.338C200.803 129.346 200.805 129.355 200.805 129.365L201.111 136.071C201.112 136.089 201.106 136.107 201.094 136.12C201.082 136.134 201.065 136.143 201.047 136.144Z" fill="#0C0C0C"/>
</g>
<defs>
<clipPath id="clip0_209_2341">
<rect width="155.695" height="109" fill="white" transform="translate(176.762 39)"/>
</clipPath>
</defs>
</svg>
