<svg width="541" height="309" viewBox="0 0 541 309" fill="none" xmlns="http://www.w3.org/2000/svg">
<path d="M526.936 119.649L521.208 134.679L525.269 136.307L530.997 121.277L526.936 119.649Z" fill="#367CFF"/>
<path d="M169.11 82.7924L165.862 85.7759L176.359 97.797L179.607 94.8135L169.11 82.7924Z" fill="#0CBC8B"/>
<path d="M217.24 136.597L204.646 146.271L207.26 149.851L219.854 140.176L217.24 136.597Z" fill="#367CFF"/>
<path d="M362.897 25.5767L359.909 28.8335L371.369 39.8929L374.357 36.6362L362.897 25.5767Z" fill="#367CFF"/>
<path d="M279.574 29.1731L271.731 43.1641L275.512 45.3929L283.354 31.4019L279.574 29.1731Z" fill="#0CBC8B"/>
<path d="M393.454 148.818L389.767 151.205L398.164 164.852L401.851 162.465L393.454 148.818Z" fill="#0CBC8B"/>
<path d="M222.467 215.274L218.566 217.273L225.599 231.709L229.499 229.711L222.467 215.274Z" fill="#0CBC8B"/>
<path d="M165.399 177.29L160.881 192.748L165.057 194.032L169.575 178.574L165.399 177.29Z" fill="#367CFF"/>
<path d="M438.355 225.459L425.287 234.447L427.716 238.161L440.784 229.173L438.355 225.459Z" fill="#367CFF"/>
<path d="M440.312 0.000156653L432.47 13.9907L436.25 16.2195L444.092 2.22889L440.312 0.000156653Z" fill="#0CBC8B"/>
<path d="M4.43222 114.458L0.371094 116.086L6.09931 131.117L10.1604 129.489L4.43222 114.458Z" fill="#0CBC8B"/>
<path d="M426.004 95.8901L423.389 99.4697L435.983 109.144L438.597 105.565L426.004 95.8901Z" fill="#0CBC8B"/>
<path d="M72.252 29.9528L60.7925 41.0122L63.7806 44.269L75.2401 33.2095L72.252 29.9528Z" fill="#367CFF"/>
<path d="M199.178 16.7829L195.398 19.0117L203.24 33.0027L207.021 30.7738L199.178 16.7829Z" fill="#367CFF"/>
<path d="M44.9929 192.446L36.5957 206.094L40.2832 208.48L48.6804 194.833L44.9929 192.446Z" fill="#0CBC8B"/>
<path d="M7.79931 229.831L5.37061 233.547L18.4462 242.536L20.8749 238.82L7.79931 229.831Z" fill="#367CFF"/>
<path d="M512.265 51.6126L508.485 53.8413L516.327 67.8319L520.107 65.6032L512.265 51.6126Z" fill="#367CFF"/>
<path d="M348.438 89.7406L337.94 101.762L341.188 104.745L351.686 92.724L348.438 89.7406Z" fill="#367CFF"/>
<path d="M256.281 225.239L249.249 239.675L253.149 241.674L260.181 227.238L256.281 225.239Z" fill="#0CBC8B"/>
<path d="M313.35 187.256L309.174 188.54L313.693 203.997L317.869 202.713L313.35 187.256Z" fill="#367CFF"/>
<path d="M314.756 196.077L299.894 184.491C299.568 184.236 299.193 184.054 298.794 183.957C298.395 183.859 297.981 183.847 297.577 183.923C297.174 183.998 296.79 184.159 296.45 184.395C296.111 184.63 295.822 184.936 295.604 185.292C295.222 185.963 295.095 186.755 295.25 187.516C295.405 188.277 295.829 188.951 296.441 189.409L299.628 191.894L286.111 188.799C284.614 188.428 282.545 188.955 282.25 190.705C282.094 191.37 282.162 192.071 282.444 192.692C282.725 193.312 283.204 193.817 283.801 194.123C283.794 194.137 283.789 194.151 283.785 194.166C283.784 194.177 283.784 194.189 283.785 194.2L281.476 193.629C281.048 193.523 280.603 193.516 280.172 193.61C279.742 193.703 279.337 193.893 278.988 194.167C278.638 194.441 278.352 194.792 278.152 195.193C277.951 195.595 277.84 196.037 277.827 196.488C277.821 197.198 278.053 197.89 278.483 198.446C278.914 199.002 279.519 199.39 280.195 199.544L281.176 199.788C281.182 199.82 281.194 199.851 281.211 199.879C280.51 199.873 279.83 200.123 279.292 200.583C278.754 201.044 278.393 201.686 278.274 202.395C278.166 203.174 278.349 203.966 278.785 204.613C279.222 205.26 279.88 205.715 280.629 205.886L283.069 206.491C283.029 206.508 282.994 206.534 282.965 206.567C282.937 206.6 282.916 206.64 282.906 206.683C282.896 206.735 282.901 206.789 282.921 206.838C282.295 207.01 281.741 207.388 281.345 207.914C280.95 208.441 280.733 209.085 280.73 209.75C280.74 210.448 280.979 211.122 281.409 211.663C281.839 212.204 282.435 212.58 283.099 212.731L303.688 217.832C306.568 218.546 309.591 218.361 312.368 217.301C315.145 216.242 317.55 214.356 319.276 211.885C320.764 209.755 321.383 207.114 321.002 204.523C320.621 201.932 319.27 199.595 317.235 198.009L314.756 196.077Z" fill="#E98862"/>
<g opacity="0.2">
<path opacity="0.2" d="M297.165 197.255C297.148 197.326 297.104 197.387 297.044 197.425C296.983 197.463 296.91 197.476 296.841 197.46L283.989 194.497C283.954 194.489 283.921 194.474 283.891 194.453C283.862 194.432 283.837 194.405 283.818 194.374C283.799 194.343 283.786 194.308 283.78 194.272C283.774 194.236 283.775 194.199 283.783 194.163C283.79 194.127 283.805 194.093 283.826 194.063C283.846 194.033 283.873 194.008 283.903 193.988C283.933 193.968 283.967 193.955 284.002 193.949C284.037 193.943 284.074 193.944 284.108 193.952L296.96 196.914C296.995 196.922 297.028 196.937 297.058 196.959C297.087 196.98 297.112 197.007 297.131 197.038C297.15 197.069 297.163 197.104 297.169 197.14C297.175 197.177 297.174 197.214 297.166 197.25L297.165 197.255Z" fill="#0C0C0C"/>
</g>
<g opacity="0.2">
<path opacity="0.2" d="M296.05 203.104C296.033 203.176 295.989 203.237 295.927 203.276C295.866 203.314 295.793 203.326 295.723 203.309L281.38 200.006C281.345 199.998 281.312 199.982 281.282 199.961C281.253 199.94 281.228 199.913 281.209 199.882C281.19 199.851 281.177 199.816 281.171 199.78C281.165 199.743 281.166 199.706 281.174 199.67C281.192 199.599 281.236 199.537 281.297 199.498C281.357 199.459 281.43 199.445 281.501 199.459L295.844 202.763C295.879 202.771 295.912 202.786 295.941 202.807C295.971 202.828 295.996 202.855 296.015 202.886C296.034 202.917 296.047 202.952 296.053 202.989C296.059 203.025 296.058 203.062 296.05 203.098V203.104Z" fill="#0C0C0C"/>
</g>
<g opacity="0.2">
<path opacity="0.2" d="M294.877 209.447C294.859 209.518 294.816 209.579 294.755 209.617C294.695 209.655 294.622 209.668 294.552 209.652L283.111 207.017C283.041 207 282.979 206.956 282.941 206.894C282.902 206.831 282.889 206.755 282.905 206.683C282.921 206.61 282.964 206.547 283.025 206.508C283.086 206.468 283.16 206.455 283.231 206.471L294.672 209.106C294.707 209.114 294.74 209.129 294.769 209.15C294.799 209.172 294.824 209.199 294.843 209.23C294.862 209.261 294.875 209.296 294.881 209.332C294.887 209.368 294.886 209.406 294.878 209.442L294.877 209.447Z" fill="#0C0C0C"/>
</g>
<path d="M244.2 116.385L252.498 99.2343C252.68 98.8575 252.937 98.5237 253.252 98.2542C253.567 97.9848 253.933 97.7855 254.327 97.6692C254.722 97.5529 255.135 97.522 255.542 97.5786C255.948 97.6352 256.338 97.778 256.688 97.9978C257.322 98.424 257.779 99.0764 257.97 99.8284C258.161 100.58 258.074 101.378 257.724 102.068L255.944 105.745L266.714 96.8167C267.894 95.8021 269.976 95.332 270.998 96.7652C271.426 97.2904 271.668 97.949 271.685 98.6336C271.701 99.3181 271.491 99.9882 271.089 100.535C271.101 100.544 271.112 100.554 271.122 100.565C271.128 100.575 271.133 100.585 271.138 100.596L272.959 99.0308C273.296 98.7413 273.692 98.5326 274.118 98.42C274.544 98.3074 274.989 98.2937 275.421 98.3798C275.853 98.466 276.26 98.6499 276.614 98.9181C276.968 99.1863 277.259 99.5321 277.466 99.9303C277.779 100.564 277.871 101.289 277.726 101.984C277.581 102.679 277.207 103.301 276.668 103.748L275.893 104.413C275.902 104.445 275.905 104.478 275.901 104.511C276.527 104.186 277.244 104.1 277.926 104.267C278.607 104.435 279.209 104.846 279.622 105.426C280.056 106.075 280.235 106.868 280.124 107.647C280.013 108.426 279.619 109.133 279.022 109.627L277.098 111.28C277.141 111.276 277.185 111.283 277.225 111.3C277.265 111.317 277.301 111.343 277.329 111.377C277.36 111.42 277.379 111.47 277.383 111.523C278.019 111.392 278.678 111.479 279.261 111.77C279.843 112.061 280.316 112.54 280.607 113.134C280.901 113.764 280.978 114.477 280.827 115.157C280.676 115.838 280.305 116.446 279.775 116.884L263.538 130.833C261.267 132.785 258.479 133.996 255.532 134.312C252.585 134.628 249.613 134.033 246.997 132.606C244.742 131.375 243.044 129.291 242.263 126.796C241.482 124.301 241.681 121.593 242.816 119.246L244.2 116.385Z" fill="#E98862"/>
<g opacity="0.2">
<path opacity="0.2" d="M260.472 109.427C260.518 109.483 260.584 109.518 260.655 109.525C260.727 109.532 260.798 109.51 260.853 109.463L271.086 100.956C271.142 100.91 271.178 100.842 271.185 100.768C271.193 100.694 271.171 100.621 271.126 100.563C271.08 100.505 271.014 100.469 270.942 100.461C270.871 100.453 270.799 100.475 270.742 100.522L260.51 109.029C260.454 109.075 260.419 109.142 260.411 109.216C260.404 109.289 260.425 109.362 260.47 109.42L260.472 109.427Z" fill="#0C0C0C"/>
</g>
<g opacity="0.2">
<path opacity="0.2" d="M264.003 114.159C264.049 114.215 264.115 114.251 264.187 114.257C264.258 114.264 264.329 114.241 264.385 114.195L275.804 104.701C275.86 104.655 275.895 104.587 275.903 104.514C275.91 104.441 275.889 104.368 275.844 104.31C275.797 104.255 275.732 104.22 275.661 104.213C275.591 104.205 275.52 104.225 275.463 104.269L264.039 113.76C263.984 113.807 263.948 113.874 263.94 113.948C263.933 114.021 263.954 114.094 263.999 114.152L264.003 114.159Z" fill="#0C0C0C"/>
</g>
<g opacity="0.2">
<path opacity="0.2" d="M267.804 119.306C267.85 119.362 267.916 119.398 267.987 119.405C268.059 119.411 268.13 119.389 268.186 119.342L277.295 111.77C277.351 111.723 277.387 111.655 277.394 111.582C277.402 111.508 277.38 111.434 277.335 111.376C277.289 111.319 277.223 111.282 277.151 111.274C277.079 111.267 277.008 111.289 276.951 111.335L267.84 118.908C267.784 118.955 267.749 119.022 267.741 119.095C267.734 119.168 267.755 119.242 267.8 119.299L267.804 119.306Z" fill="#0C0C0C"/>
</g>
<path d="M57.98 101.68C57.98 101.68 56.8098 119.688 52.8599 126.22C41.4871 145.029 38.1923 166.188 49.5809 177.243C60.9696 188.298 133.61 188.451 139.113 163.025C143.746 141.618 133.804 139.316 131.385 121.659C130.29 113.669 127.279 96.9146 127.279 96.9146" fill="#0A0A0A"/>
<path d="M120.313 159.297C120.188 159.28 118.796 182.96 91.9741 180.895C73.4056 179.468 66.785 159.262 66.3599 159.262C68.3618 158.826 71.7329 158.191 72.6218 157.704C75.546 156.093 79.1623 154.416 80.1064 148.593C80.6514 145.239 79.7275 128.066 80.0115 124.668L108.514 131.195C108.115 138.367 105.328 154.994 115.098 157.936C116.723 158.424 118.475 158.872 120.313 159.297Z" fill="#E98862"/>
<path opacity="0.5" d="M108.913 151.142C108.466 149.666 108.179 148.145 108.055 146.605C107.742 143.091 107.805 139.553 108.242 136.053C102.449 135.251 96.9918 132.799 92.4902 128.975C91.9609 130.979 89.0499 139.739 89.856 141.644C91.3783 145.245 98.5363 151.142 108.913 151.142Z" fill="#0C0C0C"/>
<path d="M105.228 143.765C93.9907 144.883 79.4512 140.27 76.4393 124.922L73.7217 111.074C70.7098 95.726 76.1281 81.6617 90.2179 78.7533C104.308 75.8465 117.281 86.1124 120.293 101.461L121.497 107.592C122.652 113.481 125.278 141.775 105.228 143.765Z" fill="#E98862"/>
<path opacity="0.1" d="M98.0858 123.653C99.9351 123.427 101.303 122.115 101.141 120.724C100.979 119.333 99.3491 118.389 97.4998 118.615C95.6505 118.841 94.2826 120.153 94.4444 121.544C94.6062 122.935 96.2366 123.879 98.0858 123.653Z" fill="#0C0C0C"/>
<path opacity="0.1" d="M117.627 118.091C117.79 119.48 119.422 120.423 121.272 120.2C121.591 120.16 121.906 120.087 122.211 119.981C122.297 118.325 122.302 116.732 122.255 115.257C121.741 115.125 121.208 115.093 120.683 115.162C118.834 115.386 117.466 116.697 117.627 118.091Z" fill="#0C0C0C"/>
<path opacity="0.5" d="M109.455 122.385C109.464 122.384 109.473 122.382 109.482 122.38C110.053 122.258 110.617 122.104 111.171 121.918C111.999 121.634 113.079 121.168 112.931 120.4C112.76 119.526 108.571 110.573 108.095 109.556C108.076 109.51 108.048 109.468 108.012 109.434C107.977 109.4 107.935 109.373 107.889 109.355C107.843 109.338 107.795 109.33 107.746 109.332C107.697 109.335 107.649 109.347 107.605 109.369C107.561 109.39 107.522 109.421 107.49 109.458C107.458 109.496 107.433 109.54 107.418 109.587C107.402 109.635 107.397 109.685 107.401 109.735C107.405 109.785 107.418 109.833 107.441 109.878C109.227 113.691 112.104 119.96 112.22 120.548C112.129 120.823 110.757 121.359 109.34 121.652C109.293 121.66 109.248 121.677 109.208 121.702C109.167 121.728 109.132 121.762 109.104 121.801C109.076 121.841 109.056 121.886 109.045 121.933C109.034 121.981 109.033 122.03 109.04 122.078C109.048 122.126 109.064 122.172 109.089 122.214C109.114 122.256 109.147 122.292 109.186 122.32C109.224 122.349 109.268 122.369 109.314 122.381C109.361 122.392 109.409 122.394 109.456 122.386L109.455 122.385Z" fill="#0C0C0C"/>
<path d="M62.4792 116.046L75.1111 113.515C84.6532 109.423 87.3604 92.3675 87.3604 92.3675C87.3604 92.3675 99.1365 103.87 127.281 96.9144C127.281 96.9144 121.168 56.6188 79.6093 68.8529C66.2095 72.7966 56.7176 86.805 58.1293 105.359C59.1185 118.358 62.4792 116.046 62.4792 116.046Z" fill="#0A0A0A"/>
<path d="M78.2317 129.418C73.9499 130.301 69.5569 126.32 68.6935 121.927C67.8302 117.535 70.8279 114.398 75.1098 113.513L77.8938 116.001L81.9124 128.657L78.2317 129.418Z" fill="#E98862"/>
<path d="M111.131 102.416C112.202 101.639 113.455 101.167 114.762 101.048C115.419 100.983 116.081 101.021 116.727 101.159C117.378 101.296 118.01 101.515 118.608 101.812L118.627 101.821C118.693 101.851 118.768 101.854 118.836 101.828C118.904 101.802 118.959 101.749 118.99 101.682C119.02 101.615 119.024 101.538 119.001 101.468C118.977 101.398 118.927 101.34 118.863 101.307C118.229 100.963 117.556 100.704 116.859 100.533C116.157 100.358 115.434 100.292 114.713 100.338C113.253 100.42 111.842 100.903 110.625 101.735C110.58 101.767 110.541 101.807 110.511 101.854C110.481 101.901 110.46 101.954 110.45 102.009C110.44 102.064 110.44 102.121 110.451 102.176C110.462 102.231 110.484 102.283 110.515 102.329C110.545 102.376 110.585 102.415 110.631 102.446C110.677 102.477 110.728 102.498 110.782 102.509C110.835 102.519 110.891 102.518 110.944 102.507C110.998 102.495 111.049 102.473 111.094 102.441L111.104 102.435L111.131 102.416Z" fill="#0C0C0C"/>
<path d="M99.5915 104.052C98.1571 103.759 96.6723 103.867 95.2922 104.363C94.61 104.604 93.967 104.949 93.3846 105.385C92.8044 105.817 92.2796 106.321 91.8225 106.887C91.7763 106.943 91.7532 107.016 91.7579 107.089C91.7627 107.162 91.7949 107.231 91.8479 107.28C91.9009 107.33 91.9706 107.357 92.0422 107.355C92.1139 107.353 92.182 107.322 92.2324 107.27L92.2471 107.254C92.6881 106.745 93.1899 106.294 93.7405 105.913C94.2854 105.531 94.8833 105.237 95.514 105.039C96.7659 104.636 98.0997 104.58 99.3795 104.877L99.4111 104.885C99.5185 104.912 99.6318 104.894 99.7262 104.835C99.8205 104.776 99.8881 104.681 99.9142 104.57C99.9402 104.46 99.9225 104.344 99.8649 104.247C99.8074 104.151 99.7147 104.081 99.6073 104.055L99.5915 104.052Z" fill="#0C0C0C"/>
<path d="M75.1188 113.302C83.61 110.06 86.4279 104.046 87.2956 99.5706C87.8572 96.586 87.8047 93.5139 87.1413 90.5513L86.8786 90.6256C87.532 93.5496 87.5825 96.5813 87.0269 99.5265C86.1701 103.929 83.3925 109.846 75.0234 113.041L75.1188 113.302Z" fill="#0C0C0C"/>
<path d="M142.158 162.113L222.784 189.754L199.112 200.545L239.315 115.958L272.172 131.663L234.871 217.636C232.984 221.984 229.636 225.49 225.436 227.514C221.237 229.538 216.468 229.945 212 228.661L211.199 228.428L129.352 204.861L142.158 162.113Z" fill="#367CFF"/>
<path d="M91.4738 174.976C72.8923 174.077 72.1101 157.902 72.1101 157.902C72.1101 157.902 62.9033 158.513 56.783 159.362C46.763 160.752 40.1527 164.237 34.892 169.632C29.9986 174.651 27.0194 180.081 30.1719 214.749C32.4546 239.851 30.8483 295.064 30.8483 295.064H144.081C144.081 295.064 151.988 215.296 152.925 203.998C154.714 182.427 159.768 177.665 149.528 166.553C142.102 158.495 122.93 157.902 115.213 157.903C115.087 157.903 116.779 176.199 91.4738 174.976Z" fill="#367CFF"/>
<path d="M113.221 125.41C109.57 127.314 105.404 127.916 101.382 127.121C101.243 127.094 101.099 127.109 100.968 127.163C100.836 127.217 100.722 127.308 100.639 127.426C100.556 127.543 100.508 127.683 100.499 127.828C100.491 127.973 100.523 128.118 100.591 128.245C101.791 130.411 104.635 134.114 109.514 132.605C112.664 131.63 113.855 128.306 114.297 126.25C114.327 126.107 114.317 125.959 114.268 125.823C114.219 125.686 114.133 125.567 114.02 125.479C113.907 125.39 113.772 125.337 113.63 125.325C113.489 125.313 113.347 125.342 113.221 125.41Z" fill="white"/>
<path d="M113.45 108.757C114.425 108.757 115.215 107.946 115.215 106.947C115.215 105.948 114.425 105.138 113.45 105.138C112.476 105.138 111.686 105.948 111.686 106.947C111.686 107.946 112.476 108.757 113.45 108.757Z" fill="#0C0C0C"/>
<path d="M96.4957 111.801C97.4701 111.801 98.26 110.99 98.26 109.991C98.26 108.992 97.4701 108.182 96.4957 108.182C95.5213 108.182 94.7314 108.992 94.7314 109.991C94.7314 110.99 95.5213 111.801 96.4957 111.801Z" fill="#0C0C0C"/>
<path d="M152.674 211.857C152.662 211.858 152.651 211.858 152.639 211.857C152.568 211.848 152.503 211.81 152.458 211.752C152.414 211.693 152.394 211.619 152.403 211.546L154.156 196.969C154.16 196.932 154.171 196.896 154.188 196.864C154.206 196.832 154.229 196.804 154.258 196.781C154.286 196.758 154.319 196.742 154.353 196.732C154.388 196.723 154.424 196.721 154.46 196.726C154.495 196.73 154.53 196.742 154.561 196.76C154.592 196.778 154.619 196.803 154.641 196.831C154.664 196.86 154.68 196.894 154.689 196.929C154.699 196.964 154.701 197.001 154.697 197.038L152.944 211.615C152.935 211.682 152.903 211.743 152.853 211.788C152.804 211.833 152.74 211.857 152.674 211.857Z" fill="#0C0C0C"/>
<path d="M439.291 99.3758C439.291 99.3758 432.537 91.5963 433.321 77.0272C433.927 65.7467 442.411 74.8695 442.411 74.8695C442.411 74.8695 442.925 66.7513 448.389 68.6842C453.852 70.6172 455.387 79.569 455.387 79.569" fill="#0C0C0C"/>
<path d="M477.252 75.5464C477.252 75.5464 504.533 84.3108 486.926 120.993L484.427 120.657L479.353 119.978" fill="#0C0C0C"/>
<path d="M438.442 159.238C438.568 159.221 439.954 182.822 466.687 180.764C485.194 179.342 491.793 159.205 492.217 159.205C490.222 158.769 486.862 158.137 485.975 157.652C483.061 156.046 479.456 154.375 478.516 148.571C477.975 145.225 478.893 128.112 478.611 124.727L450.202 131.229C450.6 138.378 453.378 154.95 443.64 157.883C442.02 158.368 440.273 158.814 438.442 159.238Z" fill="#E98862"/>
<path opacity="0.52" d="M449.804 151.11C450.249 149.639 450.535 148.123 450.658 146.588C450.971 143.086 450.909 139.559 450.473 136.071C456.247 135.272 461.687 132.827 466.174 129.016C466.701 131.014 469.602 139.744 468.799 141.643C467.281 145.233 460.146 151.11 449.804 151.11Z" fill="#0C0C0C"/>
<path d="M453.21 143.118C464.398 144.354 478.936 139.92 482.101 124.658L484.956 110.886C488.117 95.6253 482.868 81.5459 468.855 78.491C454.843 75.4361 441.805 85.5259 438.642 100.789L437.378 106.886C436.98 108.987 436.722 111.113 436.605 113.25C436.257 118.896 435.749 127.485 438.289 133.884C440.687 139.926 446.063 142.328 453.21 143.118Z" fill="#E98862"/>
<path d="M444.324 107.956C445.299 107.956 446.089 107.146 446.089 106.146C446.089 105.147 445.299 104.337 444.324 104.337C443.35 104.337 442.56 105.147 442.56 106.146C442.56 107.146 443.35 107.956 444.324 107.956Z" fill="#0C0C0C"/>
<path d="M461.081 109.765C462.055 109.765 462.845 108.955 462.845 107.956C462.845 106.957 462.055 106.146 461.081 106.146C460.106 106.146 459.316 106.957 459.316 107.956C459.316 108.955 460.106 109.765 461.081 109.765Z" fill="#0C0C0C"/>
<path d="M480.267 129.118C484.525 130.046 488.946 126.127 489.851 121.759C490.756 117.392 487.803 114.231 483.545 113.303L480.744 115.751L476.606 128.32L480.267 129.118Z" fill="#E98862"/>
<path d="M477.392 121.214C477.392 121.214 480.159 99.2676 474.016 96.6219C469.929 94.8599 458.382 98.9484 449.169 95.1176C445.139 93.4406 440.955 93.6922 440.156 95.6391C439.839 96.41 439.474 84.3279 447.738 76.9045C454.318 70.9937 471.795 72.5181 479.128 76.3964C499.431 87.1341 484.245 114.436 484.245 114.436L481.833 121.703L477.392 121.214Z" fill="#0C0C0C"/>
<g opacity="0.52">
<path opacity="0.52" d="M448.915 122.784L448.887 122.78C447.514 122.484 445.243 121.83 445.457 120.778C445.637 119.906 449.894 110.985 450.379 109.971C450.421 109.884 450.495 109.817 450.584 109.786C450.674 109.754 450.772 109.761 450.857 109.804C450.942 109.846 451.007 109.922 451.038 110.014C451.069 110.106 451.062 110.207 451.021 110.294C449.132 114.244 446.279 120.336 446.157 120.929C446.241 121.208 447.612 121.756 449.033 122.062C449.122 122.083 449.2 122.138 449.252 122.215C449.303 122.293 449.323 122.388 449.307 122.481C449.292 122.573 449.243 122.656 449.17 122.713C449.097 122.769 449.006 122.795 448.915 122.784Z" fill="#0C0C0C"/>
</g>
<path d="M448.598 100.486C447.249 99.7882 445.741 99.4759 444.234 99.5824C443.493 99.6302 442.764 99.7917 442.07 100.061C441.383 100.325 440.732 100.677 440.131 101.108C440.03 101.173 439.959 101.277 439.932 101.396C439.906 101.515 439.926 101.64 439.988 101.744C440.051 101.848 440.15 101.923 440.266 101.952C440.382 101.981 440.504 101.962 440.606 101.9L440.638 101.882C441.189 101.531 441.78 101.253 442.399 101.054C443.008 100.854 443.644 100.751 444.284 100.746C445.549 100.727 446.796 101.051 447.9 101.686L447.941 101.711C448.019 101.758 448.104 101.789 448.193 101.802C448.282 101.816 448.373 101.811 448.46 101.788C448.547 101.765 448.629 101.724 448.701 101.669C448.773 101.613 448.833 101.544 448.878 101.464C448.924 101.385 448.954 101.297 448.966 101.205C448.978 101.114 448.973 101.021 448.95 100.932C448.927 100.843 448.887 100.759 448.832 100.686C448.777 100.612 448.709 100.551 448.631 100.505L448.598 100.486Z" fill="#0C0C0C"/>
<path d="M458.687 103.283C459.912 102.961 461.199 102.976 462.417 103.327C463.034 103.5 463.622 103.768 464.161 104.122C464.709 104.477 465.211 104.902 465.655 105.385L465.68 105.411C465.764 105.494 465.876 105.541 465.993 105.542C466.11 105.543 466.223 105.497 466.308 105.414C466.393 105.332 466.444 105.219 466.449 105.099C466.455 104.979 466.416 104.862 466.339 104.771C465.866 104.196 465.325 103.685 464.728 103.249C464.124 102.806 463.46 102.457 462.756 102.216C461.326 101.715 459.791 101.618 458.312 101.936C458.225 101.956 458.142 101.993 458.068 102.045C457.995 102.098 457.932 102.165 457.883 102.242C457.786 102.398 457.753 102.587 457.791 102.769C457.83 102.95 457.937 103.108 458.089 103.208C458.241 103.309 458.426 103.343 458.603 103.303L458.638 103.294L458.687 103.283Z" fill="#0C0C0C"/>
<path d="M446.755 126.17C450.729 127.188 454.921 126.819 458.667 125.121C458.797 125.063 458.94 125.044 459.08 125.067C459.22 125.089 459.351 125.152 459.458 125.248C459.564 125.343 459.642 125.468 459.682 125.608C459.722 125.747 459.722 125.895 459.683 126.035C458.986 128.422 457.023 132.687 451.939 132.333C448.655 132.107 446.77 129.14 445.889 127.237C445.828 127.105 445.805 126.958 445.823 126.813C445.841 126.668 445.899 126.532 445.99 126.42C446.081 126.307 446.201 126.224 446.337 126.18C446.473 126.136 446.618 126.132 446.755 126.17Z" fill="white"/>
<path d="M462.522 80.0317C464.421 75.4603 463.505 70.6818 460.477 69.3588C457.449 68.0357 453.455 70.669 451.556 75.2404C449.657 79.8118 450.573 84.5901 453.601 85.9132C456.629 87.2363 460.623 84.603 462.522 80.0317Z" fill="#0C0C0C"/>
<path d="M467.103 174.976C485.684 174.077 486.466 157.902 486.466 157.902C486.466 157.902 495.673 158.513 501.794 159.362C511.814 160.752 518.424 164.237 523.684 169.632C528.578 174.651 531.557 180.081 528.404 214.749C526.122 239.851 527.728 295.064 527.728 295.064H414.496C414.496 295.064 406.589 215.298 405.652 203.998C403.862 182.427 398.809 177.665 409.048 166.553C416.474 158.495 435.646 157.902 443.364 157.903C443.488 157.903 441.799 176.199 467.103 174.976Z" fill="#367CFF"/>
<path d="M405.384 171.549L376.108 235.202L318.374 190.675L295.443 221.949L371.891 280.909C372.575 281.431 373.29 281.908 374.031 282.34C376.216 283.595 378.62 284.397 381.106 284.699C383.592 285.001 386.112 284.799 388.522 284.102C390.932 283.405 393.185 282.229 395.151 280.639C397.118 279.05 398.76 277.079 399.984 274.838L400.315 274.233L444.98 192.47L405.384 171.549Z" fill="#367CFF"/>
<path d="M532.073 295.623H16.4186C16.274 295.623 16.1354 295.564 16.0332 295.459C15.931 295.354 15.8735 295.212 15.8735 295.064C15.8735 294.916 15.931 294.773 16.0332 294.669C16.1354 294.564 16.274 294.505 16.4186 294.505H532.073C532.217 294.505 532.356 294.564 532.458 294.669C532.56 294.773 532.618 294.916 532.618 295.064C532.618 295.212 532.56 295.354 532.458 295.459C532.356 295.564 532.217 295.623 532.073 295.623Z" fill="#292A2E"/>
<path d="M419.915 211.918H143.787V308.72H419.915V211.918Z" fill="white"/>
<path d="M420.187 309H143.514V211.639H420.187V309ZM144.059 308.441H419.642V212.198H144.059V308.441Z" fill="#0C0C0C"/>
<path d="M130.149 241.503L147.195 233.695C147.569 233.524 147.974 233.434 148.385 233.432C148.795 233.43 149.201 233.516 149.577 233.683C149.953 233.851 150.291 234.097 150.57 234.406C150.848 234.716 151.06 235.081 151.194 235.478C151.417 236.221 151.364 237.022 151.045 237.726C150.725 238.431 150.162 238.989 149.464 239.291L145.809 240.968L159.659 241.115C161.199 241.103 163.096 242.1 162.995 243.872C162.999 244.557 162.777 245.223 162.365 245.762C161.953 246.301 161.375 246.68 160.725 246.839C160.729 246.854 160.731 246.869 160.732 246.884C160.73 246.896 160.728 246.907 160.725 246.918L163.1 246.901C163.54 246.898 163.974 246.996 164.372 247.187C164.77 247.378 165.122 247.658 165.401 248.006C165.681 248.354 165.881 248.761 165.988 249.199C166.094 249.636 166.104 250.093 166.017 250.534C165.866 251.228 165.486 251.847 164.943 252.288C164.4 252.729 163.725 252.966 163.032 252.958L162.022 252.965C162.008 252.995 161.99 253.022 161.967 253.046C162.651 253.203 163.258 253.605 163.68 254.18C164.101 254.754 164.31 255.463 164.268 256.181C164.2 256.965 163.847 257.694 163.278 258.222C162.709 258.751 161.967 259.04 161.2 259.032L158.689 259.05C158.725 259.075 158.754 259.109 158.774 259.148C158.795 259.186 158.806 259.23 158.807 259.274C158.805 259.327 158.788 259.378 158.758 259.421C159.329 259.735 159.784 260.232 160.053 260.837C160.321 261.442 160.389 262.12 160.244 262.768C160.079 263.445 159.697 264.045 159.158 264.471C158.619 264.897 157.955 265.124 157.275 265.116L136.095 265.271C133.132 265.292 130.23 264.406 127.762 262.726C125.293 261.045 123.37 258.647 122.239 255.838C121.264 253.416 121.248 250.7 122.195 248.266C123.141 245.832 124.975 243.873 127.308 242.804L130.149 241.503Z" fill="#E98862"/>
<g opacity="0.2">
<path opacity="0.2" d="M147.016 246.761C147.017 246.834 147.046 246.905 147.097 246.956C147.148 247.008 147.217 247.037 147.288 247.037L160.46 247.158C160.532 247.159 160.601 247.13 160.653 247.078C160.705 247.026 160.734 246.955 160.735 246.881C160.735 246.807 160.707 246.735 160.656 246.683C160.606 246.63 160.537 246.6 160.465 246.599L147.293 246.477C147.221 246.477 147.151 246.506 147.1 246.559C147.049 246.611 147.021 246.682 147.021 246.757L147.016 246.761Z" fill="#0C0C0C"/>
</g>
<g opacity="0.2">
<path opacity="0.2" d="M146.802 252.719C146.803 252.793 146.832 252.863 146.883 252.915C146.934 252.966 147.003 252.995 147.075 252.995L161.774 253.131C161.846 253.131 161.915 253.101 161.966 253.049C162.018 252.997 162.046 252.926 162.046 252.851C162.044 252.778 162.014 252.708 161.964 252.657C161.913 252.605 161.845 252.574 161.774 252.572L147.075 252.436C147.039 252.436 147.003 252.443 146.969 252.457C146.936 252.47 146.906 252.491 146.88 252.517C146.855 252.543 146.834 252.574 146.82 252.608C146.806 252.642 146.799 252.679 146.799 252.716L146.802 252.719Z" fill="#0C0C0C"/>
</g>
<g opacity="0.2">
<path opacity="0.2" d="M146.538 259.167C146.539 259.24 146.568 259.31 146.619 259.362C146.67 259.413 146.738 259.442 146.81 259.442L158.536 259.551C158.608 259.551 158.677 259.523 158.729 259.471C158.781 259.419 158.81 259.348 158.811 259.274C158.811 259.2 158.783 259.128 158.732 259.075C158.682 259.022 158.613 258.992 158.54 258.992L146.815 258.883C146.743 258.883 146.673 258.913 146.622 258.965C146.571 259.018 146.543 259.089 146.543 259.163L146.538 259.167Z" fill="#0C0C0C"/>
</g>
<path d="M135.031 272.629L40.5275 294.662C37.3881 295.012 34.2122 294.612 31.249 293.492C28.2858 292.372 25.6159 290.563 23.4488 288.207C21.2817 285.852 19.6764 283.013 18.7588 279.914C17.8412 276.815 17.6363 273.54 18.1601 270.346L28.9748 181.13C29.8742 175.648 32.8603 170.756 37.2763 167.532C41.6922 164.307 47.1763 163.014 52.5219 163.937C57.8676 164.859 62.6371 167.922 65.781 172.451C68.925 176.98 70.186 182.604 69.2866 188.087L64.0787 251.943L129.737 236.704L135.031 272.629Z" fill="#367CFF"/>
<path d="M50.7898 254.452C50.7214 254.452 50.6557 254.425 50.6057 254.377C50.5558 254.329 50.5253 254.263 50.5203 254.193C50.5153 254.123 50.5361 254.054 50.5787 253.999C50.6212 253.944 50.6824 253.908 50.75 253.897L63.9188 251.013C63.9542 251.007 63.9904 251.008 64.0253 251.017C64.0602 251.026 64.093 251.041 64.1219 251.063C64.1507 251.085 64.175 251.113 64.1933 251.144C64.2116 251.176 64.2235 251.211 64.2283 251.248C64.239 251.321 64.2208 251.395 64.1779 251.455C64.135 251.514 64.0708 251.554 63.9994 251.565L50.8307 254.449C50.8172 254.451 50.8035 254.452 50.7898 254.452Z" fill="#0C0C0C"/>
<path d="M43.3621 295.064C43.2898 295.069 43.2186 295.044 43.1642 294.995C43.1098 294.946 43.0766 294.877 43.0719 294.802C43.0672 294.728 43.0914 294.655 43.1392 294.599C43.1869 294.544 43.2544 294.51 43.3267 294.505L134.437 272.497L129.274 237.112L64.0083 251.562C63.9661 251.568 63.9232 251.563 63.883 251.549C63.8429 251.534 63.8064 251.511 63.7766 251.48C63.7469 251.448 63.7248 251.41 63.7121 251.368C63.6994 251.326 63.6965 251.282 63.7036 251.239L67.3646 214.753C67.3701 214.717 67.3826 214.682 67.4015 214.651C67.4203 214.619 67.4451 214.592 67.4744 214.571C67.5037 214.549 67.5368 214.534 67.5719 214.526C67.607 214.518 67.6432 214.517 67.6786 214.524C67.7498 214.536 67.8134 214.577 67.8553 214.638C67.8972 214.698 67.914 214.773 67.902 214.846L64.3048 250.957L129.401 236.496C129.436 236.486 129.473 236.483 129.509 236.488C129.545 236.493 129.58 236.505 129.611 236.524C129.642 236.543 129.67 236.568 129.692 236.598C129.713 236.627 129.729 236.661 129.738 236.698L135.032 272.626C135.049 272.696 135.038 272.771 135.002 272.833C134.966 272.896 134.908 272.942 134.84 272.961L43.3975 295.061C43.3858 295.063 43.3739 295.064 43.3621 295.064Z" fill="#0C0C0C"/>
<path d="M428.425 258.273L411.38 250.465C411.006 250.294 410.6 250.204 410.19 250.202C409.78 250.2 409.374 250.286 408.998 250.453C408.622 250.621 408.284 250.867 408.006 251.176C407.727 251.486 407.515 251.851 407.382 252.248C407.158 252.991 407.211 253.792 407.53 254.497C407.85 255.201 408.413 255.759 409.111 256.061L412.766 257.738L398.916 257.885C397.376 257.873 395.479 258.87 395.58 260.642C395.576 261.327 395.798 261.993 396.21 262.532C396.622 263.071 397.2 263.451 397.85 263.609C397.846 263.624 397.844 263.639 397.843 263.654C397.845 263.666 397.847 263.677 397.85 263.688L395.475 263.671C395.036 263.668 394.601 263.766 394.203 263.957C393.805 264.148 393.453 264.428 393.173 264.776C392.894 265.124 392.694 265.531 392.587 265.969C392.481 266.406 392.471 266.862 392.558 267.304C392.709 267.998 393.088 268.617 393.632 269.058C394.175 269.499 394.849 269.735 395.542 269.728L396.553 269.735C396.567 269.765 396.585 269.792 396.608 269.816C395.924 269.974 395.317 270.375 394.896 270.95C394.474 271.524 394.266 272.233 394.307 272.951C394.375 273.735 394.729 274.464 395.297 274.992C395.866 275.521 396.608 275.81 397.376 275.802L399.886 275.82C399.851 275.845 399.822 275.879 399.801 275.917C399.781 275.956 399.77 276 399.769 276.044C399.77 276.097 399.787 276.148 399.817 276.191C399.246 276.505 398.791 277.002 398.523 277.607C398.254 278.212 398.187 278.89 398.331 279.538C398.496 280.215 398.879 280.815 399.418 281.241C399.957 281.667 400.62 281.894 401.301 281.886L422.481 282.041C425.444 282.062 428.346 281.176 430.814 279.495C433.283 277.814 435.206 275.415 436.336 272.606C437.312 270.185 437.328 267.468 436.381 265.034C435.435 262.601 433.6 260.641 431.268 259.572L428.425 258.273Z" fill="#E98862"/>
<g opacity="0.2">
<path opacity="0.2" d="M411.558 263.531C411.557 263.604 411.528 263.675 411.477 263.726C411.426 263.778 411.357 263.807 411.285 263.807L398.114 263.928C398.078 263.928 398.043 263.921 398.009 263.908C397.976 263.894 397.946 263.874 397.92 263.848C397.895 263.822 397.875 263.791 397.861 263.758C397.847 263.724 397.839 263.688 397.839 263.651C397.839 263.614 397.845 263.578 397.859 263.544C397.872 263.51 397.892 263.479 397.917 263.453C397.942 263.426 397.972 263.406 398.005 263.391C398.038 263.377 398.073 263.369 398.109 263.369L411.28 263.247C411.353 263.247 411.422 263.277 411.473 263.329C411.524 263.381 411.553 263.452 411.553 263.527L411.558 263.531Z" fill="#0C0C0C"/>
</g>
<g opacity="0.2">
<path opacity="0.2" d="M411.774 269.489C411.773 269.562 411.745 269.632 411.694 269.684C411.644 269.735 411.576 269.764 411.505 269.765L396.805 269.901C396.732 269.901 396.663 269.871 396.612 269.819C396.561 269.767 396.532 269.696 396.532 269.621C396.535 269.548 396.564 269.478 396.615 269.426C396.665 269.374 396.733 269.344 396.805 269.342L411.504 269.206C411.576 269.206 411.646 269.236 411.697 269.288C411.748 269.34 411.777 269.411 411.777 269.486L411.774 269.489Z" fill="#0C0C0C"/>
</g>
<g opacity="0.2">
<path opacity="0.2" d="M412.039 275.937C412.038 276.01 412.009 276.08 411.958 276.132C411.907 276.183 411.838 276.212 411.767 276.212L400.041 276.321C400.005 276.321 399.97 276.314 399.937 276.3C399.903 276.287 399.873 276.266 399.848 276.241C399.822 276.215 399.802 276.184 399.788 276.151C399.774 276.117 399.766 276.08 399.766 276.044C399.766 276.007 399.773 275.971 399.786 275.937C399.799 275.903 399.819 275.872 399.844 275.845C399.869 275.819 399.899 275.798 399.932 275.784C399.965 275.77 400 275.762 400.036 275.762L411.762 275.653C411.834 275.653 411.903 275.683 411.954 275.735C412.005 275.788 412.034 275.859 412.034 275.933L412.039 275.937Z" fill="#0C0C0C"/>
</g>
<path d="M428.997 289.399L518.049 294.662C521.189 295.013 524.365 294.612 527.328 293.492C530.291 292.372 532.961 290.564 535.128 288.208C537.295 285.852 538.9 283.013 539.818 279.914C540.735 276.815 540.94 273.54 540.417 270.346L529.604 181.128C529.159 178.413 528.196 175.815 526.772 173.482C525.348 171.149 523.489 169.126 521.303 167.529C519.116 165.933 516.644 164.794 514.028 164.177C511.413 163.56 508.704 163.477 506.057 163.934C503.41 164.391 500.877 165.378 498.602 166.839C496.327 168.299 494.355 170.206 492.798 172.448C491.241 174.691 490.13 177.226 489.529 179.908C488.927 182.591 488.847 185.369 489.292 188.084L494.5 255.853L429.387 253.471L428.997 289.399Z" fill="#367CFF"/>
<path d="M507.783 255.571C507.852 255.57 507.918 255.543 507.968 255.495C508.018 255.447 508.048 255.382 508.053 255.312C508.058 255.242 508.038 255.172 507.995 255.117C507.953 255.062 507.891 255.026 507.824 255.015L494.655 254.926C494.619 254.92 494.583 254.921 494.548 254.93C494.513 254.939 494.48 254.954 494.452 254.976C494.423 254.998 494.398 255.026 494.38 255.057C494.362 255.089 494.35 255.124 494.345 255.161C494.334 255.234 494.352 255.309 494.395 255.368C494.438 255.428 494.503 255.467 494.574 255.478L507.743 255.567C507.756 255.569 507.77 255.57 507.783 255.571Z" fill="#0C0C0C"/>
<path d="M515.215 295.064C515.288 295.069 515.359 295.044 515.413 294.995C515.468 294.946 515.501 294.876 515.505 294.802C515.51 294.728 515.486 294.655 515.438 294.599C515.39 294.544 515.323 294.51 515.25 294.505L429.59 289.269L429.846 253.885L494.567 255.478C494.609 255.483 494.652 255.478 494.692 255.464C494.733 255.45 494.769 255.426 494.799 255.395C494.829 255.363 494.851 255.325 494.863 255.283C494.876 255.242 494.879 255.197 494.872 255.154L491.211 214.756C491.206 214.719 491.193 214.684 491.174 214.653C491.155 214.622 491.131 214.595 491.101 214.573C491.072 214.552 491.039 214.537 491.004 214.529C490.969 214.521 490.933 214.52 490.897 214.526C490.862 214.532 490.828 214.546 490.798 214.565C490.767 214.584 490.741 214.61 490.72 214.64C490.699 214.67 490.685 214.703 490.677 214.739C490.669 214.775 490.667 214.812 490.673 214.848L494.273 254.872L429.722 253.268C429.687 253.258 429.65 253.255 429.614 253.26C429.578 253.265 429.544 253.277 429.512 253.296C429.481 253.315 429.453 253.34 429.432 253.37C429.41 253.4 429.394 253.434 429.385 253.47L428.996 289.398C428.979 289.468 428.99 289.543 429.026 289.606C429.062 289.668 429.12 289.714 429.188 289.733L515.178 295.058C515.19 295.061 515.203 295.063 515.215 295.064Z" fill="#0C0C0C"/>
<path d="M204.915 258.72C204.915 259.94 204.635 261.06 204.075 262.08C203.515 263.08 202.655 263.89 201.495 264.51C200.335 265.13 198.895 265.44 197.175 265.44H193.995V273H188.865V251.94H197.175C198.855 251.94 200.275 252.23 201.435 252.81C202.595 253.39 203.465 254.19 204.045 255.21C204.625 256.23 204.915 257.4 204.915 258.72ZM196.785 261.36C197.765 261.36 198.495 261.13 198.975 260.67C199.455 260.21 199.695 259.56 199.695 258.72C199.695 257.88 199.455 257.23 198.975 256.77C198.495 256.31 197.765 256.08 196.785 256.08H193.995V261.36H196.785ZM206.233 264.6C206.233 262.88 206.553 261.37 207.193 260.07C207.853 258.77 208.743 257.77 209.863 257.07C210.983 256.37 212.233 256.02 213.613 256.02C214.793 256.02 215.823 256.26 216.703 256.74C217.603 257.22 218.293 257.85 218.773 258.63V256.26H223.903V273H218.773V270.63C218.273 271.41 217.573 272.04 216.673 272.52C215.793 273 214.763 273.24 213.583 273.24C212.223 273.24 210.983 272.89 209.863 272.19C208.743 271.47 207.853 270.46 207.193 269.16C206.553 267.84 206.233 266.32 206.233 264.6ZM218.773 264.63C218.773 263.35 218.413 262.34 217.693 261.6C216.993 260.86 216.133 260.49 215.113 260.49C214.093 260.49 213.223 260.86 212.503 261.6C211.803 262.32 211.453 263.32 211.453 264.6C211.453 265.88 211.803 266.9 212.503 267.66C213.223 268.4 214.093 268.77 215.113 268.77C216.133 268.77 216.993 268.4 217.693 267.66C218.413 266.92 218.773 265.91 218.773 264.63ZM232.411 259.05C233.011 258.13 233.761 257.41 234.661 256.89C235.561 256.35 236.561 256.08 237.661 256.08V261.51H236.251C234.971 261.51 234.011 261.79 233.371 262.35C232.731 262.89 232.411 263.85 232.411 265.23V273H227.281V256.26H232.411V259.05ZM249.109 268.65V273H246.499C244.639 273 243.189 272.55 242.149 271.65C241.109 270.73 240.589 269.24 240.589 267.18V260.52H238.549V256.26H240.589V252.18H245.719V256.26H249.079V260.52H245.719V267.24C245.719 267.74 245.839 268.1 246.079 268.32C246.319 268.54 246.719 268.65 247.279 268.65H249.109ZM261.834 256.08C263.794 256.08 265.354 256.72 266.514 258C267.694 259.26 268.284 261 268.284 263.22V273H263.184V263.91C263.184 262.79 262.894 261.92 262.314 261.3C261.734 260.68 260.954 260.37 259.974 260.37C258.994 260.37 258.214 260.68 257.634 261.3C257.054 261.92 256.764 262.79 256.764 263.91V273H251.634V256.26H256.764V258.48C257.284 257.74 257.984 257.16 258.864 256.74C259.744 256.3 260.734 256.08 261.834 256.08ZM287.295 264.36C287.295 264.84 287.265 265.34 287.205 265.86H275.595C275.675 266.9 276.005 267.7 276.585 268.26C277.185 268.8 277.915 269.07 278.775 269.07C280.055 269.07 280.945 268.53 281.445 267.45H286.905C286.625 268.55 286.115 269.54 285.375 270.42C284.655 271.3 283.745 271.99 282.645 272.49C281.545 272.99 280.315 273.24 278.955 273.24C277.315 273.24 275.855 272.89 274.575 272.19C273.295 271.49 272.295 270.49 271.575 269.19C270.855 267.89 270.495 266.37 270.495 264.63C270.495 262.89 270.845 261.37 271.545 260.07C272.265 258.77 273.265 257.77 274.545 257.07C275.825 256.37 277.295 256.02 278.955 256.02C280.575 256.02 282.015 256.36 283.275 257.04C284.535 257.72 285.515 258.69 286.215 259.95C286.935 261.21 287.295 262.68 287.295 264.36ZM282.045 263.01C282.045 262.13 281.745 261.43 281.145 260.91C280.545 260.39 279.795 260.13 278.895 260.13C278.035 260.13 277.305 260.38 276.705 260.88C276.125 261.38 275.765 262.09 275.625 263.01H282.045ZM294.798 259.05C295.398 258.13 296.148 257.41 297.048 256.89C297.948 256.35 298.948 256.08 300.048 256.08V261.51H298.638C297.358 261.51 296.398 261.79 295.758 262.35C295.118 262.89 294.798 263.85 294.798 265.23V273H289.668V256.26H294.798V259.05ZM308.977 273.24C307.517 273.24 306.217 272.99 305.077 272.49C303.937 271.99 303.037 271.31 302.377 270.45C301.717 269.57 301.347 268.59 301.267 267.51H306.337C306.397 268.09 306.667 268.56 307.147 268.92C307.627 269.28 308.217 269.46 308.917 269.46C309.557 269.46 310.047 269.34 310.387 269.1C310.747 268.84 310.927 268.51 310.927 268.11C310.927 267.63 310.677 267.28 310.177 267.06C309.677 266.82 308.867 266.56 307.747 266.28C306.547 266 305.547 265.71 304.747 265.41C303.947 265.09 303.257 264.6 302.677 263.94C302.097 263.26 301.807 262.35 301.807 261.21C301.807 260.25 302.067 259.38 302.587 258.6C303.127 257.8 303.907 257.17 304.927 256.71C305.967 256.25 307.197 256.02 308.617 256.02C310.717 256.02 312.367 256.54 313.567 257.58C314.787 258.62 315.487 260 315.667 261.72H310.927C310.847 261.14 310.587 260.68 310.147 260.34C309.727 260 309.167 259.83 308.467 259.83C307.867 259.83 307.407 259.95 307.087 260.19C306.767 260.41 306.607 260.72 306.607 261.12C306.607 261.6 306.857 261.96 307.357 262.2C307.877 262.44 308.677 262.68 309.757 262.92C310.997 263.24 312.007 263.56 312.787 263.88C313.567 264.18 314.247 264.68 314.827 265.38C315.427 266.06 315.737 266.98 315.757 268.14C315.757 269.12 315.477 270 314.917 270.78C314.377 271.54 313.587 272.14 312.547 272.58C311.527 273.02 310.337 273.24 308.977 273.24ZM328.852 256.08C330.772 256.08 332.312 256.72 333.472 258C334.632 259.26 335.212 261 335.212 263.22V273H330.112V263.91C330.112 262.79 329.822 261.92 329.242 261.3C328.662 260.68 327.882 260.37 326.902 260.37C325.922 260.37 325.142 260.68 324.562 261.3C323.982 261.92 323.692 262.79 323.692 263.91V273H318.562V250.8H323.692V258.51C324.212 257.77 324.922 257.18 325.822 256.74C326.722 256.3 327.732 256.08 328.852 256.08ZM341.023 254.52C340.123 254.52 339.383 254.26 338.803 253.74C338.243 253.2 337.963 252.54 337.963 251.76C337.963 250.96 338.243 250.3 338.803 249.78C339.383 249.24 340.123 248.97 341.023 248.97C341.903 248.97 342.623 249.24 343.183 249.78C343.763 250.3 344.053 250.96 344.053 251.76C344.053 252.54 343.763 253.2 343.183 253.74C342.623 254.26 341.903 254.52 341.023 254.52ZM343.573 256.26V273H338.443V256.26H343.573ZM352.088 258.63C352.588 257.85 353.278 257.22 354.158 256.74C355.038 256.26 356.068 256.02 357.248 256.02C358.628 256.02 359.878 256.37 360.998 257.07C362.118 257.77 362.998 258.77 363.638 260.07C364.298 261.37 364.628 262.88 364.628 264.6C364.628 266.32 364.298 267.84 363.638 269.16C362.998 270.46 362.118 271.47 360.998 272.19C359.878 272.89 358.628 273.24 357.248 273.24C356.088 273.24 355.058 273 354.158 272.52C353.278 272.04 352.588 271.42 352.088 270.66V280.98H346.958V256.26H352.088V258.63ZM359.408 264.6C359.408 263.32 359.048 262.32 358.328 261.6C357.628 260.86 356.758 260.49 355.718 260.49C354.698 260.49 353.828 260.86 353.108 261.6C352.408 262.34 352.058 263.35 352.058 264.63C352.058 265.91 352.408 266.92 353.108 267.66C353.828 268.4 354.698 268.77 355.718 268.77C356.738 268.77 357.608 268.4 358.328 267.66C359.048 266.9 359.408 265.88 359.408 264.6Z" fill="#0E185F"/>
</svg>
