<svg width="275" height="155" viewBox="0 0 275 155" fill="none" xmlns="http://www.w3.org/2000/svg">
<path d="M256.224 26.9368H252.045C251.713 26.9373 251.389 26.8348 251.118 26.6433C250.847 26.4518 250.642 26.1809 250.532 25.8681C250.212 24.9516 249.834 24.0564 249.4 23.1881C249.25 22.8877 249.198 22.5477 249.253 22.2165C249.308 21.8853 249.466 21.5797 249.704 21.3432L252.674 18.379C252.975 18.0776 253.145 17.6689 253.145 17.2428C253.145 16.8167 252.975 16.408 252.674 16.1065L246.258 9.70559C245.956 9.40439 245.547 9.23518 245.12 9.23518C244.693 9.23518 244.284 9.40439 243.982 9.70559L240.959 12.7232C240.724 12.959 240.42 13.1155 240.091 13.1709C239.763 13.2264 239.425 13.178 239.125 13.0324C238.271 12.6165 237.392 12.2548 236.493 11.9497C236.176 11.8419 235.901 11.6378 235.707 11.3659C235.512 11.094 235.408 10.7681 235.409 10.434V6.15914C235.409 5.94823 235.367 5.73939 235.286 5.54453C235.205 5.34968 235.087 5.17263 234.937 5.0235C234.788 4.87437 234.611 4.75608 234.415 4.67539C234.22 4.59469 234.011 4.55318 233.8 4.55322H224.731C224.519 4.55318 224.31 4.59469 224.115 4.67539C223.92 4.75608 223.742 4.87437 223.593 5.0235C223.444 5.17263 223.325 5.34968 223.244 5.54453C223.163 5.73939 223.122 5.94823 223.122 6.15914V10.434C223.122 10.7681 223.018 11.094 222.824 11.3659C222.629 11.6378 222.354 11.8419 222.037 11.9497C221.138 12.2548 220.259 12.6164 219.406 13.0324C219.106 13.178 218.768 13.2264 218.439 13.1709C218.11 13.1155 217.807 12.959 217.572 12.7232L214.549 9.70559C214.247 9.40444 213.837 9.23528 213.41 9.23528C212.984 9.23528 212.574 9.40444 212.272 9.70559L205.856 16.1065C205.555 16.408 205.385 16.8167 205.385 17.2428C205.385 17.6689 205.555 18.0776 205.856 18.379L208.826 21.3432C209.065 21.5797 209.223 21.8853 209.277 22.2165C209.332 22.5477 209.28 22.8877 209.13 23.1881C208.696 24.0559 208.318 24.9512 208.001 25.8681C207.89 26.1809 207.684 26.4516 207.413 26.643C207.141 26.8344 206.817 26.937 206.485 26.9368H202.307C202.095 26.9367 201.886 26.9782 201.691 27.0589C201.496 27.1396 201.318 27.2579 201.169 27.407C201.019 27.5561 200.901 27.7332 200.82 27.9281C200.739 28.1229 200.698 28.3318 200.698 28.5427V37.5986C200.698 37.8095 200.739 38.0183 200.82 38.2132C200.901 38.4081 201.019 38.5852 201.169 38.7343C201.318 38.8834 201.496 39.0017 201.691 39.0824C201.886 39.1631 202.095 39.2046 202.307 39.2045H206.375C206.713 39.2042 207.043 39.3107 207.317 39.5087C207.592 39.7067 207.796 39.9861 207.902 40.307C208.216 41.2483 208.591 42.168 209.026 43.0602C209.173 43.3607 209.223 43.6997 209.169 44.0299C209.114 44.3601 208.958 44.6651 208.721 44.9024L205.856 47.7626C205.707 47.9116 205.588 48.0885 205.507 48.2834C205.426 48.4782 205.384 48.687 205.384 48.8979C205.384 49.1088 205.426 49.3177 205.507 49.5125C205.588 49.7073 205.707 49.8843 205.856 50.0333L212.272 56.436C212.574 56.7372 212.983 56.9063 213.41 56.9063C213.837 56.9063 214.246 56.7372 214.548 56.436L217.357 53.632C217.596 53.3937 217.905 53.2367 218.238 53.183C218.572 53.1294 218.914 53.182 219.216 53.3332C220.125 53.7864 221.064 54.1773 222.025 54.5032C222.344 54.6109 222.622 54.8156 222.818 55.0885C223.015 55.3613 223.121 55.6888 223.121 56.0249V59.9789C223.121 60.19 223.162 60.3991 223.243 60.5943C223.324 60.7895 223.442 60.9668 223.591 61.1163C223.741 61.2657 223.918 61.3843 224.114 61.4652C224.309 61.5461 224.519 61.5877 224.73 61.5878H233.799C234.011 61.5877 234.22 61.5461 234.415 61.4652C234.611 61.3843 234.788 61.2657 234.938 61.1163C235.087 60.9668 235.206 60.7895 235.286 60.5943C235.367 60.3991 235.408 60.19 235.408 59.9789V56.0255C235.409 55.6894 235.515 55.362 235.711 55.0891C235.908 54.8162 236.185 54.6116 236.504 54.5038C237.466 54.178 238.404 53.7871 239.313 53.3338C239.615 53.1826 239.957 53.13 240.291 53.1836C240.625 53.2373 240.933 53.3943 241.172 53.6326L243.981 56.4366C244.283 56.7378 244.693 56.907 245.12 56.907C245.546 56.907 245.956 56.7378 246.258 56.4366L252.673 50.0327C252.823 49.8837 252.941 49.7067 253.022 49.5119C253.103 49.3171 253.145 49.1082 253.145 48.8973C253.145 48.6864 253.103 48.4776 253.022 48.2828C252.941 48.0879 252.823 47.911 252.673 47.762L249.808 44.9018C249.571 44.6645 249.415 44.3595 249.361 44.0293C249.306 43.6991 249.356 43.3601 249.503 43.0596C249.938 42.1674 250.314 41.2477 250.628 40.3064C250.733 39.9855 250.938 39.7061 251.212 39.5081C251.486 39.3101 251.816 39.2036 252.154 39.2039H256.222C256.434 39.204 256.643 39.1625 256.838 39.0818C257.033 39.0011 257.211 38.8828 257.36 38.7337C257.51 38.5846 257.628 38.4075 257.709 38.2126C257.79 38.0177 257.831 37.8089 257.831 37.598V28.5427C257.831 28.3319 257.79 28.1231 257.709 27.9283C257.628 27.7336 257.51 27.5565 257.361 27.4074C257.211 27.2583 257.034 27.14 256.839 27.0592C256.644 26.9785 256.435 26.9369 256.224 26.9368ZM229.266 46.4522C226.615 46.4524 224.022 45.6677 221.818 44.1973C219.613 42.7268 217.894 40.6368 216.879 38.1913C215.864 35.7459 215.599 33.055 216.116 30.4589C216.633 27.8628 217.91 25.4781 219.785 23.6065C221.66 21.7348 224.049 20.4602 226.65 19.9438C229.251 19.4275 231.946 19.6926 234.396 20.7057C236.846 21.7187 238.94 23.4342 240.413 25.6352C241.886 27.8361 242.672 30.4237 242.672 33.0706C242.672 36.6195 241.259 40.0229 238.745 42.5324C236.231 45.0418 232.822 46.4518 229.266 46.4522Z" fill="#F4F4F4"/>
<path d="M78.5414 124.631H75.4725C75.2286 124.632 74.9905 124.557 74.7914 124.416C74.5923 124.275 74.4419 124.076 74.3612 123.846C74.1262 123.173 73.8482 122.516 73.5291 121.878C73.419 121.657 73.3813 121.407 73.4215 121.164C73.4616 120.921 73.5775 120.696 73.7527 120.522L75.935 118.345C76.1566 118.123 76.2811 117.823 76.2811 117.51C76.2811 117.197 76.1566 116.897 75.935 116.675L71.2229 111.974C71.0011 111.753 70.7003 111.628 70.3868 111.628C70.0732 111.628 69.7725 111.753 69.5506 111.974L67.3304 114.191C67.1575 114.364 66.9348 114.479 66.6933 114.519C66.4519 114.56 66.2037 114.524 65.9835 114.418C65.3567 114.112 64.7112 113.846 64.0508 113.622C63.8181 113.543 63.6161 113.393 63.4732 113.193C63.3302 112.994 63.2536 112.754 63.254 112.509V109.37C63.2541 109.215 63.2235 109.061 63.1642 108.918C63.1048 108.775 63.0178 108.645 62.908 108.535C62.7983 108.426 62.668 108.339 62.5246 108.28C62.3812 108.22 62.2276 108.19 62.0724 108.19H55.4088C55.2536 108.19 55.0999 108.22 54.9566 108.28C54.8132 108.339 54.6829 108.426 54.5731 108.535C54.4634 108.645 54.3764 108.775 54.317 108.918C54.2576 109.061 54.2271 109.215 54.2271 109.37V112.51C54.2276 112.755 54.151 112.994 54.0081 113.194C53.8651 113.394 53.6631 113.544 53.4304 113.623C52.77 113.847 52.1245 114.113 51.4977 114.418C51.2775 114.525 51.0293 114.561 50.7878 114.52C50.5464 114.479 50.3237 114.364 50.1508 114.191L47.9302 111.975C47.7084 111.753 47.4077 111.629 47.0941 111.629C46.7805 111.629 46.4798 111.753 46.258 111.975L41.5459 116.676C41.3243 116.897 41.1998 117.198 41.1998 117.511C41.1998 117.824 41.3243 118.124 41.5459 118.345L43.727 120.522C43.9022 120.696 44.0181 120.921 44.0582 121.164C44.0984 121.407 44.0607 121.657 43.9506 121.878C43.6314 122.515 43.3541 123.173 43.1206 123.846C43.0392 124.076 42.8884 124.275 42.6891 124.416C42.4897 124.556 42.2516 124.632 42.0075 124.631H38.938C38.7828 124.631 38.6292 124.662 38.4858 124.721C38.3424 124.78 38.2121 124.867 38.1024 124.977C37.9926 125.086 37.9056 125.216 37.8462 125.36C37.7868 125.503 37.7563 125.656 37.7563 125.811V132.463C37.7563 132.618 37.7868 132.771 37.8462 132.914C37.9056 133.057 37.9926 133.187 38.1024 133.297C38.2121 133.406 38.3424 133.493 38.4858 133.553C38.6292 133.612 38.7828 133.642 38.938 133.642H41.9263C42.1749 133.642 42.4172 133.72 42.6187 133.866C42.8201 134.011 42.9703 134.216 43.0479 134.452C43.2786 135.143 43.5544 135.819 43.8737 136.474C43.9821 136.695 44.0188 136.944 43.9787 137.187C43.9386 137.429 43.8238 137.653 43.6501 137.827L41.5456 139.928C41.4359 140.038 41.3488 140.168 41.2894 140.311C41.23 140.454 41.1994 140.607 41.1994 140.762C41.1994 140.917 41.23 141.07 41.2894 141.213C41.3488 141.356 41.4359 141.486 41.5456 141.595L46.2577 146.299C46.4795 146.52 46.7802 146.645 47.0938 146.645C47.4074 146.645 47.7081 146.52 47.9299 146.299L49.9931 144.239C50.1689 144.065 50.3955 143.949 50.6406 143.91C50.8857 143.871 51.137 143.91 51.3588 144.021C52.0263 144.354 52.7157 144.641 53.4223 144.88C53.6565 144.959 53.8601 145.109 54.0044 145.31C54.1488 145.51 54.2267 145.751 54.2271 145.997V148.902C54.2269 149.057 54.2573 149.211 54.3166 149.354C54.3758 149.497 54.4628 149.628 54.5726 149.737C54.6824 149.847 54.8127 149.934 54.9562 149.994C55.0997 150.053 55.2535 150.083 55.4088 150.083H62.0706C62.2259 150.083 62.3797 150.053 62.5232 149.994C62.6667 149.934 62.797 149.847 62.9068 149.737C63.0165 149.628 63.1035 149.497 63.1628 149.354C63.2221 149.211 63.2525 149.057 63.2523 148.902V145.997C63.2527 145.751 63.3306 145.51 63.4749 145.31C63.6193 145.109 63.8229 144.959 64.0571 144.88C64.7637 144.641 65.4531 144.354 66.1206 144.021C66.3424 143.91 66.5937 143.871 66.8388 143.91C67.0839 143.949 67.3105 144.065 67.4863 144.239L69.5495 146.299C69.7713 146.52 70.072 146.645 70.3856 146.645C70.6992 146.645 70.9999 146.52 71.2217 146.299L75.935 141.595C76.0447 141.486 76.1318 141.356 76.1912 141.213C76.2506 141.07 76.2812 140.917 76.2812 140.762C76.2812 140.607 76.2506 140.454 76.1912 140.311C76.1318 140.168 76.0447 140.038 75.935 139.928L73.8305 137.827C73.6569 137.653 73.542 137.429 73.5019 137.187C73.4619 136.944 73.4986 136.695 73.6069 136.474C73.9262 135.819 74.202 135.143 74.4327 134.452C74.5103 134.216 74.6605 134.011 74.8619 133.866C75.0633 133.72 75.3056 133.642 75.5542 133.642H78.5425C78.6977 133.642 78.8514 133.612 78.9948 133.553C79.1382 133.493 79.2685 133.406 79.3782 133.297C79.4879 133.187 79.575 133.057 79.6344 132.914C79.6937 132.771 79.7243 132.618 79.7242 132.463V125.811C79.7243 125.656 79.6937 125.503 79.6342 125.359C79.5748 125.216 79.4877 125.086 79.3778 124.976C79.2679 124.867 79.1375 124.78 78.994 124.721C78.8505 124.662 78.6966 124.631 78.5414 124.631ZM58.7407 138.966C56.7931 138.966 54.8892 138.389 53.2699 137.309C51.6505 136.229 50.3883 134.694 49.643 132.898C48.8977 131.102 48.7027 129.125 49.0826 127.218C49.4626 125.312 50.4005 123.56 51.7776 122.185C53.1548 120.811 54.9094 119.875 56.8196 119.495C58.7298 119.116 60.7098 119.311 62.5091 120.055C64.3085 120.799 65.8465 122.059 66.9285 123.675C68.0105 125.292 68.5881 127.192 68.5881 129.136C68.5881 130.427 68.3334 131.705 67.8385 132.898C67.3436 134.09 66.6183 135.174 65.7038 136.087C64.7894 137 63.7039 137.724 62.5091 138.218C61.3144 138.712 60.0339 138.966 58.7407 138.966Z" fill="#F4F4F4"/>
<path d="M55.5261 70.2765H51.3477C51.0156 70.277 50.6916 70.1744 50.4205 69.9829C50.1494 69.7914 49.9447 69.5205 49.8347 69.2077C49.5148 68.2911 49.1365 67.3959 48.7021 66.5274C48.5521 66.227 48.5007 65.887 48.5554 65.5558C48.61 65.2246 48.7679 64.919 49.0065 64.6825L51.9759 61.7184C52.2776 61.4169 52.4471 61.0082 52.4471 60.5821C52.4471 60.156 52.2776 59.7473 51.9759 59.4459L45.5608 53.0449C45.2588 52.7438 44.8494 52.5746 44.4225 52.5746C43.9957 52.5746 43.5863 52.7438 43.2843 53.0449L40.2612 56.0626C40.0259 56.2984 39.7226 56.4551 39.3938 56.5105C39.0649 56.5659 38.7269 56.5174 38.427 56.3718C37.5736 55.9558 36.6947 55.5942 35.7955 55.289C35.4787 55.1813 35.2036 54.9771 35.0091 54.7053C34.8145 54.4334 34.7102 54.1075 34.7108 53.7734V49.4985C34.7109 49.2876 34.6693 49.0787 34.5885 48.8838C34.5077 48.689 34.3892 48.5119 34.2398 48.3628C34.0904 48.2136 33.913 48.0953 33.7178 48.0147C33.5225 47.934 33.3133 47.8925 33.102 47.8926H24.0329C23.8216 47.8925 23.6124 47.9341 23.4172 48.0147C23.222 48.0954 23.0447 48.2137 22.8953 48.3629C22.7459 48.512 22.6275 48.6891 22.5466 48.8839C22.4658 49.0788 22.4243 49.2876 22.4244 49.4985V53.7734C22.4249 54.1075 22.3206 54.4334 22.1261 54.7052C21.9315 54.9771 21.6565 55.1812 21.3397 55.289C20.4404 55.5941 19.5615 55.9557 18.7081 56.3718C18.4082 56.5174 18.0703 56.5659 17.7414 56.5105C17.4126 56.4551 17.1093 56.2984 16.874 56.0626L13.8509 53.0449C13.5489 52.7438 13.1395 52.5746 12.7126 52.5746C12.2858 52.5746 11.8764 52.7438 11.5744 53.0449L5.15862 59.4459C4.85694 59.7473 4.68747 60.156 4.68747 60.5821C4.68747 61.0082 4.85694 61.4169 5.15862 61.7184L8.12839 64.6825C8.36695 64.9191 8.52475 65.2247 8.57934 65.5559C8.63394 65.8871 8.58255 66.2271 8.43249 66.5274C7.99783 67.3953 7.62049 68.2907 7.30289 69.2077C7.19187 69.5205 6.98648 69.7911 6.71499 69.9825C6.4435 70.1739 6.11925 70.2766 5.78688 70.2765H1.6088C1.39752 70.2763 1.18829 70.3178 0.993067 70.3984C0.797845 70.4791 0.620459 70.5973 0.471048 70.7465C0.321638 70.8956 0.203134 71.0726 0.122308 71.2675C0.0414828 71.4623 -7.84411e-05 71.6712 2.50889e-07 71.8821V80.9379C-0.000117785 81.1489 0.0414144 81.3577 0.122222 81.5526C0.20303 81.7475 0.321528 81.9246 0.470943 82.0737C0.620357 82.2229 0.797756 82.3412 0.992997 82.4218C1.18824 82.5025 1.39749 82.544 1.6088 82.5438H5.67703C6.01537 82.5437 6.34512 82.6502 6.61924 82.8482C6.89336 83.0461 7.09784 83.3255 7.20352 83.6463C7.51748 84.5877 7.89303 85.5075 8.32773 86.3998C8.47521 86.7003 8.52515 87.0392 8.47059 87.3694C8.41603 87.6995 8.25969 88.0045 8.02333 88.2418L5.15803 91.1019C5.00852 91.251 4.88991 91.4279 4.80899 91.6227C4.72806 91.8176 4.68641 92.0264 4.68641 92.2373C4.68641 92.4482 4.72806 92.657 4.80899 92.8518C4.88991 93.0466 5.00852 93.2236 5.15803 93.3726L11.5735 99.7763C11.8755 100.077 12.2849 100.247 12.7117 100.247C13.1386 100.247 13.548 100.077 13.85 99.7763L16.6588 96.9723C16.8981 96.7339 17.2065 96.5768 17.5402 96.5232C17.874 96.4695 18.2162 96.5221 18.5184 96.6735C19.427 97.1266 20.3655 97.5174 21.3274 97.8432C21.6464 97.9509 21.9236 98.1555 22.1202 98.4284C22.3167 98.7013 22.4228 99.0287 22.4235 99.3648V103.319C22.4231 103.53 22.4645 103.739 22.5451 103.934C22.6258 104.13 22.7442 104.307 22.8936 104.456C23.043 104.606 23.2205 104.724 23.4158 104.805C23.6111 104.886 23.8205 104.928 24.032 104.928H33.1011C33.3126 104.928 33.522 104.886 33.7174 104.805C33.9127 104.724 34.0902 104.606 34.2396 104.456C34.3891 104.307 34.5075 104.13 34.5882 103.935C34.6689 103.739 34.7103 103.53 34.7099 103.319V99.3648C34.7106 99.0287 34.8167 98.7013 35.0132 98.4284C35.2098 98.1555 35.487 97.9509 35.806 97.8432C36.7677 97.5174 37.7062 97.1266 38.6147 96.6735C38.9169 96.5221 39.2591 96.4695 39.5928 96.5232C39.9266 96.5768 40.235 96.7339 40.4743 96.9723L43.2834 99.7763C43.5854 100.077 43.9948 100.247 44.4216 100.247C44.8485 100.247 45.2579 100.077 45.5599 99.7763L51.975 93.3726C52.1246 93.2236 52.2432 93.0466 52.3241 92.8518C52.405 92.657 52.4467 92.4482 52.4467 92.2373C52.4467 92.0264 52.405 91.8176 52.3241 91.6227C52.2432 91.4279 52.1246 91.251 51.975 91.1019L49.1097 88.2418C48.8734 88.0045 48.717 87.6995 48.6625 87.3694C48.6079 87.0392 48.6579 86.7003 48.8053 86.3998C49.2402 85.5076 49.6157 84.5878 49.9296 83.6463C50.0352 83.3255 50.2397 83.0461 50.5138 82.8482C50.788 82.6502 51.1177 82.5437 51.456 82.5438H55.5246C55.7359 82.5439 55.9451 82.5024 56.1403 82.4218C56.3355 82.3411 56.5129 82.2228 56.6622 82.0736C56.8116 81.9245 56.9301 81.7474 57.0109 81.5526C57.0917 81.3577 57.1332 81.1488 57.1331 80.9379V71.8821C57.1332 71.4564 56.964 71.0482 56.6627 70.7471C56.3613 70.446 55.9525 70.2767 55.5261 70.2765ZM28.5686 89.7915C25.9169 89.7917 23.3247 89.007 21.1198 87.5366C18.9149 86.0662 17.1963 83.9761 16.1815 81.5307C15.1666 79.0853 14.901 76.3944 15.4182 73.7983C15.9355 71.2022 17.2124 68.8175 19.0874 66.9458C20.9625 65.0741 23.3514 63.7995 25.9522 63.2832C28.553 62.7669 31.2487 63.032 33.6985 64.045C36.1483 65.0581 38.2422 66.7736 39.7152 68.9745C41.1883 71.1755 41.9744 73.7631 41.9742 76.41C41.9738 79.9589 40.5613 83.3623 38.0473 85.8717C35.5334 88.3812 32.1239 89.7911 28.5686 89.7915Z" fill="#F4F4F4"/>
<path d="M42.2968 129.217L199.669 129.217C203.534 129.217 206.667 126.09 206.667 122.232L206.667 7.21781C206.667 3.36008 203.534 0.232773 199.669 0.232773L42.2968 0.232773C38.4321 0.232773 35.2992 3.36008 35.2992 7.21781L35.2992 122.232C35.2992 126.09 38.4321 129.217 42.2968 129.217Z" fill="white"/>
<path d="M35.0659 122.232V7.21779C35.0682 5.30417 35.8308 3.46958 37.1864 2.11647C38.542 0.763359 40.3799 0.00221393 42.297 0L199.67 0C201.587 0.00221393 203.425 0.763359 204.781 2.11647C206.136 3.46958 206.899 5.30417 206.901 7.21779V122.232C206.899 124.146 206.136 125.98 204.781 127.334C203.425 128.687 201.587 129.448 199.67 129.45H42.297C40.3799 129.448 38.5419 128.687 37.1863 127.334C35.8307 125.98 35.0681 124.146 35.0659 122.232ZM42.297 0.465789C40.5036 0.467845 38.7842 1.17991 37.5161 2.44576C36.2479 3.71162 35.5346 5.4279 35.5325 7.21809V122.232C35.5346 124.022 36.2479 125.739 37.5161 127.005C38.7842 128.27 40.5036 128.982 42.297 128.985H199.67C201.464 128.982 203.183 128.27 204.451 127.005C205.719 125.739 206.433 124.022 206.435 122.232V7.21779C206.433 5.42758 205.719 3.71125 204.451 2.44538C203.183 1.1795 201.464 0.467468 199.67 0.465491L42.297 0.465789Z" fill="#292A2E"/>
<path d="M35.2993 7.21698V14.2456H206.667V7.21698C206.667 5.36464 205.929 3.58815 204.617 2.27823C203.305 0.968313 201.526 0.232251 199.67 0.231934H42.2969C40.441 0.231934 38.6612 0.967856 37.3489 2.27781C36.0366 3.58776 35.2993 5.36443 35.2993 7.21698Z" fill="#292A2E"/>
<path d="M65.4635 78.2599C61.7162 78.2599 58.0531 77.1507 54.9374 75.0726C51.8217 72.9945 49.3933 70.0408 47.9593 66.585C46.5253 63.1292 46.1501 59.3265 46.8811 55.6579C47.6122 51.9892 49.4167 48.6193 52.0664 45.9744C54.7161 43.3294 58.092 41.5282 61.7672 40.7985C65.4425 40.0687 69.2519 40.4433 72.7139 41.8747C76.1759 43.3061 79.135 45.7302 81.2168 48.8403C83.2987 51.9504 84.4099 55.607 84.4099 59.3475C84.4041 64.3616 82.4061 69.1687 78.8542 72.7142C75.3023 76.2597 70.4866 78.2541 65.4635 78.2599ZM65.4635 41.0326C61.8346 41.0326 58.2873 42.1068 55.27 44.1192C52.2527 46.1317 49.9011 48.9921 48.5124 52.3387C47.1237 55.6853 46.7603 59.3678 47.4683 62.9205C48.1762 66.4733 49.9237 69.7367 52.4897 72.2981C55.0556 74.8594 58.3249 76.6038 61.884 77.3104C65.4431 78.0171 69.1322 77.6544 72.4849 76.2682C75.8375 74.882 78.703 72.5346 80.7191 69.5227C82.7352 66.5108 83.8112 62.9698 83.8112 59.3475C83.8059 54.4916 81.8712 49.8361 78.4315 46.4023C74.9918 42.9686 70.3281 41.037 65.4635 41.0314V41.0326Z" fill="#292A2E"/>
<path d="M120.983 78.2599C117.236 78.2599 113.573 77.1507 110.457 75.0726C107.342 72.9945 104.913 70.0408 103.479 66.585C102.045 63.1292 101.67 59.3265 102.401 55.6579C103.132 51.9892 104.937 48.6193 107.586 45.9744C110.236 43.3294 113.612 41.5282 117.287 40.7985C120.962 40.0687 124.772 40.4433 128.234 41.8747C131.696 43.3061 134.655 45.7302 136.737 48.8403C138.819 51.9504 139.93 55.607 139.93 59.3475C139.924 64.3616 137.926 69.1687 134.374 72.7142C130.822 76.2597 126.007 78.2541 120.983 78.2599ZM120.983 41.0326C117.355 41.0326 113.807 42.1068 110.79 44.1192C107.773 46.1317 105.421 48.9921 104.032 52.3387C102.644 55.6853 102.28 59.3678 102.988 62.9205C103.696 66.4733 105.444 69.7367 108.01 72.2981C110.576 74.8594 113.845 76.6038 117.404 77.3104C120.963 78.0171 124.652 77.6544 128.005 76.2682C131.357 74.882 134.223 72.5346 136.239 69.5227C138.255 66.5108 139.331 62.9698 139.331 59.3475C139.326 54.4916 137.391 49.8361 133.952 46.4023C130.512 42.9686 125.848 41.037 120.983 41.0314V41.0326Z" fill="#292A2E"/>
<path d="M176.504 78.2599C172.756 78.2599 169.093 77.1507 165.977 75.0726C162.862 72.9945 160.433 70.0408 158.999 66.585C157.565 63.1292 157.19 59.3265 157.921 55.6579C158.652 51.9892 160.457 48.6193 163.106 45.9744C165.756 43.3294 169.132 41.5282 172.807 40.7985C176.483 40.0687 180.292 40.4433 183.754 41.8747C187.216 43.3061 190.175 45.7302 192.257 48.8403C194.339 51.9504 195.45 55.607 195.45 59.3475C195.444 64.3616 193.446 69.1687 189.894 72.7142C186.342 76.2597 181.527 78.2541 176.504 78.2599ZM176.504 41.0326C172.875 41.0326 169.327 42.1068 166.31 44.1192C163.293 46.1317 160.941 48.9921 159.552 52.3387C158.164 55.6853 157.8 59.3678 158.508 62.9205C159.216 66.4733 160.964 69.7367 163.53 72.2981C166.096 74.8594 169.365 76.6038 172.924 77.3104C176.483 78.0171 180.172 77.6544 183.525 76.2682C186.878 74.882 189.743 72.5346 191.759 69.5227C193.775 66.5108 194.851 62.9698 194.851 59.3475C194.846 54.4916 192.911 49.8361 189.472 46.4023C186.032 42.9686 181.368 41.037 176.504 41.0314V41.0326Z" fill="#292A2E"/>
<path opacity="0.6" d="M188.298 62.072V50.2964H174.687V59.5357H184.751L188.298 62.072Z" fill="#0CBC8B"/>
<path d="M164.709 70.6295V54.7036H183.118V67.1993H169.507L164.709 70.6295Z" fill="#0CBC8B"/>
<path d="M168.881 62.6664C169.763 62.6664 170.477 61.9534 170.477 61.0739C170.477 60.1944 169.763 59.4814 168.881 59.4814C168 59.4814 167.286 60.1944 167.286 61.0739C167.286 61.9534 168 62.6664 168.881 62.6664Z" fill="white"/>
<path d="M173.913 62.6664C174.794 62.6664 175.509 61.9534 175.509 61.0739C175.509 60.1944 174.794 59.4814 173.913 59.4814C173.032 59.4814 172.318 60.1944 172.318 61.0739C172.318 61.9534 173.032 62.6664 173.913 62.6664Z" fill="white"/>
<path d="M178.945 62.6664C179.826 62.6664 180.54 61.9534 180.54 61.0739C180.54 60.1944 179.826 59.4814 178.945 59.4814C178.064 59.4814 177.35 60.1944 177.35 61.0739C177.35 61.9534 178.064 62.6664 178.945 62.6664Z" fill="white"/>
<path d="M74.9033 65.1342C75.0866 65.2563 75.2158 65.4442 75.2641 65.6588C75.3124 65.8735 75.2761 66.0985 75.1628 66.2871L74.1308 68.0036C73.857 68.4678 73.4148 68.8091 72.8958 68.9567C71.1805 69.4264 67.3978 69.5208 61.3343 63.4691C55.2709 57.4174 55.3664 53.6394 55.8369 51.928C55.9846 51.4099 56.3262 50.9683 56.7911 50.6947L58.5112 49.6648C58.7002 49.5517 58.9256 49.5156 59.1405 49.5639C59.3555 49.6122 59.5436 49.7414 59.6657 49.9245L62.408 54.0305C62.5278 54.2103 62.5751 54.4287 62.5404 54.6419C62.5057 54.855 62.3916 55.0472 62.2209 55.1799L60.6806 56.375C60.5191 56.4995 60.4075 56.6776 60.3662 56.8771C60.3249 57.0767 60.3566 57.2843 60.4556 57.4625C60.9075 58.274 61.3358 59.2304 63.4567 61.3502C65.5777 63.47 66.5396 63.8949 67.3514 64.346C67.5299 64.4448 67.7379 64.4764 67.9378 64.435C68.1376 64.3936 68.3159 64.282 68.4403 64.1204L69.6375 62.5838C69.7704 62.4133 69.963 62.2992 70.1766 62.2646C70.3903 62.2299 70.6092 62.2773 70.7893 62.3971L74.9033 65.1342Z" fill="#0CBC8B"/>
<path opacity="0.6" d="M130.747 65.995H111.296C111.078 65.9961 110.868 65.9104 110.712 65.7568C110.557 65.6033 110.469 65.3943 110.467 65.176L110.399 53.5391C110.399 53.4427 110.417 53.3471 110.454 53.2578C110.49 53.1685 110.544 53.0873 110.612 53.0188C110.68 52.9502 110.76 52.8957 110.85 52.8584C110.939 52.821 111.034 52.8016 111.131 52.8011L130.761 52.7007C130.956 52.6997 131.143 52.7759 131.282 52.9127C131.42 53.0494 131.499 53.2355 131.5 53.43L131.568 65.1674C131.568 65.2755 131.547 65.3826 131.507 65.4828C131.466 65.5829 131.405 65.674 131.329 65.7508C131.253 65.8277 131.162 65.8888 131.063 65.9307C130.963 65.9726 130.856 65.9944 130.747 65.995Z" fill="#0CBC8B"/>
<path d="M131.29 52.9203C130.129 53.7718 121.695 59.9684 121.686 59.9744C121.457 60.1026 121.198 60.1674 120.935 60.1622C120.672 60.1569 120.416 60.0818 120.192 59.9445L110.599 53.0339C110.667 52.9608 110.75 52.9025 110.842 52.8624C110.933 52.8224 111.032 52.8014 111.132 52.8008L130.761 52.6992C130.859 52.6989 130.957 52.7183 131.048 52.7563C131.139 52.7943 131.221 52.85 131.29 52.9203Z" fill="#0CBC8B"/>
<path d="M211.798 67.2739C215.565 67.2739 218.619 64.2254 218.619 60.4648C218.619 56.7043 215.565 53.6558 211.798 53.6558C208.031 53.6558 204.977 56.7043 204.977 60.4648C204.977 64.2254 208.031 67.2739 211.798 67.2739Z" fill="#0E185F"/>
<path d="M208.601 59.8202C208.426 59.8202 208.254 59.769 208.108 59.6728C207.961 59.5766 207.846 59.4396 207.776 59.2788C207.653 58.9941 204.798 52.1916 207.899 42.2125C211.259 31.4031 222.96 31.2773 223.078 31.2773C223.316 31.2773 223.545 31.3718 223.713 31.5399C223.881 31.708 223.976 31.9359 223.976 32.1737C223.976 32.4114 223.881 32.6394 223.713 32.8075C223.545 32.9756 223.316 33.07 223.078 33.07C222.651 33.07 212.576 33.2107 209.613 42.7431C206.706 52.0948 209.396 58.5044 209.424 58.568C209.483 58.7043 209.507 58.8531 209.494 59.0011C209.481 59.149 209.431 59.2914 209.35 59.4155C209.268 59.5396 209.157 59.6415 209.026 59.712C208.895 59.7825 208.749 59.8195 208.6 59.8196L208.601 59.8202Z" fill="#0E185F"/>
<path d="M209.329 67.2739C213.096 67.2739 216.15 64.2254 216.15 60.4648C216.15 56.7043 213.096 53.6558 209.329 53.6558C205.561 53.6558 202.507 56.7043 202.507 60.4648C202.507 64.2254 205.561 67.2739 209.329 67.2739Z" fill="#0E185F"/>
<path opacity="0.3" d="M209.329 67.2739C213.096 67.2739 216.15 64.2254 216.15 60.4648C216.15 56.7043 213.096 53.6558 209.329 53.6558C205.561 53.6558 202.507 56.7043 202.507 60.4648C202.507 64.2254 205.561 67.2739 209.329 67.2739Z" fill="white"/>
<path d="M210.965 67.2739C214.733 67.2739 217.787 64.2254 217.787 60.4648C217.787 56.7043 214.733 53.6558 210.965 53.6558C207.198 53.6558 204.144 56.7043 204.144 60.4648C204.144 64.2254 207.198 67.2739 210.965 67.2739Z" fill="#0E185F"/>
<path d="M243.141 48.2134C243.141 48.2134 245.333 58.6959 247.95 61.8674C255.485 70.997 258.793 81.9641 253.385 88.6537C247.978 95.3433 210.311 100.746 205.496 87.6812C201.443 76.6818 205.791 74.7341 205.844 65.2032C205.868 60.8904 206.465 51.7951 206.465 51.7951" fill="#0A0A0A"/>
<path d="M211.66 82.1352C211.729 82.1263 212.493 94.7824 227.223 93.679C237.419 92.9165 241.055 82.1164 241.29 82.1164C240.191 81.8834 238.34 81.544 237.851 81.284C236.246 80.4227 234.26 79.5266 233.741 76.414C233.442 74.6214 233.949 65.4424 233.793 63.6265L218.141 67.1138C218.36 70.947 219.891 79.8341 214.525 81.4068C213.631 81.6689 212.67 81.9082 211.66 82.1352Z" fill="#E98862"/>
<path opacity="0.5" d="M217.92 77.7769C218.166 76.9882 218.323 76.1751 218.391 75.3521C218.563 73.4739 218.529 71.5825 218.289 69.7118C221.47 69.2832 224.467 67.9726 226.939 65.9287C227.23 67.0001 228.828 71.6819 228.386 72.7001C227.55 74.6251 223.619 77.7769 217.92 77.7769Z" fill="#0C0C0C"/>
<path d="M220.707 74.9969C226.903 74.7644 234.485 71.2574 235.026 62.9069L235.514 55.3725C236.055 47.0223 232.1 39.9694 224.224 39.4609C216.347 38.953 210.021 45.3417 209.481 53.6921L209.264 57.0277C209.057 60.2329 209.653 75.4107 220.707 74.9969Z" fill="#E98862"/>
<path opacity="0.1" d="M223.154 63.8218C224.177 63.8062 224.997 63.1866 224.985 62.4379C224.974 61.6892 224.135 61.0949 223.113 61.1104C222.09 61.126 221.271 61.7456 221.282 62.4944C221.293 63.2431 222.132 63.8374 223.154 63.8218Z" fill="#0C0C0C"/>
<path opacity="0.1" d="M212.122 62.3056C212.131 63.0526 211.312 63.6725 210.289 63.6896C210.113 63.6921 209.936 63.6763 209.762 63.6427C209.597 62.7717 209.48 61.928 209.4 61.1431C209.67 61.0358 209.958 60.9798 210.249 60.9779C211.272 60.9609 212.11 61.5551 212.122 62.3056Z" fill="#0C0C0C"/>
<path d="M211.843 56.6813C212.378 56.6813 212.812 56.2483 212.812 55.7142C212.812 55.1801 212.378 54.7471 211.843 54.7471C211.308 54.7471 210.874 55.1801 210.874 55.7142C210.874 56.2483 211.308 56.6813 211.843 56.6813Z" fill="#0C0C0C"/>
<path d="M221.43 57.3962C221.965 57.3962 222.399 56.9632 222.399 56.429C222.399 55.8949 221.965 55.4619 221.43 55.4619C220.895 55.4619 220.461 55.8949 220.461 56.429C220.461 56.9632 220.895 57.3962 221.43 57.3962Z" fill="#0C0C0C"/>
<path opacity="0.5" d="M216.877 63.9817H216.862C216.542 63.9586 216.224 63.9181 215.909 63.8604C215.439 63.7708 214.816 63.6028 214.844 63.1855C214.874 62.7095 216.512 57.6602 216.699 57.086C216.717 57.0377 216.753 56.9981 216.799 56.9756C216.846 56.9531 216.899 56.9494 216.948 56.9653C216.997 56.9812 217.038 57.0154 217.062 57.0608C217.087 57.1062 217.092 57.1593 217.078 57.2088C216.379 59.36 215.262 62.8909 215.241 63.2112C215.31 63.3498 216.096 63.5332 216.888 63.5846C216.939 63.5884 216.986 63.6117 217.021 63.6496C217.055 63.6875 217.073 63.7372 217.072 63.7883C217.071 63.8394 217.05 63.888 217.013 63.9241C216.977 63.9601 216.928 63.9809 216.877 63.982L216.877 63.9817Z" fill="#0C0C0C"/>
<path opacity="0.5" d="M218.451 67.3644C217.175 67.3564 215.92 67.0494 214.785 66.4681C214.761 66.4566 214.74 66.4406 214.723 66.421C214.706 66.4015 214.693 66.3787 214.684 66.354C214.667 66.3041 214.67 66.2495 214.694 66.2022C214.717 66.1548 214.758 66.1186 214.808 66.1015C214.858 66.0844 214.913 66.0879 214.96 66.111C217.407 67.3061 219.689 67.2679 221.556 66.0005C221.594 65.9737 221.633 65.9489 221.673 65.9261C221.72 65.9048 221.773 65.9024 221.822 65.9195C221.87 65.9365 221.91 65.9716 221.933 66.0175C221.957 66.0633 221.961 66.1164 221.946 66.1655C221.931 66.2147 221.898 66.256 221.853 66.281C221.838 66.2894 221.813 66.3061 221.779 66.3294C220.798 66.9973 219.639 67.3577 218.451 67.3644Z" fill="#0C0C0C"/>
<path d="M241.891 57.1746L234.836 56.7596C229.35 55.2908 226.656 46.4552 226.656 46.4552C226.656 46.4552 222.268 53.4103 206.453 51.788C206.453 51.788 205.682 29.6883 229.192 33.4301C236.752 34.6336 242.934 41.2625 243.494 51.1937C243.886 58.1537 241.891 57.1746 241.891 57.1746Z" fill="#0A0A0A"/>
<path d="M234.373 65.4193C236.767 65.5741 238.872 63.1429 239.027 60.7536C239.182 58.3643 237.327 56.9216 234.933 56.7671L233.596 58.2884L232.314 65.2866L234.373 65.4193Z" fill="#E98862"/>
<path d="M214.536 53.5268C213.897 53.1937 213.182 53.0354 212.462 53.0679C212.1 53.0819 211.742 53.1503 211.401 53.2707C211.056 53.3906 210.728 53.5531 210.424 53.7544L210.414 53.7604C210.38 53.7811 210.339 53.7878 210.301 53.779C210.262 53.7702 210.228 53.7465 210.206 53.7132C210.185 53.6798 210.177 53.6394 210.185 53.6005C210.193 53.5616 210.216 53.5273 210.249 53.505C210.569 53.2768 210.917 53.0899 211.284 52.9486C211.653 52.8046 212.042 52.7168 212.438 52.6881C213.238 52.6253 214.041 52.778 214.763 53.1303C214.817 53.1574 214.858 53.2048 214.877 53.2623C214.897 53.3197 214.892 53.3824 214.865 53.4365C214.838 53.4907 214.79 53.5319 214.733 53.5511C214.675 53.5702 214.613 53.5658 214.558 53.5387L214.553 53.5357L214.536 53.5268Z" fill="#0C0C0C"/>
<path d="M220.933 53.5476C221.693 53.2877 222.508 53.2361 223.295 53.3982C223.684 53.4757 224.059 53.6111 224.407 53.7998C224.754 53.9856 225.076 54.2143 225.365 54.4804C225.394 54.5068 225.412 54.5434 225.415 54.5826C225.418 54.6219 225.405 54.6606 225.38 54.6908C225.355 54.7209 225.319 54.7401 225.279 54.7444C225.24 54.7486 225.201 54.7375 225.17 54.7134L225.161 54.7062C224.884 54.4686 224.579 54.2665 224.252 54.1048C223.928 53.9429 223.581 53.8307 223.224 53.772C222.514 53.6502 221.784 53.7183 221.109 53.9695L221.092 53.976C221.064 53.9869 221.034 53.9922 221.004 53.9916C220.974 53.991 220.945 53.9845 220.917 53.9725C220.89 53.9604 220.865 53.9431 220.844 53.9215C220.823 53.8998 220.807 53.8743 220.796 53.8464C220.785 53.8184 220.78 53.7886 220.78 53.7586C220.781 53.7287 220.787 53.6991 220.8 53.6716C220.812 53.6442 220.829 53.6193 220.851 53.5986C220.872 53.5778 220.898 53.5615 220.926 53.5506L220.933 53.5476Z" fill="#0C0C0C"/>
<path opacity="0.52" d="M218.413 69.2502C218.182 69.2522 217.952 69.2347 217.724 69.1979C217.699 69.1938 217.674 69.1847 217.652 69.171C217.629 69.1574 217.61 69.1395 217.595 69.1184C217.579 69.0972 217.568 69.0733 217.562 69.0479C217.556 69.0225 217.555 68.9962 217.559 68.9704C217.563 68.9446 217.572 68.9199 217.586 68.8977C217.6 68.8754 217.618 68.8561 217.639 68.8407C217.66 68.8254 217.684 68.8144 217.709 68.8083C217.735 68.8022 217.761 68.8012 217.787 68.8053C219.157 69.0228 219.847 68.4268 219.876 68.4014C219.915 68.366 219.967 68.3477 220.019 68.3504C220.072 68.353 220.122 68.3765 220.157 68.4156C220.193 68.4547 220.211 68.5062 220.208 68.5589C220.206 68.6115 220.182 68.6609 220.143 68.6963C219.648 69.0749 219.036 69.2706 218.413 69.2502Z" fill="#0C0C0C"/>
<path d="M234.913 56.6549C230.06 55.5604 228.096 52.5808 227.303 50.2736C226.784 48.7338 226.593 47.1027 226.742 45.4849L226.892 45.5049C226.746 47.1016 226.935 48.7112 227.448 50.2306C228.229 52.4995 230.164 55.4293 234.948 56.5093L234.913 56.6549Z" fill="#0C0C0C"/>
<path d="M160.285 87.0074L155.482 77.9668C155.376 77.7682 155.23 77.5938 155.053 77.4546C154.876 77.3154 154.672 77.2145 154.454 77.1583C154.236 77.1021 154.009 77.0918 153.787 77.1281C153.564 77.1644 153.352 77.2466 153.163 77.3693C152.822 77.6065 152.581 77.9618 152.487 78.3664C152.393 78.7709 152.453 79.1959 152.655 79.559L153.685 81.4974L147.643 76.8852C146.98 76.3606 145.831 76.1401 145.29 76.9211C145.063 77.2081 144.939 77.5635 144.94 77.9295C144.941 78.2955 145.066 78.6504 145.295 78.9363C145.288 78.9414 145.282 78.947 145.277 78.9531C145.273 78.9584 145.272 78.9647 145.269 78.9701L144.247 78.1595C144.057 78.0098 143.837 77.9041 143.601 77.8502C143.366 77.7963 143.121 77.7956 142.886 77.848C142.65 77.9004 142.429 78.0047 142.238 78.1532C142.048 78.3017 141.893 78.4908 141.785 78.7066C141.623 79.0498 141.583 79.4385 141.672 79.8076C141.762 80.1767 141.976 80.5038 142.278 80.7344L142.714 81.0785C142.709 81.0957 142.708 81.1135 142.71 81.1311C142.362 80.9667 141.967 80.9311 141.596 81.0307C141.224 81.1303 140.9 81.3587 140.681 81.6749C140.452 82.0281 140.365 82.4544 140.437 82.8688C140.51 83.2832 140.736 83.6552 141.07 83.9106L142.151 84.7654C142.127 84.764 142.103 84.7683 142.081 84.778C142.059 84.7877 142.04 84.8024 142.025 84.821C142.009 84.8439 141.999 84.8711 141.998 84.8993C141.647 84.8388 141.286 84.8949 140.971 85.059C140.655 85.2231 140.402 85.4861 140.251 85.8075C140.099 86.1485 140.067 86.5306 140.16 86.892C140.253 87.2535 140.465 87.5731 140.762 87.7992L149.877 95.0119C151.152 96.0209 152.7 96.6267 154.323 96.7518C155.945 96.8769 157.568 96.5155 158.983 95.714C160.203 95.0229 161.105 93.8842 161.498 92.5397C161.891 91.1952 161.743 89.7508 161.085 88.5135L160.285 87.0074Z" fill="#E98862"/>
<g opacity="0.2">
<path opacity="0.2" d="M151.253 83.5308C151.228 83.5612 151.193 83.5808 151.154 83.5855C151.115 83.5901 151.076 83.5794 151.045 83.5556L145.305 79.1621C145.289 79.1502 145.276 79.1353 145.266 79.1183C145.256 79.1013 145.25 79.0825 145.247 79.0631C145.245 79.0436 145.246 79.0238 145.251 79.0049C145.256 78.9859 145.265 78.9681 145.277 78.9526C145.289 78.937 145.304 78.9239 145.321 78.9141C145.338 78.9043 145.357 78.8979 145.376 78.8953C145.396 78.8928 145.416 78.8941 145.435 78.8991C145.454 78.9042 145.471 78.913 145.487 78.9249L151.227 83.3187C151.259 83.3428 151.279 83.3784 151.284 83.4176C151.289 83.4568 151.279 83.4964 151.255 83.5278L151.253 83.5308Z" fill="#0C0C0C"/>
</g>
<g opacity="0.2">
<path opacity="0.2" d="M149.381 86.1111C149.356 86.1415 149.321 86.1611 149.282 86.1658C149.243 86.1704 149.204 86.1597 149.173 86.1359L142.768 81.2327C142.737 81.2086 142.716 81.1731 142.711 81.1339C142.706 81.0947 142.716 81.055 142.74 81.0236C142.765 80.9934 142.801 80.9738 142.839 80.9686C142.878 80.9635 142.918 80.9732 142.95 80.9958L149.356 85.8978C149.387 85.9219 149.408 85.9574 149.413 85.9966C149.418 86.0358 149.408 86.0755 149.384 86.1069L149.381 86.1111Z" fill="#0C0C0C"/>
</g>
<g opacity="0.2">
<path opacity="0.2" d="M147.371 88.9177C147.346 88.9481 147.311 88.9678 147.272 88.9724C147.233 88.977 147.194 88.9663 147.163 88.9425L142.053 85.0313C142.021 85.0072 142.001 84.9715 141.995 84.9322C141.99 84.8929 142.001 84.8531 142.025 84.8217C142.049 84.7902 142.085 84.7697 142.124 84.7645C142.164 84.7593 142.204 84.7699 142.235 84.7941L147.345 88.7062C147.376 88.7303 147.397 88.7658 147.402 88.805C147.407 88.8442 147.397 88.8839 147.373 88.9154L147.371 88.9177Z" fill="#0C0C0C"/>
</g>
<path d="M194.496 87.5081L178.965 114.682L163.092 85.751L144.123 96.3228L169.66 141.115C170.487 142.554 171.64 143.78 173.027 144.694C175.354 146.216 178.191 146.753 180.914 146.187C183.638 145.621 186.024 143.999 187.549 141.676L187.681 141.477L214.918 99.9873L194.496 87.5081Z" fill="#0E185F"/>
<path d="M160.285 87.007L155.482 77.9664C155.376 77.7678 155.23 77.5934 155.053 77.4542C154.876 77.315 154.672 77.2141 154.454 77.1579C154.236 77.1017 154.009 77.0914 153.787 77.1277C153.564 77.164 153.352 77.2462 153.163 77.3689C152.822 77.6061 152.581 77.9614 152.487 78.366C152.393 78.7705 152.453 79.1955 152.655 79.5586L153.685 81.497L155.286 84.9975" fill="#E98862"/>
<path d="M227.497 90.5156C237.701 90.0355 238.131 81.3901 238.131 81.3901C238.131 81.3901 243.187 81.7161 246.548 82.1702C252.051 82.9133 255.68 84.7758 258.569 87.6593C261.257 90.342 262.893 93.244 261.161 111.774C259.908 125.189 260.79 154.701 260.79 154.701H199.207C199.207 154.701 195.514 116.02 194.999 109.981C194.017 98.4517 189.993 91.953 195.617 86.014C199.695 81.7068 210.223 81.3901 214.461 81.3907C214.53 81.3907 213.601 91.1696 227.497 90.5156Z" fill="#0E185F"/>
<path d="M195.358 108.053C195.355 108.013 195.337 107.976 195.307 107.95C195.277 107.924 195.238 107.91 195.199 107.913C195.159 107.915 195.122 107.934 195.096 107.963C195.069 107.993 195.056 108.032 195.058 108.072L196.311 128.038C196.313 128.074 196.328 128.108 196.353 128.134C196.379 128.159 196.412 128.175 196.448 128.178C196.455 128.178 196.462 128.178 196.469 128.178C196.489 128.177 196.508 128.171 196.526 128.163C196.544 128.154 196.559 128.142 196.572 128.127C196.585 128.113 196.595 128.096 196.602 128.077C196.608 128.058 196.611 128.039 196.609 128.019" fill="#0C0C0C"/>
<path d="M208.926 137.199L198.964 134.783C198.745 134.73 198.518 134.723 198.296 134.763C198.074 134.802 197.863 134.887 197.676 135.013C197.489 135.138 197.33 135.301 197.21 135.491C197.09 135.681 197.01 135.894 196.977 136.116C196.928 136.529 197.034 136.945 197.275 137.283C197.515 137.622 197.873 137.859 198.28 137.949L200.416 138.468L192.949 139.916C192.116 140.062 191.188 140.774 191.415 141.696C191.478 142.056 191.663 142.385 191.937 142.627C192.212 142.869 192.561 143.012 192.927 143.031C192.926 143.039 192.926 143.047 192.927 143.055C192.927 143.061 192.933 143.066 192.934 143.073L191.65 143.298C191.412 143.34 191.187 143.435 190.99 143.575C190.793 143.715 190.63 143.897 190.513 144.108C190.396 144.319 190.327 144.553 190.312 144.794C190.297 145.034 190.336 145.275 190.426 145.499C190.575 145.849 190.84 146.136 191.176 146.315C191.512 146.493 191.899 146.55 192.273 146.477L192.819 146.381C192.829 146.395 192.842 146.408 192.856 146.418C192.502 146.569 192.213 146.84 192.041 147.184C191.869 147.527 191.825 147.921 191.917 148.294C192.029 148.699 192.291 149.048 192.649 149.269C193.007 149.491 193.436 149.569 193.85 149.489L195.208 149.25C195.191 149.267 195.178 149.287 195.171 149.31C195.164 149.333 195.162 149.357 195.166 149.38C195.172 149.408 195.186 149.433 195.206 149.453C194.928 149.675 194.731 149.981 194.644 150.326C194.558 150.67 194.587 151.033 194.728 151.36C194.882 151.699 195.147 151.977 195.479 152.148C195.812 152.319 196.192 152.372 196.559 152.3L208.014 150.283C209.616 150.001 211.098 149.248 212.269 148.12C213.44 146.992 214.246 145.541 214.585 143.952C214.877 142.582 214.623 141.152 213.876 139.967C213.13 138.781 211.949 137.933 210.586 137.602L208.926 137.199Z" fill="#E98862"/>
<g opacity="0.2">
<path opacity="0.2" d="M200.325 141.634C200.331 141.672 200.323 141.712 200.3 141.744C200.278 141.776 200.244 141.798 200.205 141.806L193.103 143.174C193.083 143.178 193.064 143.178 193.044 143.174C193.025 143.17 193.007 143.162 192.991 143.151C192.974 143.14 192.96 143.126 192.95 143.11C192.939 143.093 192.931 143.075 192.928 143.056C192.924 143.036 192.924 143.017 192.928 142.997C192.932 142.978 192.94 142.96 192.951 142.944C192.962 142.927 192.976 142.913 192.992 142.903C193.008 142.892 193.027 142.884 193.046 142.881L200.149 141.512C200.168 141.508 200.188 141.508 200.207 141.512C200.226 141.516 200.245 141.524 200.261 141.535C200.277 141.546 200.291 141.561 200.302 141.577C200.313 141.594 200.32 141.612 200.324 141.631L200.325 141.634Z" fill="#0C0C0C"/>
</g>
<g opacity="0.2">
<path opacity="0.2" d="M201.018 144.744C201.024 144.783 201.015 144.822 200.993 144.854C200.97 144.886 200.936 144.908 200.898 144.916L192.971 146.443C192.952 146.447 192.932 146.446 192.913 146.442C192.894 146.438 192.875 146.431 192.859 146.419C192.843 146.408 192.829 146.394 192.818 146.378C192.807 146.361 192.8 146.343 192.796 146.323C192.79 146.285 192.799 146.245 192.821 146.212C192.844 146.18 192.878 146.157 192.916 146.149L200.842 144.621C200.862 144.618 200.882 144.618 200.901 144.622C200.92 144.626 200.939 144.634 200.955 144.645C200.971 144.656 200.985 144.67 200.996 144.687C201.007 144.703 201.014 144.721 201.018 144.741V144.744Z" fill="#0C0C0C"/>
</g>
<g opacity="0.2">
<path opacity="0.2" d="M201.784 148.108C201.791 148.147 201.782 148.186 201.759 148.218C201.737 148.25 201.703 148.272 201.664 148.279L195.342 149.498C195.322 149.502 195.303 149.501 195.283 149.498C195.264 149.494 195.246 149.486 195.229 149.475C195.213 149.464 195.199 149.45 195.188 149.434C195.178 149.417 195.17 149.399 195.166 149.38C195.163 149.36 195.163 149.34 195.167 149.321C195.171 149.302 195.178 149.284 195.189 149.268C195.2 149.251 195.214 149.237 195.231 149.227C195.247 149.216 195.266 149.208 195.285 149.204L201.607 147.986C201.627 147.982 201.647 147.983 201.666 147.987C201.685 147.991 201.704 147.998 201.72 148.009C201.736 148.021 201.75 148.035 201.761 148.051C201.772 148.068 201.779 148.086 201.783 148.106L201.784 148.108Z" fill="#0C0C0C"/>
</g>
<path d="M207.933 154.195L261.461 154.486C263.185 154.674 264.929 154.46 266.557 153.861C268.184 153.262 269.65 152.296 270.84 151.036C272.03 149.777 272.912 148.26 273.416 146.604C273.92 144.947 274.032 143.197 273.744 141.49L261.819 93.8051C261.583 92.3473 261.059 90.9507 260.28 89.6954C259.5 88.4401 258.48 87.3511 257.278 86.4909C256.075 85.6307 254.714 85.0163 253.272 84.683C251.831 84.3498 250.338 84.3042 248.879 84.5491C247.42 84.7939 246.024 85.3242 244.771 86.1096C243.518 86.8949 242.433 87.9198 241.578 89.1252C240.724 90.3307 240.116 91.6929 239.791 93.1335C239.465 94.5742 239.428 96.0649 239.682 97.5198L248.828 133.443L208.192 134.777L207.933 154.195Z" fill="#0E185F"/>
<path d="M255.825 133.293C255.862 133.292 255.898 133.278 255.926 133.252C255.953 133.227 255.97 133.192 255.973 133.154C255.976 133.117 255.964 133.08 255.941 133.05C255.917 133.021 255.884 133.001 255.847 132.996L248.914 133.247C248.895 133.244 248.875 133.244 248.856 133.249C248.837 133.254 248.819 133.262 248.803 133.274C248.787 133.285 248.774 133.3 248.763 133.317C248.753 133.334 248.747 133.353 248.744 133.372C248.738 133.411 248.748 133.451 248.772 133.483C248.796 133.515 248.831 133.536 248.87 133.542L255.802 133.291C255.81 133.292 255.817 133.293 255.825 133.293Z" fill="#0C0C0C"/>
<path d="M259.904 154.701C259.944 154.703 259.983 154.69 260.013 154.664C260.043 154.638 260.061 154.601 260.064 154.561C260.066 154.522 260.053 154.483 260.027 154.453C260.001 154.423 259.964 154.405 259.924 154.402L208.246 154.08L208.473 134.959L248.866 133.542C248.889 133.545 248.913 133.542 248.935 133.535C248.957 133.527 248.977 133.514 248.993 133.497C249.01 133.481 249.022 133.46 249.029 133.438C249.035 133.415 249.037 133.392 249.033 133.369L244.628 111.776C244.625 111.757 244.618 111.738 244.608 111.721C244.598 111.705 244.584 111.69 244.568 111.679C244.552 111.667 244.534 111.659 244.514 111.655C244.495 111.651 244.475 111.65 244.456 111.654C244.417 111.66 244.382 111.682 244.359 111.714C244.336 111.747 244.326 111.787 244.333 111.826L248.703 133.218L208.359 134.641C208.34 134.639 208.319 134.64 208.3 134.646C208.281 134.651 208.263 134.66 208.247 134.672C208.232 134.685 208.218 134.7 208.209 134.717C208.199 134.735 208.193 134.754 208.191 134.774L207.932 154.194C207.928 154.233 207.939 154.272 207.963 154.303C207.987 154.333 208.023 154.353 208.061 154.359L259.884 154.699C259.891 154.7 259.897 154.701 259.904 154.701Z" fill="#0C0C0C"/>
<path d="M182.72 149.09L168.077 104.158C167.819 103.368 167.318 102.68 166.645 102.193C165.972 101.705 165.162 101.442 164.33 101.442H104.672C104.05 101.442 103.437 101.589 102.883 101.871C102.329 102.152 101.849 102.561 101.484 103.064C101.119 103.566 100.877 104.147 100.78 104.76C100.683 105.374 100.733 106.001 100.925 106.591L115.569 151.524C115.826 152.314 116.327 153.002 117 153.489C117.673 153.977 118.483 154.24 119.315 154.24H178.973C179.595 154.24 180.208 154.093 180.762 153.811C181.316 153.529 181.796 153.121 182.161 152.618C182.527 152.116 182.768 151.534 182.865 150.921C182.962 150.308 182.912 149.681 182.72 149.09Z" fill="#292A2E"/>
<path d="M210.71 150.597H170.775C169.78 150.597 168.973 151.402 168.973 152.395V152.441C168.973 153.435 169.78 154.24 170.775 154.24H210.71C211.705 154.24 212.512 153.435 212.512 152.441V152.395C212.512 151.402 211.705 150.597 210.71 150.597Z" fill="#292A2E"/>
<path d="M140.925 135.382C144.38 135.382 147.182 132.586 147.182 129.137C147.182 125.687 144.38 122.891 140.925 122.891C137.469 122.891 134.667 125.687 134.667 129.137C134.667 132.586 137.469 135.382 140.925 135.382Z" fill="white"/>
<path d="M238.441 59.4432C238.203 59.4432 237.975 59.3487 237.806 59.1806C237.638 59.0125 237.543 58.7846 237.543 58.5468V48.3365C237.543 43.1408 236.102 39.024 233.377 36.4313C230.794 33.9735 227.086 32.8433 222.362 33.0695C222.244 33.0757 222.126 33.0587 222.014 33.0192C221.903 32.9797 221.8 32.9187 221.712 32.8395C221.625 32.7603 221.553 32.6646 221.503 32.5578C221.452 32.4511 221.423 32.3354 221.418 32.2174C221.412 32.0995 221.43 31.9815 221.47 31.8704C221.51 31.7593 221.572 31.6572 221.651 31.57C221.731 31.4828 221.827 31.4122 221.935 31.3622C222.042 31.3123 222.158 31.2839 222.276 31.2789C227.511 31.0264 231.664 32.3246 234.617 35.1331C237.707 38.0727 239.34 42.6383 239.34 48.3362V58.5465C239.34 58.6644 239.317 58.7811 239.272 58.8899C239.227 58.9988 239.161 59.0977 239.077 59.181C238.994 59.2642 238.894 59.3303 238.785 59.3753C238.676 59.4202 238.559 59.4433 238.441 59.4432Z" fill="#0E185F"/>
<path d="M237.1 67.2739C240.867 67.2739 243.921 64.2254 243.921 60.4648C243.921 56.7043 240.867 53.6558 237.1 53.6558C233.332 53.6558 230.278 56.7043 230.278 60.4648C230.278 64.2254 233.332 67.2739 237.1 67.2739Z" fill="#0E185F"/>
<path d="M237.363 65.5656C237.315 65.5311 237.261 65.5063 237.204 65.4927C237.146 65.479 237.087 65.4768 237.028 65.4861C236.97 65.4954 236.914 65.5161 236.864 65.547C236.814 65.5779 236.77 65.6183 236.736 65.666L236.214 66.3857C235.574 67.2656 234.735 67.982 233.765 68.4765C232.795 68.9709 231.722 69.2295 230.633 69.231H222.328V69.0556C222.328 68.8179 222.233 68.5899 222.065 68.4218C221.897 68.2537 221.668 68.1593 221.43 68.1593H218.62C218.381 68.1593 218.153 68.2537 217.985 68.4218C217.816 68.5899 217.722 68.8179 217.722 69.0556V70.3678C217.722 70.6055 217.816 70.8335 217.985 71.0016C218.153 71.1697 218.381 71.2641 218.62 71.2641H221.43C221.668 71.2641 221.897 71.1697 222.065 71.0016C222.233 70.8335 222.328 70.6055 222.328 70.3678V70.1288H230.633C231.864 70.1271 233.077 69.8348 234.173 69.2759C235.27 68.717 236.218 67.9073 236.941 66.9128L237.463 66.193C237.498 66.1453 237.523 66.0912 237.537 66.0337C237.551 65.9763 237.553 65.9168 237.544 65.8585C237.534 65.8001 237.514 65.7443 237.482 65.694C237.451 65.6437 237.411 65.6001 237.363 65.5656Z" fill="#0E185F"/>
<path d="M238.736 67.2739C242.503 67.2739 245.557 64.2254 245.557 60.4648C245.557 56.7043 242.503 53.6558 238.736 53.6558C234.969 53.6558 231.915 56.7043 231.915 60.4648C231.915 64.2254 234.969 67.2739 238.736 67.2739Z" fill="#0E185F"/>
<path opacity="0.3" d="M238.736 67.2739C242.503 67.2739 245.557 64.2254 245.557 60.4648C245.557 56.7043 242.503 53.6558 238.736 53.6558C234.969 53.6558 231.915 56.7043 231.915 60.4648C231.915 64.2254 234.969 67.2739 238.736 67.2739Z" fill="white"/>
<path d="M109.182 155H274.701C274.781 155 274.857 154.968 274.913 154.912C274.969 154.856 275 154.78 275 154.701C275 154.622 274.969 154.546 274.913 154.49C274.857 154.434 274.781 154.402 274.701 154.402H109.182C109.103 154.402 109.027 154.434 108.97 154.49C108.914 154.546 108.883 154.622 108.883 154.701C108.883 154.78 108.914 154.856 108.97 154.912C109.027 154.968 109.103 155 109.182 155Z" fill="#292A2E"/>
</svg>
