<svg width="270" height="330" viewBox="0 0 270 330" fill="none" xmlns="http://www.w3.org/2000/svg">
<g clip-path="url(#clip0_221_2)">
<path d="M253.221 5.63929L8.06885 13.4653L17.9833 324.189L263.136 316.363L253.221 5.63929Z" fill="#292A2E"/>
<path opacity="0.58" d="M253.221 5.63929L8.06885 13.4653L17.9833 324.189L263.136 316.363L253.221 5.63929Z" fill="white"/>
<path d="M244.254 0.226641L0.227173 20.3628L25.7461 329.772L269.773 309.636L244.254 0.226641Z" fill="white"/>
<path d="M244.062 0.454638L269.547 309.444L25.9384 329.545L0.454528 20.5556L244.063 0.454638H244.062ZM244.447 0L0 20.1705L25.553 330L270 309.829L244.447 0Z" fill="black"/>
<path d="M227.654 22.0051L116.273 31.1958L116.938 39.2516L228.319 30.0609L227.654 22.0051Z" fill="#292A2E"/>
<path d="M229.546 43.9346L118.122 53.1011L118.157 53.5212L229.581 44.3547L229.546 43.9346Z" fill="black"/>
<path d="M230.767 58.7285L119.343 67.895L119.377 68.3151L230.801 59.1486L230.767 58.7285Z" fill="black"/>
<path d="M231.987 73.5225L120.563 82.689L120.597 83.1091L232.021 73.9426L231.987 73.5225Z" fill="black"/>
<path d="M233.207 88.3165L121.783 97.4829L121.817 97.903L233.241 88.7365L233.207 88.3165Z" fill="black"/>
<path d="M173.046 108.168L123.004 112.285L123.038 112.705L173.08 108.588L173.046 108.168Z" fill="black"/>
<path d="M236.283 126.617L28.7987 143.738L29.4631 151.794L236.947 134.673L236.283 126.617Z" fill="#292A2E"/>
<path d="M135.637 244.511L50.9464 251.479L50.981 251.899L135.672 244.931L135.637 244.511Z" fill="black"/>
<path d="M137.074 261.922L52.3828 268.889L52.4174 269.309L137.108 262.342L137.074 261.922Z" fill="black"/>
<path d="M138.51 279.332L53.8188 286.299L53.8534 286.719L138.544 279.752L138.51 279.332Z" fill="black"/>
<path d="M139.946 296.743L55.2548 303.71L55.2893 304.131L139.98 297.163L139.946 296.743Z" fill="black"/>
<path d="M42.1279 255.621C44.5882 255.621 46.5827 253.626 46.5827 251.165C46.5827 248.704 44.5882 246.709 42.1279 246.709C39.6677 246.709 37.6732 248.704 37.6732 251.165C37.6732 253.626 39.6677 255.621 42.1279 255.621Z" fill="#292A2E"/>
<path d="M46.53 308.996C48.9903 308.996 50.9847 307.001 50.9847 304.54C50.9847 302.079 48.9903 300.084 46.53 300.084C44.0698 300.084 42.0753 302.079 42.0753 304.54C42.0753 307.001 44.0698 308.996 46.53 308.996Z" fill="#292A2E"/>
<path d="M45.0949 291.591C47.5551 291.591 49.5496 289.596 49.5496 287.135C49.5496 284.675 47.5551 282.68 45.0949 282.68C42.6346 282.68 40.6401 284.675 40.6401 287.135C40.6401 289.596 42.6346 291.591 45.0949 291.591Z" fill="#292A2E"/>
<path d="M43.6112 273.606C46.0715 273.606 48.0659 271.611 48.0659 269.15C48.0659 266.689 46.0715 264.694 43.6112 264.694C41.1509 264.694 39.1565 266.689 39.1565 269.15C39.1565 271.611 41.1509 273.606 43.6112 273.606Z" fill="#292A2E"/>
<path d="M245.343 235.458L160.652 242.425L160.687 242.845L245.378 235.878L245.343 235.458Z" fill="black"/>
<path d="M246.779 252.869L162.088 259.836L162.123 260.257L246.814 253.289L246.779 252.869Z" fill="black"/>
<path d="M248.215 270.279L163.524 277.247L163.558 277.667L248.249 270.699L248.215 270.279Z" fill="black"/>
<path d="M249.651 287.69L164.96 294.658L164.995 295.078L249.686 288.111L249.651 287.69Z" fill="black"/>
<path d="M151.793 246.571C154.253 246.571 156.248 244.576 156.248 242.115C156.248 239.654 154.253 237.659 151.793 237.659C149.333 237.659 147.338 239.654 147.338 242.115C147.338 244.576 149.333 246.571 151.793 246.571Z" fill="#292A2E"/>
<path d="M156.195 299.946C158.655 299.946 160.65 297.951 160.65 295.49C160.65 293.029 158.655 291.034 156.195 291.034C153.735 291.034 151.74 293.029 151.74 295.49C151.74 297.951 153.735 299.946 156.195 299.946Z" fill="#292A2E"/>
<path d="M154.76 282.542C157.22 282.542 159.215 280.547 159.215 278.086C159.215 275.625 157.22 273.63 154.76 273.63C152.3 273.63 150.305 275.625 150.305 278.086C150.305 280.547 152.3 282.542 154.76 282.542Z" fill="#292A2E"/>
<path d="M153.277 264.557C155.737 264.557 157.731 262.562 157.731 260.101C157.731 257.64 155.737 255.645 153.277 255.645C150.816 255.645 148.822 257.64 148.822 260.101C148.822 262.562 150.816 264.557 153.277 264.557Z" fill="#292A2E"/>
<path d="M65.4739 79.6774C73.5723 79.6774 80.1372 73.1108 80.1372 65.0106C80.1372 56.9103 73.5723 50.3438 65.4739 50.3438C57.3756 50.3438 50.8107 56.9103 50.8107 65.0106C50.8107 73.1108 57.3756 79.6774 65.4739 79.6774Z" fill="#0E185F"/>
<path d="M102.2 101.2C98.5996 106.566 93.8369 111.052 88.2655 114.325C82.6942 117.597 76.4574 119.572 70.0183 120.104C63.5791 120.635 57.1031 119.709 51.0709 117.394C45.0387 115.079 39.6054 111.434 35.1743 106.731C38.6621 101.223 43.3795 96.6001 48.9556 93.2247C54.5317 89.8492 60.8146 87.8135 67.3103 87.2775C73.806 86.7415 80.3374 87.7198 86.3912 90.1356C92.4449 92.5514 97.856 96.3388 102.199 101.2H102.2Z" fill="#0E185F"/>
<path d="M66.5305 34.602C77.5221 34.6139 88.0837 38.8746 96.0079 46.4937C103.932 54.1127 108.606 64.5003 109.052 75.4855C109.498 86.4707 105.682 97.2031 98.4011 105.44C91.1206 113.676 80.9392 118.78 69.9848 119.683C68.8053 119.78 67.611 119.83 66.4341 119.83C55.4425 119.818 44.8809 115.557 36.9567 107.938C29.0325 100.319 24.359 89.9313 23.913 78.9462C23.467 67.961 27.283 57.2285 34.5635 48.9919C41.844 40.7553 52.0254 35.652 62.9798 34.7486C64.1593 34.6513 65.3527 34.602 66.531 34.602H66.5305ZM66.531 34.1807C65.3456 34.1807 64.1484 34.2295 62.9461 34.3286C57.3152 34.7928 51.8309 36.3619 46.8062 38.9462C41.7816 41.5306 37.3151 45.0795 33.6618 49.3905C30.0084 53.7015 27.2398 58.6901 25.514 64.0714C23.7882 69.4527 23.139 75.1213 23.6035 80.7535C24.4905 91.5093 29.3854 101.539 37.3179 108.855C45.2504 116.171 55.6414 120.238 66.4311 120.251C67.6168 120.251 68.8119 120.202 70.0164 120.103C75.6471 119.638 81.1312 118.069 86.1555 115.484C91.1798 112.9 95.646 109.351 99.2991 105.04C102.952 100.729 105.721 95.7404 107.446 90.3593C109.172 84.9782 109.821 79.3098 109.356 73.6777C108.47 62.9219 103.575 52.892 95.6419 45.5764C87.7093 38.2607 77.3182 34.1934 66.5284 34.1807H66.531Z" fill="black"/>
<path d="M238.35 150.664L30.785 167.739L30.8196 168.159L238.384 151.084L238.35 150.664Z" fill="black"/>
<path d="M239.48 165.386L31.9938 182.478L32.0283 182.897L239.515 165.805L239.48 165.386Z" fill="black"/>
<path d="M240.7 180.175L33.2137 197.267L33.2483 197.686L240.735 180.594L240.7 180.175Z" fill="black"/>
<path d="M241.92 194.963L34.4332 212.055L34.4678 212.475L241.954 195.383L241.92 194.963Z" fill="black"/>
<path d="M85.7094 222.819L35.6672 226.936L35.7018 227.356L85.7439 223.239L85.7094 222.819Z" fill="black"/>
<path d="M27.9057 4.31046C29.4949 4.54435 30.9327 5.38237 31.9196 6.65002C32.9066 7.91766 33.3667 9.51724 33.2041 11.1157L31.001 34.9221C30.8902 36.1707 30.2884 37.3243 29.3278 38.1294C28.3671 38.9345 27.1262 39.3252 25.8778 39.2156C24.6723 39.0815 23.5676 38.4799 22.8006 37.5401C22.0336 36.6002 21.6657 35.3971 21.7756 34.1889L24.0415 9.71176C24.1036 8.94476 24.4479 8.22804 25.0078 7.70026C25.5676 7.17248 26.3033 6.87115 27.0724 6.85458C27.4972 6.85336 27.9176 6.94086 28.3066 7.11147C28.6956 7.28208 29.0448 7.53204 29.3317 7.84536C29.6186 8.15867 29.837 8.52845 29.9728 8.93103C30.1087 9.3336 30.159 9.76011 30.1206 10.1833L28.5304 27.3651C28.5112 27.572 28.4106 27.7628 28.2508 27.8955C28.091 28.0283 27.885 28.0921 27.6782 28.073C27.5757 28.0635 27.476 28.0338 27.385 27.9858C27.294 27.9377 27.2133 27.8722 27.1476 27.7929C27.0819 27.7136 27.0325 27.6221 27.0022 27.5237C26.9718 27.4253 26.9612 27.3219 26.9709 27.2193L28.5548 10.1053C28.596 9.73132 28.4977 9.35531 28.2788 9.04934C28.0598 8.74338 27.7357 8.529 27.3686 8.44729C27.1653 8.40799 26.956 8.41169 26.7542 8.45813C26.5525 8.50456 26.3626 8.59272 26.1969 8.71694C26.0313 8.84115 25.8934 8.99866 25.7922 9.17936C25.691 9.36005 25.6288 9.55992 25.6094 9.76612L23.3435 34.2441C23.2634 35.0125 23.471 35.7834 23.9263 36.4074C24.3816 37.0315 25.0522 37.4645 25.8083 37.6225C26.2274 37.7022 26.6587 37.6935 27.0743 37.5969C27.4899 37.5003 27.8808 37.3179 28.2218 37.0614C28.5629 36.8049 28.8466 36.48 29.0548 36.1074C29.263 35.7349 29.3912 35.323 29.431 34.8981L31.6485 10.9417C31.7675 9.70789 31.3921 8.47728 30.6046 7.52021C29.8171 6.56313 28.682 5.95789 27.4486 5.83743C26.2528 5.74856 25.0698 6.13245 24.1539 6.90662C23.238 7.68078 22.6622 8.78343 22.5503 9.97763L20.6475 30.5299C20.6381 30.6323 20.6085 30.7318 20.5606 30.8228C20.5127 30.9138 20.4473 30.9944 20.3682 31.0601C20.2891 31.1258 20.1978 31.1753 20.0996 31.2057C20.0014 31.2361 19.8981 31.2469 19.7958 31.2374C19.6934 31.2279 19.5938 31.1984 19.5028 31.1505C19.4118 31.1026 19.3311 31.0372 19.2654 30.9581C19.1997 30.8789 19.1502 30.7876 19.1198 30.6894C19.0893 30.5911 19.0786 30.4878 19.0881 30.3854L20.9904 9.83311C21.0675 9.01056 21.3096 8.21199 21.7022 7.48509C22.0947 6.7582 22.6297 6.11789 23.2751 5.60241C23.9206 5.08693 24.6633 4.70685 25.4589 4.48487C26.2545 4.2629 27.0866 4.20358 27.9057 4.31046Z" fill="#0E185F"/>
</g>
<defs>
<clipPath id="clip0_221_2">
<rect width="270" height="330" fill="white"/>
</clipPath>
</defs>
</svg>
