<svg width="54" height="39" viewBox="0 0 54 39" fill="none" xmlns="http://www.w3.org/2000/svg">
<path d="M0 19.5C0 8.73045 8.73045 0 19.5 0H34.5C45.2696 0 54 8.73045 54 19.5C54 30.2696 45.2696 39 34.5 39H19.5C8.73045 39 0 30.2696 0 19.5Z" fill="#0E185F"/>
<path d="M27 8C33.627 8 39 13.373 39 20C39 26.627 33.627 32 27 32C20.373 32 15 26.627 15 20C15 13.373 20.373 8 27 8ZM27 14C26.8188 14 26.6437 14.0656 26.5071 14.1848C26.3705 14.3039 26.2816 14.4684 26.257 14.648L26.25 14.75V19.25H21.75C21.56 19.2501 21.3771 19.3222 21.2382 19.452C21.0994 19.5817 21.0149 19.7593 21.002 19.9489C20.989 20.1385 21.0485 20.3259 21.1684 20.4733C21.2883 20.6207 21.4597 20.7171 21.648 20.743L21.75 20.75H26.25V25.25C26.2501 25.44 26.3222 25.6229 26.452 25.7618C26.5817 25.9006 26.7593 25.9851 26.9489 25.998C27.1385 26.011 27.3259 25.9515 27.4733 25.8316C27.6207 25.7117 27.7171 25.5402 27.743 25.352L27.75 25.25V20.75H32.25C32.44 20.7499 32.6229 20.6778 32.7618 20.548C32.9006 20.4183 32.9851 20.2407 32.998 20.0511C33.011 19.8615 32.9515 19.6741 32.8316 19.5267C32.7117 19.3793 32.5402 19.2829 32.352 19.257L32.25 19.25H27.75V14.75C27.75 14.5511 27.671 14.3603 27.5303 14.2197C27.3897 14.079 27.1989 14 27 14Z" fill="white"/>
</svg>
