<svg width="30" height="30" viewBox="0 0 30 30" fill="none" xmlns="http://www.w3.org/2000/svg">
<path d="M10.3662 20.3662L12.1337 22.1337L15 19.2675L17.8662 22.1337L19.6337 20.3662L16.7675 17.5L19.6337 14.6337L17.8662 12.8662L15 15.7325L12.1337 12.8662L10.3662 14.6337L13.2325 17.5L10.3662 20.3662Z" fill="black"/>
<path d="M23.75 5H21.25V2.5H18.75V5H11.25V2.5H8.75V5H6.25C4.87125 5 3.75 6.12125 3.75 7.5V25C3.75 26.3787 4.87125 27.5 6.25 27.5H23.75C25.1287 27.5 26.25 26.3787 26.25 25V7.5C26.25 6.12125 25.1287 5 23.75 5ZM23.7525 25H6.25V10H23.75L23.7525 25Z" fill="black"/>
</svg>
