<svg width="45" height="45" viewBox="0 0 45 45" fill="none" xmlns="http://www.w3.org/2000/svg">
<path d="M13.125 22.5H12.3862C11.6455 22.4998 10.9213 22.7191 10.305 23.13L5.625 26.25V9.375C5.625 8.38044 6.02009 7.42661 6.72335 6.72335C7.42661 6.02009 8.38044 5.625 9.375 5.625H22.5C23.4946 5.625 24.4484 6.02009 25.1516 6.72335C25.8549 7.42661 26.25 8.38044 26.25 9.375V13.125" stroke="#0E185F" stroke-width="2" stroke-linecap="round" stroke-linejoin="round"/>
<path d="M22.5 18.75H35.625C36.6196 18.75 37.5734 19.1451 38.2766 19.8484C38.9799 20.5516 39.375 21.5054 39.375 22.5V39.375L34.695 36.255C34.0787 35.8441 33.3545 35.6248 32.6137 35.625H22.5C21.5054 35.625 20.5516 35.2299 19.8484 34.5266C19.1451 33.8234 18.75 32.8696 18.75 31.875V22.5C18.75 21.5054 19.1451 20.5516 19.8484 19.8484C20.5516 19.1451 21.5054 18.75 22.5 18.75Z" fill="#0E185F" stroke="#0E185F" stroke-width="2" stroke-linecap="round" stroke-linejoin="round"/>
</svg>
