<svg width="34" height="34" viewBox="0 0 34 34" fill="none" xmlns="http://www.w3.org/2000/svg">
<path fill-rule="evenodd" clip-rule="evenodd" d="M17.3826 1.40332C9.01097 1.40332 2.22412 8.20345 2.22412 16.5914C2.22412 24.9794 9.01097 31.7795 17.3826 31.7795C25.7542 31.7795 32.541 24.9794 32.541 16.5914C32.541 8.20345 25.7542 1.40332 17.3826 1.40332ZM23.9531 14.0233C24.0741 13.8847 24.1662 13.7233 24.224 13.5485C24.2818 13.3738 24.3041 13.1892 24.2897 13.0056C24.2752 12.8221 24.2243 12.6433 24.1399 12.4798C24.0555 12.3162 23.9393 12.1713 23.7981 12.0534C23.6569 11.9356 23.4937 11.8472 23.3179 11.7935C23.1422 11.7397 22.9575 11.7218 22.7747 11.7407C22.5919 11.7595 22.4147 11.8148 22.2536 11.9033C22.0925 11.9918 21.9506 12.1117 21.8364 12.2559L15.9108 19.3791L12.8447 16.3056C12.5848 16.0541 12.2367 15.9149 11.8754 15.9181C11.514 15.9212 11.1684 16.0664 10.9129 16.3224C10.6574 16.5784 10.5125 16.9247 10.5093 17.2868C10.5062 17.6488 10.6451 17.9976 10.8961 18.258L15.0303 22.4002C15.1657 22.5358 15.3278 22.6416 15.5062 22.7109C15.6847 22.7803 15.8757 22.8116 16.0669 22.8029C16.2581 22.7942 16.4455 22.7456 16.6169 22.6604C16.7884 22.5751 16.9403 22.455 17.0629 22.3077L23.9531 14.0233Z" fill="#8CBE7B"/>
</svg>
