<svg width="42" height="34" viewBox="0 0 42 34" fill="none" xmlns="http://www.w3.org/2000/svg">
<path d="M0 6C0 4.54131 0.553124 3.14236 1.53769 2.11091C2.52226 1.07946 3.85761 0.5 5.25 0.5H36.75C38.1424 0.5 39.4777 1.07946 40.4623 2.11091C41.4469 3.14236 42 4.54131 42 6V19.75H0V6ZM30.1875 8.75C29.8394 8.75 29.5056 8.89487 29.2594 9.15273C29.0133 9.41059 28.875 9.76033 28.875 10.125V12.875C28.875 13.2397 29.0133 13.5894 29.2594 13.8473C29.5056 14.1051 29.8394 14.25 30.1875 14.25H35.4375C35.7856 14.25 36.1194 14.1051 36.3656 13.8473C36.6117 13.5894 36.75 13.2397 36.75 12.875V10.125C36.75 9.76033 36.6117 9.41059 36.3656 9.15273C36.1194 8.89487 35.7856 8.75 35.4375 8.75H30.1875ZM0 25.25V28C0 29.4587 0.553124 30.8576 1.53769 31.8891C2.52226 32.9205 3.85761 33.5 5.25 33.5H36.75C38.1424 33.5 39.4777 32.9205 40.4623 31.8891C41.4469 30.8576 42 29.4587 42 28V25.25H0Z" fill="#0E185F"/>
</svg>
