<svg width="31" height="31" viewBox="0 0 31 31" fill="none" xmlns="http://www.w3.org/2000/svg">
<path d="M15.5014 12.09C15.0534 12.09 14.6098 12.1782 14.1958 12.3497C13.7819 12.5211 13.4059 12.7724 13.0891 13.0892C12.7723 13.406 12.521 13.7821 12.3495 14.196C12.1781 14.6099 12.0898 15.0535 12.0898 15.5015C12.0898 15.9496 12.1781 16.3932 12.3495 16.8071C12.521 17.221 12.7723 17.5971 13.0891 17.9139C13.4059 18.2307 13.7819 18.482 14.1958 18.6534C14.6098 18.8248 15.0534 18.9131 15.5014 18.9131C16.4062 18.9129 17.2739 18.5533 17.9135 17.9133C18.5531 17.2734 18.9124 16.4056 18.9122 15.5008C18.912 14.596 18.5523 13.7283 17.9124 13.0887C17.2725 12.449 16.4046 12.0898 15.4998 12.09H15.5014ZM15.5014 8.05999C15.9492 8.05979 16.3926 7.97138 16.8062 7.79983C17.2199 7.62827 17.5957 7.37692 17.9122 7.06013C18.2287 6.74334 18.4797 6.36731 18.6509 5.95351C18.822 5.53971 18.91 5.09625 18.9098 4.64844C18.9096 4.20063 18.8212 3.75725 18.6497 3.34361C18.4781 2.92997 18.2268 2.55416 17.91 2.23766C17.5932 1.92116 17.2172 1.67015 16.8034 1.49897C16.3896 1.32779 15.9461 1.23979 15.4983 1.23999C14.5939 1.2404 13.7267 1.60006 13.0875 2.23985C12.4483 2.87964 12.0894 3.74715 12.0898 4.65154C12.0903 5.55593 12.4499 6.42311 13.0897 7.06232C13.7295 7.70153 14.597 8.0604 15.5014 8.05999ZM15.5014 22.94C14.5966 22.94 13.7289 23.2994 13.0891 23.9392C12.4493 24.579 12.0898 25.4467 12.0898 26.3515C12.0898 27.2563 12.4493 28.1241 13.0891 28.7639C13.7289 29.4037 14.5966 29.7631 15.5014 29.7631C16.4062 29.7631 17.2739 29.4037 17.9137 28.7639C18.5535 28.1241 18.9129 27.2563 18.9129 26.3515C18.9129 25.4467 18.5535 24.579 17.9137 23.9392C17.2739 23.2994 16.4062 22.94 15.5014 22.94Z" fill="#0E185F"/>
</svg>
