<svg width="24" height="24" viewBox="0 0 24 24" fill="none" xmlns="http://www.w3.org/2000/svg">
<g clip-path="url(#clip0_221_2686)">
<path d="M6 24C6 24 4.5 24 4.5 22.5C4.5 21 6 16.5 12 16.5C18 16.5 19.5 21 19.5 22.5C19.5 24 18 24 18 24H6ZM12 15.075C12.9946 15.075 13.9484 14.6799 14.6517 13.9766C15.3549 13.2733 15.75 12.3195 15.75 11.325C15.75 10.3304 15.3549 9.37656 14.6517 8.6733C13.9484 7.97004 12.9946 7.57495 12 7.57495C11.0054 7.57495 10.0516 7.97004 9.34835 8.6733C8.64509 9.37656 8.25 10.3304 8.25 11.325C8.25 12.3195 8.64509 13.2733 9.34835 13.9766C10.0516 14.6799 11.0054 15.075 12 15.075Z" fill="#0E185F"/>
<path d="M3 1.5C2.20435 1.5 1.44129 1.81607 0.87868 2.37868C0.316071 2.94129 0 3.70435 0 4.5L0 18.75C0 19.3467 0.237053 19.919 0.65901 20.341C1.08097 20.7629 1.65326 21 2.25 21H3.2295C3.54314 19.8977 4.08826 18.8749 4.8285 18H1.5V4.5C1.5 4.10218 1.65804 3.72064 1.93934 3.43934C2.22064 3.15804 2.60218 3 3 3H21C21.3978 3 21.7794 3.15804 22.0607 3.43934C22.342 3.72064 22.5 4.10218 22.5 4.5V18H19.1715C20.0025 18.981 20.5065 20.0595 20.7705 21H21.75C22.3467 21 22.919 20.7629 23.341 20.341C23.7629 19.919 24 19.3467 24 18.75V4.5C24 3.70435 23.6839 2.94129 23.1213 2.37868C22.5587 1.81607 21.7956 1.5 21 1.5H3Z" fill="#0E185F"/>
</g>
<defs>
<clipPath id="clip0_221_2686">
<rect width="24" height="24" fill="white"/>
</clipPath>
</defs>
</svg>
