<svg width="48" height="47" viewBox="0 0 48 47" fill="none" xmlns="http://www.w3.org/2000/svg">
<path d="M24 5.875C33.9 5.875 42 13.8063 42 23.5C42 33.1938 33.9 41.125 24 41.125C14.1 41.125 6 33.1938 6 23.5C6 13.8063 14.1 5.875 24 5.875ZM24 2.9375C12.45 2.9375 3 12.1906 3 23.5C3 34.8094 12.45 44.0625 24 44.0625C35.55 44.0625 45 34.8094 45 23.5C45 12.1906 35.55 2.9375 24 2.9375Z" fill="white"/>
<path d="M36 22.0312H25.5V11.75H22.5V22.0312H12V24.9688H22.5V35.25H25.5V24.9688H36V22.0312Z" fill="white"/>
</svg>
