<svg width="45" height="45" viewBox="0 0 45 45" fill="none" xmlns="http://www.w3.org/2000/svg">
<path d="M28.125 5.625H11.25C9.69375 5.625 8.3625 6.5625 7.8 7.9125L2.1375 21.1313C1.96875 21.5625 1.875 22.0125 1.875 22.5V26.25C1.875 28.3125 3.5625 30 5.625 30H17.4563L15.675 38.5687L15.6187 39.1687C15.6187 39.9375 15.9375 40.65 16.4438 41.1562L18.4312 43.125L30.7875 30.7687C31.4625 30.0938 31.875 29.1562 31.875 28.125V9.375C31.875 7.3125 30.1875 5.625 28.125 5.625ZM35.625 5.625V28.125H43.125V5.625H35.625Z" fill="#0E185F"/>
</svg>
