<svg width="115" height="39" viewBox="0 0 115 39" fill="none" xmlns="http://www.w3.org/2000/svg">
<rect width="115" height="39" rx="19.5" fill="#0E185F"/>
<path d="M43.48 13.1L38.26 27H35.62L30.38 13.1H32.82L36.94 24.66L41.08 13.1H43.48ZM55.1534 21.22C55.1534 21.6333 55.1267 22.0067 55.0734 22.34H46.6534C46.7201 23.22 47.0467 23.9267 47.6334 24.46C48.2201 24.9933 48.9401 25.26 49.7934 25.26C51.0201 25.26 51.8867 24.7467 52.3934 23.72H54.8534C54.5201 24.7333 53.9134 25.5667 53.0334 26.22C52.1667 26.86 51.0867 27.18 49.7934 27.18C48.7401 27.18 47.7934 26.9467 46.9534 26.48C46.1267 26 45.4734 25.3333 44.9934 24.48C44.5267 23.6133 44.2934 22.6133 44.2934 21.48C44.2934 20.3467 44.5201 19.3533 44.9734 18.5C45.4401 17.6333 46.0867 16.9667 46.9134 16.5C47.7534 16.0333 48.7134 15.8 49.7934 15.8C50.8334 15.8 51.7601 16.0267 52.5734 16.48C53.3867 16.9333 54.0201 17.5733 54.4734 18.4C54.9267 19.2133 55.1534 20.1533 55.1534 21.22ZM52.7734 20.5C52.7601 19.66 52.4601 18.9867 51.8734 18.48C51.2867 17.9733 50.5601 17.72 49.6934 17.72C48.9067 17.72 48.2334 17.9733 47.6734 18.48C47.1134 18.9733 46.7801 19.6467 46.6734 20.5H52.7734ZM59.3438 17.58C59.6771 17.02 60.1171 16.5867 60.6638 16.28C61.2238 15.96 61.8838 15.8 62.6438 15.8V18.16H62.0638C61.1705 18.16 60.4905 18.3867 60.0238 18.84C59.5705 19.2933 59.3438 20.08 59.3438 21.2V27H57.0638V15.98H59.3438V17.58ZM65.5663 14.52C65.1529 14.52 64.8063 14.38 64.5263 14.1C64.2463 13.82 64.1063 13.4733 64.1063 13.06C64.1063 12.6467 64.2463 12.3 64.5263 12.02C64.8063 11.74 65.1529 11.6 65.5663 11.6C65.9663 11.6 66.3063 11.74 66.5863 12.02C66.8663 12.3 67.0063 12.6467 67.0063 13.06C67.0063 13.4733 66.8663 13.82 66.5863 14.1C66.3063 14.38 65.9663 14.52 65.5663 14.52ZM66.6863 15.98V27H64.4063V15.98H66.6863ZM73.9664 17.84H71.9264V27H69.6264V17.84H68.3264V15.98H69.6264V15.2C69.6264 13.9333 69.9597 13.0133 70.6264 12.44C71.3064 11.8533 72.3664 11.56 73.8064 11.56V13.46C73.113 13.46 72.6264 13.5933 72.3464 13.86C72.0664 14.1133 71.9264 14.56 71.9264 15.2V15.98H73.9664V17.84ZM85.5736 15.98L78.8136 32.18H76.4536L78.6936 26.82L74.3536 15.98H76.8936L79.9936 24.38L83.2136 15.98H85.5736Z" fill="white"/>
</svg>
