<svg width="144" height="123" viewBox="0 0 144 123" fill="none" xmlns="http://www.w3.org/2000/svg">
<path d="M112.292 120.954C111.645 121.603 110.876 122.117 110.03 122.468C109.183 122.819 108.276 123 107.36 123C106.443 123 105.536 122.819 104.69 122.468C103.843 122.117 103.075 121.603 102.427 120.954L87.5949 106.123C86.9472 105.476 86.4333 104.707 86.0828 103.861C85.7322 103.014 85.5518 102.108 85.5518 101.192C85.5518 100.276 85.7322 99.3687 86.0828 98.5224C86.4333 97.6762 86.9472 96.9073 87.5949 96.2597C88.9031 94.9516 90.6773 94.2168 92.5274 94.2168C93.4434 94.2168 94.3505 94.3972 95.1968 94.7477C96.0431 95.0982 96.8121 95.612 97.4598 96.2597L107.325 106.123L132.092 81.359C132.74 80.7113 133.509 80.1976 134.355 79.8471C135.201 79.4965 136.108 79.3161 137.024 79.3161C137.94 79.3161 138.848 79.4965 139.694 79.8471C140.54 80.1976 141.309 80.7113 141.957 81.359C142.605 82.0067 143.118 82.7756 143.469 83.6218C143.82 84.468 144 85.375 144 86.2909C144 87.2068 143.82 88.1138 143.469 88.96C143.118 89.8063 142.605 90.5752 141.957 91.2228L112.292 120.954ZM70.5237 111.93H13.9928C6.29676 111.93 0 105.634 0 97.9386V13.9912C0 6.29605 6.29676 0 13.9928 0H125.935C133.631 0 139.928 6.29605 139.928 13.9912V60.7219C132.466 57.1727 124.228 55.5702 115.98 56.0639C107.731 56.5575 99.7426 59.1313 92.7578 63.5452C85.773 67.9591 80.0196 74.0695 76.0339 81.3067C72.0482 88.5439 69.96 96.6723 69.964 104.934C69.964 107.313 70.1739 109.621 70.5237 111.93ZM66.2559 60.652C68.4947 62.0511 71.4332 62.0511 73.6721 60.652L123.137 29.7314C123.838 29.3376 124.452 28.8056 124.942 28.1675C125.432 27.5295 125.788 26.7986 125.987 26.0193C126.186 25.2399 126.225 24.4282 126.102 23.6333C125.978 22.8384 125.695 22.0769 125.269 21.3947C124.842 20.7125 124.282 20.124 123.621 19.6646C122.961 19.2053 122.214 18.8847 121.426 18.7224C120.638 18.56 119.825 18.5591 119.037 18.7199C118.249 18.8807 117.501 19.1997 116.84 19.6577L69.964 48.9693L23.0881 19.6577C22.4267 19.1997 21.6792 18.8807 20.8909 18.7199C20.1026 18.5591 19.2899 18.56 18.5019 18.7224C17.714 18.8847 16.9672 19.2053 16.3067 19.6646C15.6462 20.124 15.0858 20.7125 14.6594 21.3947C14.233 22.0769 13.9495 22.8384 13.826 23.6333C13.7025 24.4282 13.7415 25.2399 13.9409 26.0193C14.1402 26.7986 14.4955 27.5295 14.9855 28.1675C15.4755 28.8056 16.0898 29.3376 16.7914 29.7314L66.2559 60.652Z" fill="#0E185F"/>
</svg>
