<svg width="24" height="24" viewBox="0 0 24 24" fill="none" xmlns="http://www.w3.org/2000/svg">
<path d="M12.625 2.21986C12.4476 2.07786 12.2272 2.00049 12 2.00049C11.7728 2.00049 11.5524 2.07786 11.375 2.21986L7.625 5.21986C7.5179 5.30032 7.42806 5.40147 7.36081 5.51731C7.29356 5.63316 7.25026 5.76133 7.2335 5.89423C7.21673 6.02712 7.22684 6.16203 7.26321 6.29095C7.29959 6.41987 7.36149 6.54016 7.44525 6.64469C7.52901 6.74923 7.63292 6.83587 7.75081 6.89947C7.86869 6.96307 7.99816 7.00234 8.13151 7.01495C8.26487 7.02756 8.3994 7.01324 8.52711 6.97286C8.65483 6.93248 8.77313 6.86685 8.875 6.77986L12 4.27986L15.125 6.77986C15.3327 6.93591 15.593 7.00499 15.8508 6.97248C16.1086 6.93996 16.3436 6.80839 16.506 6.60564C16.6685 6.40289 16.7456 6.14487 16.7212 5.88622C16.6967 5.62756 16.5726 5.38858 16.375 5.21986L12.625 2.21986ZM2.75 8.99986C2.15326 8.99986 1.58097 9.23692 1.15901 9.65887C0.737053 10.0808 0.5 10.6531 0.5 11.2499V12.7499C0.5 13.3466 0.737053 13.9189 1.15901 14.3409C1.58097 14.7628 2.15326 14.9999 2.75 14.9999C3.34674 14.9999 3.91903 14.7628 4.34099 14.3409C4.76295 13.9189 5 13.3466 5 12.7499V11.2499C5 10.9544 4.9418 10.6618 4.82873 10.3888C4.71566 10.1158 4.54992 9.86781 4.34099 9.65887C4.13206 9.44994 3.88402 9.28421 3.61104 9.17113C3.33806 9.05806 3.04547 8.99986 2.75 8.99986ZM2 11.2499C2 11.051 2.07902 10.8602 2.21967 10.7195C2.36032 10.5789 2.55109 10.4999 2.75 10.4999C2.94891 10.4999 3.13968 10.5789 3.28033 10.7195C3.42098 10.8602 3.5 11.051 3.5 11.2499V12.7499C3.5 12.9488 3.42098 13.1395 3.28033 13.2802C3.13968 13.4208 2.94891 13.4999 2.75 13.4999C2.55109 13.4999 2.36032 13.4208 2.21967 13.2802C2.07902 13.1395 2 12.9488 2 12.7499V11.2499ZM8.25 8.99986C7.65326 8.99986 7.08097 9.23692 6.65901 9.65887C6.23705 10.0808 6 10.6531 6 11.2499V12.7499C6 13.3466 6.23705 13.9189 6.65901 14.3409C7.08097 14.7628 7.65326 14.9999 8.25 14.9999C8.84674 14.9999 9.41903 14.7628 9.84099 14.3409C10.2629 13.9189 10.5 13.3466 10.5 12.7499V11.2499C10.5 10.6531 10.2629 10.0808 9.84099 9.65887C9.41903 9.23692 8.84674 8.99986 8.25 8.99986ZM7.5 11.2499C7.5 11.051 7.57902 10.8602 7.71967 10.7195C7.86032 10.5789 8.05109 10.4999 8.25 10.4999C8.44891 10.4999 8.63968 10.5789 8.78033 10.7195C8.92098 10.8602 9 11.051 9 11.2499V12.7499C9 12.9488 8.92098 13.1395 8.78033 13.2802C8.63968 13.4208 8.44891 13.4999 8.25 13.4999C8.05109 13.4999 7.86032 13.4208 7.71967 13.2802C7.57902 13.1395 7.5 12.9488 7.5 12.7499V11.2499ZM14 11.2499C14 10.6531 14.2371 10.0808 14.659 9.65887C15.081 9.23692 15.6533 8.99986 16.25 8.99986C16.8467 8.99986 17.419 9.23692 17.841 9.65887C18.2629 10.0808 18.5 10.6531 18.5 11.2499V12.7499C18.5 13.3466 18.2629 13.9189 17.841 14.3409C17.419 14.7628 16.8467 14.9999 16.25 14.9999C15.6533 14.9999 15.081 14.7628 14.659 14.3409C14.2371 13.9189 14 13.3466 14 12.7499V11.2499ZM16.25 10.4999C16.0511 10.4999 15.8603 10.5789 15.7197 10.7195C15.579 10.8602 15.5 11.051 15.5 11.2499V12.7499C15.5 12.9488 15.579 13.1395 15.7197 13.2802C15.8603 13.4208 16.0511 13.4999 16.25 13.4999C16.4489 13.4999 16.6397 13.4208 16.7803 13.2802C16.921 13.1395 17 12.9488 17 12.7499V11.2499C17 11.051 16.921 10.8602 16.7803 10.7195C16.6397 10.5789 16.4489 10.4999 16.25 10.4999ZM21.75 8.99986C21.1533 8.99986 20.581 9.23692 20.159 9.65887C19.7371 10.0808 19.5 10.6531 19.5 11.2499V12.7499C19.5 13.3466 19.7371 13.9189 20.159 14.3409C20.581 14.7628 21.1533 14.9999 21.75 14.9999C22.3467 14.9999 22.919 14.7628 23.341 14.3409C23.7629 13.9189 24 13.3466 24 12.7499V11.2499C24 10.6531 23.7629 10.0808 23.341 9.65887C22.919 9.23692 22.3467 8.99986 21.75 8.99986ZM21 11.2499C21 11.051 21.079 10.8602 21.2197 10.7195C21.3603 10.5789 21.5511 10.4999 21.75 10.4999C21.9489 10.4999 22.1397 10.5789 22.2803 10.7195C22.421 10.8602 22.5 11.051 22.5 11.2499V12.7499C22.5 12.9488 22.421 13.1395 22.2803 13.2802C22.1397 13.4208 21.9489 13.4999 21.75 13.4999C21.5511 13.4999 21.3603 13.4208 21.2197 13.2802C21.079 13.1395 21 12.9488 21 12.7499V11.2499ZM13 10.7499C13 10.9488 12.921 11.1395 12.7803 11.2802C12.6397 11.4208 12.4489 11.4999 12.25 11.4999C12.0511 11.4999 11.8603 11.4208 11.7197 11.2802C11.579 11.1395 11.5 10.9488 11.5 10.7499C11.5 10.551 11.579 10.3602 11.7197 10.2195C11.8603 10.0789 12.0511 9.99986 12.25 9.99986C12.4489 9.99986 12.6397 10.0789 12.7803 10.2195C12.921 10.3602 13 10.551 13 10.7499ZM12.25 14.4999C12.4489 14.4999 12.6397 14.4208 12.7803 14.2802C12.921 14.1395 13 13.9488 13 13.7499C13 13.551 12.921 13.3602 12.7803 13.2195C12.6397 13.0789 12.4489 12.9999 12.25 12.9999C12.0511 12.9999 11.8603 13.0789 11.7197 13.2195C11.579 13.3602 11.5 13.551 11.5 13.7499C11.5 13.9488 11.579 14.1395 11.7197 14.2802C11.8603 14.4208 12.0511 14.4999 12.25 14.4999ZM12.63 22.0259L16.63 18.7759C16.8267 18.606 16.9496 18.3661 16.9725 18.1072C16.9954 17.8482 16.9166 17.5905 16.7528 17.3887C16.5889 17.1869 16.3529 17.0568 16.0948 17.0261C15.8367 16.9953 15.5767 17.0662 15.37 17.2239L12 19.9619L8.63 17.2239C8.52867 17.1364 8.41081 17.0701 8.28339 17.029C8.15598 16.9879 8.02161 16.9728 7.88825 16.9846C7.75489 16.9964 7.62526 17.0349 7.50704 17.0977C7.38882 17.1605 7.28443 17.2465 7.20004 17.3504C7.11566 17.4544 7.053 17.5742 7.0158 17.7028C6.97859 17.8314 6.96758 17.9662 6.98343 18.0991C6.99928 18.232 7.04167 18.3604 7.10807 18.4767C7.17447 18.5929 7.26354 18.6947 7.37 18.7759L11.37 22.0259C11.5482 22.1704 11.7706 22.2493 12 22.2493C12.2294 22.2493 12.4518 22.1704 12.63 22.0259Z" fill="#0E185F"/>
</svg>
