<svg width="45" height="45" viewBox="0 0 45 45" fill="none" xmlns="http://www.w3.org/2000/svg">
<path d="M1.875 39.375H9.375V16.875H1.875V39.375ZM43.125 18.75C43.125 16.6875 41.4375 15 39.375 15H27.5437L29.325 6.43125L29.3813 5.83125C29.3813 5.0625 29.0625 4.35 28.5562 3.84375L26.5688 1.875L14.2313 14.2313C13.5375 14.9062 13.125 15.8438 13.125 16.875V35.625C13.125 37.6875 14.8125 39.375 16.875 39.375H33.75C35.3063 39.375 36.6375 38.4375 37.2 37.0875L42.8625 23.8687C43.0312 23.4375 43.125 22.9875 43.125 22.5V18.75Z" fill="#0E185F"/>
</svg>
